<svg width="261" height="50" viewBox="0 0 261 50" fill="none" xmlns="http://www.w3.org/2000/svg">
<path d="M161.644 19.2324H155.639V38.4978H161.644V19.2324Z" fill="#104B5A"/>
<path d="M156.308 15.6252C156.935 16.2595 157.72 16.5766 158.662 16.5766C159.604 16.5766 160.376 16.2595 160.977 15.6252C161.58 14.9646 161.881 14.1717 161.881 13.2468C161.881 12.2955 161.58 11.5026 160.977 10.8684C160.376 10.2341 159.604 9.91699 158.662 9.91699C157.72 9.91699 156.935 10.2341 156.308 10.8684C155.705 11.5026 155.404 12.2955 155.404 13.2468C155.404 14.1717 155.705 14.9646 156.308 15.6252Z" fill="#104B5A"/>
<path d="M69.4873 38.4981V10.5117H75.6493V33.0277H87.9341V38.4981H69.4873Z" fill="#104B5A"/>
<path fill-rule="evenodd" clip-rule="evenodd" d="M99.0308 38.9339C97.0684 38.9339 95.2892 38.4979 93.693 37.6258C92.1231 36.7273 90.8803 35.5116 89.9645 33.9788C89.0487 32.446 88.5908 30.7283 88.5908 28.8255C88.5908 26.9228 89.0487 25.2183 89.9645 23.7119C90.8803 22.2055 92.1231 21.0163 93.693 20.1443C95.263 19.2456 97.0423 18.7964 99.0308 18.7964C101.019 18.7964 102.799 19.2325 104.369 20.1045C105.938 20.9766 107.181 22.1791 108.097 23.7119C109.013 25.2183 109.471 26.9228 109.471 28.8255C109.471 30.7283 109.013 32.446 108.097 33.9788C107.181 35.5116 105.938 36.7273 104.369 37.6258C102.799 38.4979 101.019 38.9339 99.0308 38.9339ZM99.0308 33.4239C99.8943 33.4239 100.653 33.2389 101.307 32.8689C101.961 32.4725 102.459 31.9308 102.799 31.2436C103.165 30.5301 103.348 29.724 103.348 28.8255C103.348 27.927 103.165 27.1474 102.799 26.4868C102.432 25.7996 101.922 25.2711 101.268 24.9011C100.64 24.5046 99.8943 24.3065 99.0308 24.3065C98.1935 24.3065 97.4479 24.5046 96.7937 24.9011C96.1396 25.2711 95.6293 25.7996 95.263 26.4868C94.8966 27.1739 94.7136 27.9666 94.7136 28.8651C94.7136 29.7373 94.8966 30.5301 95.263 31.2436C95.6293 31.9308 96.1396 32.4725 96.7937 32.8689C97.4479 33.2389 98.1935 33.4239 99.0308 33.4239Z" fill="#104B5A"/>
<path fill-rule="evenodd" clip-rule="evenodd" d="M114.227 46.0296C115.823 46.7694 117.668 47.1394 119.761 47.1394C121.802 47.1394 123.62 46.7298 125.216 45.9106C126.813 45.0913 128.068 43.9551 128.984 42.5016C129.9 41.0481 130.359 39.3303 130.359 37.3482V19.2324H124.471V20.5268C124.033 20.1546 123.536 19.8421 122.979 19.5892C121.959 19.0871 120.794 18.8359 119.486 18.8359C117.733 18.8359 116.176 19.2588 114.816 20.1044C113.455 20.9237 112.382 22.0601 111.597 23.5136C110.812 24.9407 110.42 26.5527 110.42 28.3498C110.42 30.1204 110.812 31.7324 111.597 33.1859C112.382 34.6394 113.455 35.7891 114.816 36.6347C116.176 37.4803 117.733 37.9032 119.486 37.9032C120.768 37.9032 121.933 37.6522 122.979 37.1501C123.486 36.9068 123.944 36.6202 124.353 36.2901V37.5068C124.353 38.8546 123.921 39.8984 123.058 40.6384C122.221 41.3784 121.056 41.7483 119.565 41.7483C118.361 41.7483 117.328 41.5369 116.464 41.1141C115.627 40.6913 114.868 40.0702 114.188 39.2509L110.498 42.9772C111.414 44.2986 112.657 45.3161 114.227 46.0296ZM122.783 31.9571C122.181 32.3271 121.462 32.5121 120.624 32.5121C119.787 32.5121 119.054 32.3271 118.426 31.9571C117.825 31.5871 117.354 31.0849 117.014 30.4507C116.673 29.7901 116.503 29.0897 116.503 28.3498C116.503 27.5569 116.673 26.8434 117.014 26.2092C117.354 25.5749 117.838 25.0728 118.466 24.7028C119.094 24.3328 119.813 24.1478 120.624 24.1478C121.462 24.1478 122.181 24.3328 122.783 24.7028C123.411 25.0728 123.882 25.5749 124.196 26.2092C124.536 26.8434 124.706 27.5569 124.706 28.3498C124.706 29.1426 124.536 29.8561 124.196 30.4903C123.882 31.0982 123.411 31.5871 122.783 31.9571Z" fill="#104B5A"/>
<path fill-rule="evenodd" clip-rule="evenodd" d="M142.996 38.9339C141.033 38.9339 139.253 38.4979 137.658 37.6258C136.087 36.7273 134.845 35.5116 133.929 33.9788C133.013 32.446 132.555 30.7283 132.555 28.8255C132.555 26.9228 133.013 25.2183 133.929 23.7119C134.845 22.2055 136.087 21.0163 137.658 20.1443C139.227 19.2456 141.007 18.7964 142.996 18.7964C144.983 18.7964 146.763 19.2325 148.332 20.1045C149.903 20.9766 151.146 22.1791 152.061 23.7119C152.977 25.2183 153.435 26.9228 153.435 28.8255C153.435 30.7283 152.977 32.446 152.061 33.9788C151.146 35.5116 149.903 36.7273 148.332 37.6258C146.763 38.4979 144.983 38.9339 142.996 38.9339ZM142.996 33.4239C143.858 33.4239 144.617 33.2389 145.272 32.8689C145.925 32.4725 146.423 31.9308 146.763 31.2436C147.129 30.5301 147.313 29.724 147.313 28.8255C147.313 27.927 147.129 27.1474 146.763 26.4868C146.397 25.7996 145.887 25.2711 145.232 24.9011C144.605 24.5046 143.858 24.3065 142.996 24.3065C142.158 24.3065 141.412 24.5046 140.758 24.9011C140.103 25.2711 139.594 25.7996 139.227 26.4868C138.861 27.1739 138.678 27.9666 138.678 28.8651C138.678 29.7373 138.861 30.5301 139.227 31.2436C139.594 31.9308 140.103 32.4725 140.758 32.8689C141.412 33.2389 142.158 33.4239 142.996 33.4239Z" fill="#104B5A"/>
<path fill-rule="evenodd" clip-rule="evenodd" d="M176.078 38.8942C174.797 38.8942 173.619 38.6432 172.546 38.1411C171.981 37.8768 171.471 37.5613 171.016 37.1946V46.6242H165.089V19.2324H171.094V20.5621C171.529 20.2022 172.013 19.8911 172.546 19.6288C173.619 19.1002 174.797 18.8359 176.078 18.8359C177.883 18.8359 179.48 19.2721 180.866 20.1442C182.279 21.0162 183.378 22.2054 184.163 23.7118C184.975 25.2182 185.38 26.9359 185.38 28.8651C185.38 30.7943 184.975 32.5121 184.163 34.0184C183.378 35.5248 182.279 36.7139 180.866 37.5861C179.48 38.4582 177.883 38.8942 176.078 38.8942ZM174.98 33.4238C175.843 33.4238 176.589 33.2256 177.216 32.8292C177.871 32.4328 178.381 31.8909 178.747 31.2039C179.114 30.5168 179.297 29.7372 179.297 28.8651C179.297 27.9666 179.114 27.1738 178.747 26.4867C178.381 25.7996 177.871 25.2711 177.216 24.9011C176.589 24.5046 175.856 24.3064 175.018 24.3064C174.182 24.3064 173.435 24.5046 172.782 24.9011C172.153 25.2711 171.657 25.7996 171.291 26.4867C170.924 27.1738 170.741 27.9666 170.741 28.8651C170.741 29.7372 170.911 30.5168 171.251 31.2039C171.617 31.8909 172.127 32.4328 172.782 32.8292C173.435 33.2256 174.168 33.4238 174.98 33.4238Z" fill="#104B5A"/>
<path d="M191.257 38.5377C192.356 38.8285 193.467 38.9737 194.592 38.9737C196.973 38.9737 198.857 38.4189 200.244 37.3089C201.657 36.199 202.363 34.7059 202.363 32.8295C202.363 31.6139 202.142 30.636 201.696 29.8961C201.252 29.1297 200.676 28.5219 199.97 28.0726C199.263 27.6234 198.517 27.2665 197.732 27.0022C196.947 26.738 196.201 26.5134 195.496 26.3284C194.789 26.1434 194.214 25.932 193.768 25.6941C193.324 25.4562 193.101 25.1391 193.101 24.7427C193.101 24.3727 193.272 24.0952 193.611 23.9102C193.951 23.6989 194.461 23.5932 195.142 23.5932C195.848 23.5932 196.568 23.7385 197.3 24.0292C198.059 24.3199 198.74 24.8221 199.341 25.5356L202.756 22.0472C201.893 20.9372 200.768 20.1047 199.381 19.5499C198.02 18.9685 196.529 18.6777 194.907 18.6777C193.363 18.6777 192.016 18.942 190.865 19.4705C189.712 19.9991 188.822 20.7259 188.195 21.6507C187.568 22.5492 187.253 23.6196 187.253 24.8617C187.253 26.0245 187.476 26.9891 187.92 27.7555C188.365 28.4954 188.941 29.0769 189.647 29.4996C190.353 29.9225 191.1 30.2529 191.884 30.4906C192.669 30.7285 193.415 30.9531 194.122 31.1646C194.827 31.3496 195.404 31.5742 195.848 31.8385C196.32 32.0764 196.555 32.4331 196.555 32.9087C196.555 33.2787 196.358 33.5694 195.966 33.7809C195.6 33.9922 195.064 34.098 194.357 34.098C193.336 34.098 192.394 33.913 191.532 33.543C190.668 33.1466 189.921 32.6049 189.294 31.9177L185.879 35.4061C186.534 36.1196 187.319 36.754 188.235 37.3089C189.176 37.8374 190.184 38.247 191.257 38.5377Z" fill="#104B5A"/>
<path d="M213.314 38.9338C211.561 38.9338 210.004 38.577 208.644 37.8635C207.309 37.1235 206.263 36.1193 205.504 34.8508C204.744 33.5559 204.366 32.076 204.366 30.411V19.2324H210.371V30.3318C210.371 30.9924 210.475 31.5607 210.685 32.0363C210.92 32.512 211.261 32.882 211.705 33.1463C212.15 33.4105 212.686 33.5427 213.314 33.5427C214.204 33.5427 214.91 33.2652 215.434 32.7102C215.957 32.1288 216.218 31.336 216.218 30.3318V19.2324H222.223V30.3714C222.223 32.0628 221.845 33.5559 221.085 34.8508C220.326 36.1193 219.28 37.1235 217.945 37.8635C216.611 38.577 215.067 38.9338 213.314 38.9338Z" fill="#104B5A"/>
<path d="M231.213 19.2324H225.208V38.4978H231.213V27.2398C231.213 26.5792 231.345 26.0242 231.606 25.5749C231.894 25.1257 232.274 24.7821 232.744 24.5443C233.216 24.2799 233.752 24.1478 234.353 24.1478C235.217 24.1478 235.936 24.4253 236.512 24.9803C237.114 25.5088 237.415 26.2621 237.415 27.2398V38.4978H243.42V27.2398C243.42 26.5792 243.551 26.0242 243.812 25.5749C244.101 25.1257 244.48 24.7821 244.951 24.5443C245.421 24.2799 245.958 24.1478 246.56 24.1478C247.424 24.1478 248.143 24.4253 248.718 24.9803C249.32 25.5088 249.621 26.2621 249.621 27.2398V38.4978H255.627V26.5659C255.627 24.9539 255.286 23.5797 254.606 22.4433C253.951 21.2804 253.049 20.3952 251.898 19.7874C250.773 19.1531 249.477 18.8359 248.012 18.8359C246.52 18.8359 245.173 19.1663 243.97 19.8271C243.187 20.2479 242.504 20.7912 241.919 21.4567C241.373 20.7606 240.71 20.1909 239.926 19.7477C238.881 19.1399 237.69 18.8359 236.356 18.8359C234.942 18.8359 233.674 19.1399 232.549 19.7477C232.059 20.0006 231.614 20.3034 231.213 20.6563V19.2324Z" fill="#104B5A"/>
<path d="M60.5953 24.2386C60.5953 17.8102 58.0416 11.6449 53.4959 7.09931C48.9503 2.5537 42.7852 8.42992e-07 36.3567 0C29.9283 -8.4299e-07 23.7631 2.5537 19.2175 7.09931C14.6719 11.6449 12.1182 17.8102 12.1182 24.2386H19.6928C22.2028 24.2386 24.1603 22.1352 25.0797 19.7995C25.6833 18.2661 26.5992 16.8569 27.787 15.6689C30.0599 13.3961 33.1425 12.1193 36.3567 12.1193C39.5709 12.1193 42.6536 13.3961 44.9264 15.6689C47.1992 17.9417 48.4759 21.0244 48.4759 24.2386H60.5953Z" fill="#FF7D44"/>
<path d="M46.6319 33.5144C47.85 30.5736 48.4771 27.4217 48.4771 24.2388H60.595C60.595 37.6253 49.743 48.4772 36.3564 48.4772C34.26 48.4772 32.2256 48.2111 30.2856 47.7108C31.3833 47.428 32.4622 47.0678 33.5141 46.6322C36.4549 45.4141 39.1269 43.6288 41.3777 41.378C43.6285 39.1272 45.4139 36.4552 46.6319 33.5144Z" fill="#FF7D44"/>
<path d="M0 24.2383C-4.55364e-07 27.4214 0.626948 30.5733 1.84505 33.5141C3.06316 36.4548 4.84855 39.1269 7.09931 41.3777C9.35006 43.6283 12.0221 45.4137 14.9629 46.6319C17.9036 47.85 21.0555 48.4769 24.2386 48.4769C27.4216 48.4769 30.5734 47.85 33.5142 46.6319C36.455 45.4137 39.127 43.6283 41.3778 41.3777C43.6286 39.1269 45.4139 36.4548 46.632 33.5141C47.8502 30.5733 48.4772 27.4214 48.4772 24.2383H40.9025C38.3925 24.2383 36.435 26.3417 35.5156 28.6772C35.4895 28.7438 35.4627 28.81 35.4353 28.8762C34.8263 30.3466 33.9336 31.6827 32.8081 32.808C31.6828 33.9333 30.3467 34.8261 28.8764 35.4352C27.4061 36.0442 25.8302 36.3577 24.2386 36.3577C22.647 36.3577 21.0711 36.0442 19.6008 35.4352C18.1303 34.8261 16.7944 33.9333 15.6689 32.808C14.5435 31.6827 13.6509 30.3466 13.0418 28.8762C12.4327 27.4058 12.1193 25.8298 12.1193 24.2383H0Z" fill="#FF7D44"/>
<path d="M0.00244141 24.2386C0.00244141 10.8519 10.8544 0 24.2409 0C26.3368 0 28.3706 0.266009 30.3104 0.76613C26.1481 1.83839 22.3084 4.00836 19.2173 7.09933C14.6717 11.6449 12.118 17.8102 12.118 24.2386H0.00244141Z" fill="#FF7D44"/>
</svg>
