<svg width="266" height="66" viewBox="0 0 266 66" fill="none" xmlns="http://www.w3.org/2000/svg">
<path d="M165.066 22.3154H159.061V41.5808H165.066V22.3154Z" fill="#104B5A"/>
<path d="M159.73 18.7083C160.357 19.3425 161.142 19.6596 162.084 19.6596C163.025 19.6596 163.798 19.3425 164.399 18.7083C165.002 18.0476 165.303 17.2547 165.303 16.3298C165.303 15.3785 165.002 14.5856 164.399 13.9514C163.798 13.3171 163.025 13 162.084 13C161.142 13 160.357 13.3171 159.73 13.9514C159.127 14.5856 158.826 15.3785 158.826 16.3298C158.826 17.2547 159.127 18.0476 159.73 18.7083Z" fill="#104B5A"/>
<path d="M72.9092 41.5811V13.5947H79.0712V36.1108H91.356V41.5811H72.9092Z" fill="#104B5A"/>
<path fill-rule="evenodd" clip-rule="evenodd" d="M102.453 42.0169C100.49 42.0169 98.7111 41.5809 97.1149 40.7088C95.545 39.8103 94.3022 38.5946 93.3863 37.0618C92.4706 35.529 92.0127 33.8113 92.0127 31.9085C92.0127 30.0058 92.4706 28.3013 93.3863 26.7949C94.3022 25.2885 95.545 24.0993 97.1149 23.2273C98.6848 22.3286 100.464 21.8794 102.453 21.8794C104.441 21.8794 106.22 22.3155 107.79 23.1875C109.36 24.0596 110.603 25.2621 111.519 26.7949C112.435 28.3013 112.893 30.0058 112.893 31.9085C112.893 33.8113 112.435 35.529 111.519 37.0618C110.603 38.5946 109.36 39.8103 107.79 40.7088C106.22 41.5809 104.441 42.0169 102.453 42.0169ZM102.453 36.5069C103.316 36.5069 104.075 36.3219 104.729 35.9519C105.383 35.5555 105.88 35.0138 106.22 34.3266C106.587 33.6131 106.77 32.807 106.77 31.9085C106.77 31.01 106.587 30.2304 106.22 29.5698C105.854 28.8826 105.344 28.3541 104.69 27.9841C104.062 27.5876 103.316 27.3895 102.453 27.3895C101.615 27.3895 100.87 27.5876 100.216 27.9841C99.5615 28.3541 99.0512 28.8826 98.6848 29.5698C98.3185 30.2569 98.1355 31.0496 98.1355 31.9481C98.1355 32.8203 98.3185 33.6131 98.6848 34.3266C99.0512 35.0138 99.5615 35.5555 100.216 35.9519C100.87 36.3219 101.615 36.5069 102.453 36.5069Z" fill="#104B5A"/>
<path fill-rule="evenodd" clip-rule="evenodd" d="M117.649 49.1126C119.245 49.8524 121.09 50.2224 123.183 50.2224C125.224 50.2224 127.042 49.8128 128.638 48.9936C130.234 48.1743 131.49 47.0381 132.406 45.5846C133.322 44.1311 133.78 42.4133 133.78 40.4312V22.3154H127.893V23.6098C127.455 23.2376 126.957 22.9251 126.401 22.6722C125.381 22.1701 124.216 21.9189 122.908 21.9189C121.155 21.9189 119.598 22.3418 118.238 23.1874C116.877 24.0067 115.804 25.1431 115.019 26.5966C114.234 28.0237 113.842 29.6357 113.842 31.4328C113.842 33.2034 114.234 34.8154 115.019 36.2689C115.804 37.7224 116.877 38.8721 118.238 39.7177C119.598 40.5633 121.155 40.9862 122.908 40.9862C124.19 40.9862 125.355 40.7352 126.401 40.2331C126.908 39.9898 127.366 39.7032 127.775 39.3731V40.5898C127.775 41.9376 127.343 42.9814 126.48 43.7214C125.642 44.4614 124.478 44.8313 122.987 44.8313C121.783 44.8313 120.749 44.6199 119.886 44.1971C119.049 43.7743 118.29 43.1532 117.609 42.3339L113.92 46.0602C114.836 47.3816 116.079 48.3991 117.649 49.1126ZM126.205 35.0401C125.603 35.4101 124.884 35.5951 124.046 35.5951C123.209 35.5951 122.476 35.4101 121.848 35.0401C121.246 34.6701 120.776 34.1679 120.435 33.5337C120.095 32.8731 119.925 32.1727 119.925 31.4328C119.925 30.6399 120.095 29.9264 120.435 29.2922C120.776 28.6579 121.26 28.1558 121.888 27.7858C122.516 27.4158 123.235 27.2308 124.046 27.2308C124.884 27.2308 125.603 27.4158 126.205 27.7858C126.833 28.1558 127.304 28.6579 127.618 29.2922C127.958 29.9264 128.128 30.6399 128.128 31.4328C128.128 32.2256 127.958 32.9391 127.618 33.5733C127.304 34.1812 126.833 34.6701 126.205 35.0401Z" fill="#104B5A"/>
<path fill-rule="evenodd" clip-rule="evenodd" d="M146.418 42.0169C144.455 42.0169 142.675 41.5809 141.08 40.7088C139.509 39.8103 138.267 38.5946 137.351 37.0618C136.435 35.529 135.977 33.8113 135.977 31.9085C135.977 30.0058 136.435 28.3013 137.351 26.7949C138.267 25.2885 139.509 24.0993 141.08 23.2273C142.649 22.3286 144.429 21.8794 146.418 21.8794C148.405 21.8794 150.185 22.3155 151.754 23.1875C153.325 24.0596 154.567 25.2621 155.483 26.7949C156.399 28.3013 156.857 30.0058 156.857 31.9085C156.857 33.8113 156.399 35.529 155.483 37.0618C154.567 38.5946 153.325 39.8103 151.754 40.7088C150.185 41.5809 148.405 42.0169 146.418 42.0169ZM146.418 36.5069C147.28 36.5069 148.039 36.3219 148.694 35.9519C149.347 35.5555 149.845 35.0138 150.185 34.3266C150.551 33.6131 150.734 32.807 150.734 31.9085C150.734 31.01 150.551 30.2304 150.185 29.5698C149.819 28.8826 149.309 28.3541 148.654 27.9841C148.027 27.5876 147.28 27.3895 146.418 27.3895C145.58 27.3895 144.833 27.5876 144.18 27.9841C143.525 28.3541 143.015 28.8826 142.649 29.5698C142.283 30.2569 142.1 31.0496 142.1 31.9481C142.1 32.8203 142.283 33.6131 142.649 34.3266C143.015 35.0138 143.525 35.5555 144.18 35.9519C144.833 36.3219 145.58 36.5069 146.418 36.5069Z" fill="#104B5A"/>
<path fill-rule="evenodd" clip-rule="evenodd" d="M179.5 41.9772C178.219 41.9772 177.04 41.7262 175.967 41.2241C175.403 40.9598 174.893 40.6443 174.438 40.2776V49.7072H168.511V22.3154H174.516V23.6451C174.951 23.2852 175.435 22.9741 175.967 22.7118C177.04 22.1832 178.219 21.9189 179.5 21.9189C181.305 21.9189 182.902 22.3551 184.288 23.2272C185.701 24.0992 186.8 25.2884 187.585 26.7948C188.397 28.3012 188.802 30.0189 188.802 31.9481C188.802 33.8773 188.397 35.5951 187.585 37.1014C186.8 38.6078 185.701 39.7969 184.288 40.6691C182.902 41.5412 181.305 41.9772 179.5 41.9772ZM178.402 36.5068C179.264 36.5068 180.011 36.3086 180.638 35.9122C181.293 35.5158 181.803 34.9739 182.169 34.2869C182.536 33.5998 182.719 32.8202 182.719 31.9481C182.719 31.0496 182.536 30.2568 182.169 29.5697C181.803 28.8826 181.293 28.3541 180.638 27.9841C180.011 27.5876 179.278 27.3894 178.44 27.3894C177.604 27.3894 176.857 27.5876 176.204 27.9841C175.575 28.3541 175.079 28.8826 174.712 29.5697C174.346 30.2568 174.163 31.0496 174.163 31.9481C174.163 32.8202 174.333 33.5998 174.673 34.2869C175.039 34.9739 175.549 35.5158 176.204 35.9122C176.857 36.3086 177.59 36.5068 178.402 36.5068Z" fill="#104B5A"/>
<path d="M194.679 41.6207C195.778 41.9115 196.889 42.0567 198.014 42.0567C200.395 42.0567 202.279 41.5019 203.666 40.3919C205.078 39.282 205.785 37.7889 205.785 35.9125C205.785 34.6969 205.564 33.719 205.118 32.9791C204.674 32.2127 204.098 31.6049 203.392 31.1556C202.685 30.7064 201.939 30.3495 201.154 30.0852C200.369 29.821 199.623 29.5964 198.918 29.4114C198.211 29.2264 197.635 29.015 197.19 28.7771C196.746 28.5392 196.523 28.2221 196.523 27.8257C196.523 27.4557 196.694 27.1782 197.033 26.9932C197.373 26.7819 197.883 26.6762 198.564 26.6762C199.27 26.6762 199.989 26.8215 200.722 27.1122C201.481 27.4029 202.161 27.9051 202.763 28.6186L206.178 25.1302C205.315 24.0202 204.19 23.1877 202.803 22.6329C201.442 22.0515 199.951 21.7607 198.328 21.7607C196.785 21.7607 195.437 22.025 194.286 22.5535C193.134 23.0821 192.244 23.8089 191.617 24.7337C190.989 25.6322 190.675 26.7026 190.675 27.9447C190.675 29.1075 190.898 30.0721 191.342 30.8385C191.786 31.5784 192.363 32.1599 193.069 32.5826C193.775 33.0055 194.522 33.3359 195.306 33.5736C196.091 33.8115 196.837 34.0361 197.544 34.2476C198.249 34.4326 198.826 34.6572 199.27 34.9215C199.742 35.1594 199.977 35.5161 199.977 35.9917C199.977 36.3617 199.78 36.6524 199.388 36.8639C199.022 37.0752 198.486 37.181 197.779 37.181C196.758 37.181 195.816 36.996 194.953 36.626C194.09 36.2296 193.343 35.6879 192.716 35.0007L189.301 38.4891C189.956 39.2026 190.741 39.837 191.656 40.3919C192.598 40.9204 193.606 41.33 194.679 41.6207Z" fill="#104B5A"/>
<path d="M216.736 42.0168C214.983 42.0168 213.426 41.6601 212.066 40.9466C210.731 40.2066 209.685 39.2023 208.926 37.9338C208.166 36.6389 207.788 35.1591 207.788 33.4941V22.3154H213.793V33.4148C213.793 34.0754 213.897 34.6437 214.107 35.1193C214.342 35.5951 214.682 35.9651 215.127 36.2293C215.572 36.4936 216.108 36.6257 216.736 36.6257C217.625 36.6257 218.332 36.3482 218.856 35.7932C219.379 35.2118 219.64 34.4191 219.64 33.4148V22.3154H225.645V33.4544C225.645 35.1458 225.267 36.6389 224.507 37.9338C223.748 39.2023 222.702 40.2066 221.367 40.9466C220.033 41.6601 218.489 42.0168 216.736 42.0168Z" fill="#104B5A"/>
<path d="M234.635 22.3154H228.63V41.5808H234.635V30.3228C234.635 29.6622 234.766 29.1072 235.028 28.6579C235.316 28.2087 235.696 27.8651 236.166 27.6273C236.638 27.3629 237.174 27.2308 237.775 27.2308C238.639 27.2308 239.358 27.5083 239.934 28.0633C240.536 28.5918 240.837 29.3451 240.837 30.3228V41.5808H246.842V30.3228C246.842 29.6622 246.973 29.1072 247.234 28.6579C247.523 28.2087 247.901 27.8651 248.373 27.6273C248.843 27.3629 249.38 27.2308 249.982 27.2308C250.846 27.2308 251.565 27.5083 252.14 28.0633C252.742 28.5918 253.042 29.3451 253.042 30.3228V41.5808H259.049V29.6489C259.049 28.0369 258.708 26.6627 258.028 25.5263C257.373 24.3634 256.471 23.4782 255.32 22.8704C254.195 22.2361 252.899 21.9189 251.434 21.9189C249.942 21.9189 248.594 22.2493 247.392 22.9101C246.609 23.3309 245.926 23.8742 245.341 24.5397C244.795 23.8436 244.132 23.2739 243.348 22.8307C242.302 22.2229 241.112 21.9189 239.778 21.9189C238.364 21.9189 237.096 22.2229 235.971 22.8307C235.481 23.0836 235.036 23.3864 234.635 23.7393V22.3154Z" fill="#104B5A"/>
<path d="M60.9093 22.6318C60.9095 18.8786 59.7712 15.2129 57.6436 12.1148C55.5159 9.01667 52.4979 6.63059 48.9852 5.2691C45.4725 3.9076 41.6286 3.63417 37.9572 4.48461C34.2856 5.33504 30.9578 7.26971 28.4093 10.0352H4.77295V59.7049H54.6782V36.4918C56.6369 34.7475 58.2044 32.6115 59.278 30.2233C60.3517 27.835 60.9076 25.2484 60.9093 22.6318ZM51.307 22.6318C51.3108 24.4302 50.7786 26.1893 49.7778 27.6866C48.7769 29.1837 47.3526 30.3517 45.6848 31.0424C44.017 31.7333 42.1811 31.9161 40.4089 31.5674C38.6369 31.2189 37.0085 30.3547 35.7299 29.0843C34.4513 27.8139 33.5801 26.1944 33.2263 24.4307C32.8725 22.6672 33.0523 20.8386 33.7426 19.1768C34.4329 17.5148 35.603 16.0942 37.1045 15.0946C38.6062 14.095 40.372 13.5615 42.1782 13.5615C44.596 13.5615 46.9151 14.5165 48.6265 16.217C50.3381 17.9174 51.3021 20.2245 51.307 22.6318ZM45.0759 50.1443H14.3752V19.5958H23.7312C23.5506 20.598 23.4555 21.6137 23.4472 22.6318C23.4523 27.5765 25.4273 32.3172 28.939 35.8137C32.4506 39.31 37.2119 41.2766 42.1782 41.2815C43.1492 41.2764 44.1182 41.1944 45.0759 41.0363V50.1443Z" fill="#FF7D44"/>
</svg>
