<svg width="250" height="62" viewBox="0 0 250 62" fill="none" xmlns="http://www.w3.org/2000/svg">
<path d="M40.2109 31.0409C42.2511 29.335 43.5485 26.7726 43.5485 23.9075C43.5485 21.0426 42.2511 18.4802 40.2109 16.7742C40.4448 16.6612 40.6698 16.5385 40.8841 16.4055C42.2374 15.5653 43.8346 15.0801 45.5454 15.0801C50.4279 15.0801 54.3859 19.0324 54.3859 23.9075C54.3859 28.7828 50.4279 32.735 45.5454 32.735C43.8346 32.735 42.2374 32.2498 40.8841 31.4097C40.6698 31.2767 40.4448 31.154 40.2109 31.0409Z" fill="#FF7D44"/>
<path d="M37.7558 25.2973C38.6684 22.8014 38.5089 19.9345 37.0742 17.4534C35.6396 14.9722 33.2329 13.4009 30.6118 12.942C30.7577 12.7274 30.8911 12.5088 31.01 12.2866C31.7613 10.8834 32.9017 9.66571 34.3832 8.81158C38.6117 6.37393 44.0185 7.82054 46.4597 12.0427C48.9009 16.2648 47.4522 21.6637 43.2237 24.1012C41.7422 24.9554 40.1159 25.3326 38.5233 25.2807C38.2711 25.2724 38.0148 25.2786 37.7558 25.2973Z" fill="#FF7D44"/>
<path d="M32.7529 21.5491C32.2934 18.9319 30.7198 16.5288 28.2349 15.0963C25.7501 13.6638 22.8791 13.5045 20.3794 14.4158C20.3983 14.1571 20.4044 13.9012 20.3961 13.6494C20.3441 12.059 20.7219 10.4352 21.5773 8.95574C24.0186 4.73362 29.4253 3.28702 33.6537 5.72466C37.882 8.16231 39.3309 13.5611 36.8895 17.7833C36.0341 19.2626 34.8147 20.4013 33.4093 21.1515C33.1869 21.2703 32.968 21.4034 32.7529 21.5491Z" fill="#FF7D44"/>
<path d="M26.5426 20.8006C24.8341 18.7635 22.2679 17.468 19.3986 17.468C16.5293 17.468 13.9632 18.7635 12.2548 20.8006C12.1416 20.5672 12.0187 20.3425 11.8855 20.1284C11.0441 18.7772 10.5581 17.1823 10.5581 15.474C10.5581 10.5987 14.5161 6.64648 19.3986 6.64648C24.2811 6.64648 28.2391 10.5987 28.2391 15.474C28.2391 17.1823 27.7532 18.7772 26.9119 20.1284C26.7785 20.3425 26.6557 20.5672 26.5426 20.8006Z" fill="#FF7D44"/>
<path d="M20.7893 23.2528C18.2897 22.3415 15.4185 22.5008 12.9337 23.9331C10.4489 25.3657 8.87522 27.7688 8.41574 30.386C8.20082 30.2403 7.98187 30.1072 7.75935 29.9884C6.35404 29.2382 5.13455 28.0995 4.27915 26.6202C1.8379 22.398 3.28664 16.9993 7.515 14.5616C11.7434 12.1239 17.1501 13.5705 19.5915 17.7927C20.4468 19.2721 20.8246 20.896 20.7725 22.4863C20.7643 22.738 20.7704 22.994 20.7893 23.2528Z" fill="#FF7D44"/>
<path d="M17.0338 28.2483C14.4127 28.7071 12.006 30.2784 10.5714 32.7596C9.13678 35.2407 8.9773 38.1076 9.88992 40.6036C9.63083 40.5846 9.37448 40.5786 9.12229 40.5868C7.52961 40.6388 5.90333 40.2616 4.42175 39.4075C0.193381 36.9697 -1.25536 31.571 1.18588 27.3488C3.62712 23.1267 9.03391 21.68 13.2623 24.1178C14.7439 24.9719 15.8842 26.1895 16.6355 27.5927C16.7544 27.8149 16.8879 28.0336 17.0338 28.2483Z" fill="#FF7D44"/>
<path d="M16.2829 34.4496C14.2427 36.1556 12.9453 38.718 12.9453 41.5829C12.9453 44.4479 14.2427 47.0103 16.2829 48.7163C16.0491 48.8292 15.8241 48.9521 15.6098 49.085C14.2565 49.9251 12.6592 50.4104 10.9484 50.4104C6.06595 50.4104 2.10791 46.4582 2.10791 41.5829C2.10791 36.7075 6.06595 32.7554 10.9484 32.7554C12.6592 32.7554 14.2565 33.2406 15.6098 34.0809C15.8241 34.2138 16.0491 34.3365 16.2829 34.4496Z" fill="#FF7D44"/>
<path d="M18.7376 40.1948C17.8249 42.6908 17.9843 45.5577 19.419 48.0388C20.8536 50.5201 23.2603 52.0913 25.8814 52.5501C25.7355 52.7648 25.6021 52.9835 25.4832 53.2057C24.7319 54.6088 23.5915 55.8265 22.11 56.6806C17.8815 59.1184 12.4748 57.6716 10.0335 53.4496C7.59229 49.2274 9.04104 43.8287 13.2694 41.3909C14.751 40.5368 16.3773 40.1596 17.9699 40.2116C18.2221 40.2198 18.4784 40.2138 18.7376 40.1948Z" fill="#FF7D44"/>
<path d="M23.7409 43.9448C24.2003 46.562 25.774 48.9652 28.2588 50.3976C30.7436 51.8301 33.6149 51.9893 36.1145 51.0781C36.0956 51.3369 36.0895 51.5927 36.0977 51.8446C36.1498 53.4349 35.7721 55.0588 34.9167 56.5382C32.4753 60.7604 27.0686 62.2069 22.8402 59.7692C18.6118 57.3316 17.1631 51.9329 19.6044 47.7107C20.4598 46.2313 21.6793 45.0926 23.0845 44.3424C23.307 44.2237 23.526 44.0904 23.7409 43.9448Z" fill="#FF7D44"/>
<path d="M29.951 44.6948C31.6595 46.732 34.2256 48.0275 37.0949 48.0275C39.9642 48.0275 42.5304 46.732 44.2389 44.6948C44.3519 44.9283 44.4748 45.153 44.6082 45.3669C45.4495 46.7181 45.9354 48.3132 45.9354 50.0214C45.9354 54.8968 41.9774 58.8489 37.0949 58.8489C32.2124 58.8489 28.2544 54.8968 28.2544 50.0214C28.2544 48.3132 28.7403 46.7181 29.5817 45.3669C29.715 45.153 29.8379 44.9283 29.951 44.6948Z" fill="#FF7D44"/>
<path d="M35.7051 42.2436C38.2048 43.1549 41.0758 42.9956 43.5606 41.5632C46.0454 40.1307 47.6191 37.7276 48.0786 35.1104C48.2935 35.2559 48.5124 35.3892 48.735 35.508C50.1404 36.2582 51.3598 37.3968 52.2152 38.8762C54.6565 43.0984 53.2077 48.4971 48.9794 50.9349C44.751 53.3725 39.3443 51.9259 36.903 47.7037C36.0476 46.2243 35.6698 44.6004 35.7217 43.0101C35.7301 42.7584 35.724 42.5024 35.7051 42.2436Z" fill="#FF7D44"/>
<path d="M45.9281 32.7271C45.9263 32.7302 45.9245 32.7333 45.9227 32.7364C44.4882 35.2175 42.0815 36.7889 39.4604 37.2477C39.6062 37.4624 39.7397 37.6811 39.8587 37.9031C40.61 39.3064 41.7503 40.5241 43.2319 41.3782C47.4603 43.816 52.867 42.3692 55.3083 38.1472C57.4011 34.5274 56.635 30.0428 53.7093 27.3008C52.424 30.3807 49.4415 32.5776 45.9281 32.7271Z" fill="#FF7D44"/>
<path d="M77.2232 16.0564V42.4211H71.3716V16.0564H77.2232ZM72.2992 42.4211L72.4062 37.255H87.5704V42.4211H72.2992ZM88.4863 33.4784C88.4863 31.6021 88.8788 29.9632 89.6637 28.5618C90.4487 27.1366 91.5548 26.0322 92.982 25.2484C94.4092 24.4646 96.0742 24.0727 97.9773 24.0727C99.8802 24.0727 101.533 24.4646 102.937 25.2484C104.364 26.0322 105.47 27.1366 106.255 28.5618C107.04 29.9632 107.433 31.6021 107.433 33.4784C107.433 35.3549 107.04 36.9938 106.255 38.3952C105.47 39.7965 104.364 40.8891 102.937 41.6729C101.533 42.4567 99.8802 42.8486 97.9773 42.8486C96.0742 42.8486 94.4092 42.4567 92.982 41.6729C91.5548 40.8891 90.4487 39.7965 89.6637 38.3952C88.8788 36.9938 88.4863 35.3549 88.4863 33.4784ZM94.0167 33.4429C94.0167 34.3454 94.1832 35.1412 94.5162 35.83C94.8492 36.495 95.3131 37.0175 95.9077 37.3976C96.5025 37.7538 97.1923 37.932 97.9773 37.932C98.7623 37.932 99.452 37.7538 100.047 37.3976C100.641 37.0175 101.093 36.495 101.403 35.83C101.736 35.1412 101.902 34.3454 101.902 33.4429C101.902 32.5403 101.736 31.7564 101.403 31.0914C101.093 30.4264 100.641 29.9157 100.047 29.5594C99.452 29.1794 98.7623 28.9893 97.9773 28.9893C97.1923 28.9893 96.5025 29.1794 95.9077 29.5594C95.3131 29.9157 94.8492 30.4264 94.5162 31.0914C94.1832 31.7564 94.0167 32.5403 94.0167 33.4429ZM108.673 33.1935C108.673 31.3645 109.042 29.7614 109.779 28.3837C110.517 27.0061 111.528 25.9373 112.812 25.1771C114.097 24.3933 115.572 24.0014 117.237 24.0014C118.64 24.0014 119.877 24.2864 120.947 24.8565C122.042 25.4266 122.779 26.1748 123.16 27.1011L122.624 27.4574L123.053 24.6072H128.012V41.281C128.012 43.3712 127.608 45.1763 126.799 46.6965C125.99 48.2403 124.837 49.4279 123.338 50.2592C121.863 51.0905 120.103 51.5062 118.057 51.5062C116.345 51.5062 114.799 51.1618 113.419 50.4729C112.063 49.8079 110.957 48.8578 110.101 47.6227C109.268 46.3876 108.768 44.9626 108.602 43.3473H114.168C114.216 44.3687 114.62 45.1525 115.381 45.6989C116.166 46.2452 117.165 46.5183 118.378 46.5183C119.734 46.5183 120.781 46.1383 121.518 45.3782C122.256 44.6418 122.624 43.6562 122.624 42.4211V38.6445L123.124 39.1077C122.743 40.0341 122.006 40.7822 120.912 41.3523C119.818 41.9223 118.557 42.2074 117.13 42.2074C115.488 42.2074 114.025 41.8274 112.741 41.0672C111.48 40.3072 110.481 39.2503 109.744 37.8964C109.03 36.5425 108.673 34.9749 108.673 33.1935ZM114.239 33.0509C114.239 33.9061 114.418 34.666 114.775 35.3311C115.132 35.9963 115.607 36.5187 116.202 36.8987C116.797 37.255 117.451 37.4332 118.164 37.4332C119.021 37.4332 119.77 37.255 120.412 36.8987C121.078 36.5187 121.59 35.9963 121.946 35.3311C122.327 34.666 122.517 33.9061 122.517 33.0509C122.517 32.1722 122.327 31.4239 121.946 30.8064C121.566 30.1652 121.043 29.6662 120.376 29.3101C119.734 28.9537 118.985 28.7756 118.129 28.7756C117.415 28.7756 116.761 28.9537 116.166 29.3101C115.572 29.6662 115.096 30.1652 114.739 30.8064C114.406 31.4478 114.239 32.1958 114.239 33.0509ZM129.97 33.4784C129.97 31.6021 130.363 29.9632 131.148 28.5618C131.933 27.1366 133.039 26.0322 134.466 25.2484C135.893 24.4646 137.559 24.0727 139.461 24.0727C141.364 24.0727 143.017 24.4646 144.421 25.2484C145.848 26.0322 146.954 27.1366 147.739 28.5618C148.524 29.9632 148.917 31.6021 148.917 33.4784C148.917 35.3549 148.524 36.9938 147.739 38.3952C146.954 39.7965 145.848 40.8891 144.421 41.6729C143.017 42.4567 141.364 42.8486 139.461 42.8486C137.559 42.8486 135.893 42.4567 134.466 41.6729C133.039 40.8891 131.933 39.7965 131.148 38.3952C130.363 36.9938 129.97 35.3549 129.97 33.4784ZM135.501 33.4429C135.501 34.3454 135.667 35.1412 136 35.83C136.333 36.495 136.797 37.0175 137.392 37.3976C137.987 37.7538 138.676 37.932 139.461 37.932C140.246 37.932 140.936 37.7538 141.531 37.3976C142.126 37.0175 142.577 36.495 142.887 35.83C143.22 35.1412 143.386 34.3454 143.386 33.4429C143.386 32.5403 143.22 31.7564 142.887 31.0914C142.577 30.4264 142.126 29.9157 141.531 29.5594C140.936 29.1794 140.246 28.9893 139.461 28.9893C138.676 28.9893 137.987 29.1794 137.392 29.5594C136.797 29.9157 136.333 30.4264 136 31.0914C135.667 31.7564 135.501 32.5403 135.501 33.4429ZM151.228 42.4211V24.6072H156.758V42.4211H151.228ZM154.011 21.8281C153.131 21.8281 152.382 21.5312 151.763 20.9374C151.168 20.3199 150.871 19.5717 150.871 18.6929C150.871 17.8141 151.168 17.0778 151.763 16.4839C152.382 15.8902 153.131 15.5933 154.011 15.5933C154.867 15.5933 155.593 15.8902 156.187 16.4839C156.806 17.0778 157.115 17.8141 157.115 18.6929C157.115 19.5717 156.806 20.3199 156.187 20.9374C155.593 21.5312 154.867 21.8281 154.011 21.8281ZM160.335 50.9719V24.6072H165.366L165.651 26.7805C166.151 25.9492 166.948 25.2841 168.041 24.7852C169.136 24.2864 170.314 24.0371 171.574 24.0371C173.239 24.0371 174.69 24.4052 175.927 25.1415C177.164 25.8779 178.139 26.9348 178.853 28.3125C179.566 29.6662 179.946 31.3052 179.995 33.2291C180.043 35.1054 179.732 36.7801 179.067 38.2526C178.401 39.7014 177.438 40.8416 176.177 41.6729C174.915 42.5043 173.394 42.9199 171.61 42.9199C170.373 42.9199 169.219 42.7061 168.149 42.2787C167.079 41.851 166.281 41.3048 165.758 40.6397V50.9719H160.335ZM165.865 33.5141C165.865 34.3929 166.043 35.1767 166.401 35.8656C166.781 36.5306 167.293 37.0532 167.935 37.4332C168.6 37.7895 169.361 37.9675 170.217 37.9675C171.098 37.9675 171.848 37.7776 172.466 37.3976C173.108 37.0175 173.597 36.495 173.928 35.83C174.286 35.1648 174.464 34.3929 174.464 33.5141C174.464 32.6352 174.286 31.8633 173.928 31.1983C173.597 30.5333 173.108 30.0107 172.466 29.6307C171.848 29.2507 171.098 29.0606 170.217 29.0606C169.361 29.0606 168.6 29.2507 167.935 29.6307C167.293 29.987 166.781 30.4977 166.401 31.1627C166.043 31.8278 165.865 32.6116 165.865 33.5141ZM180.936 36.7918H185.897C185.897 37.4094 186.098 37.8964 186.503 38.2526C186.932 38.6089 187.549 38.7871 188.358 38.7871C188.834 38.7871 189.227 38.7277 189.536 38.6089C189.869 38.4901 190.119 38.3239 190.285 38.1101C190.476 37.8726 190.57 37.6114 190.57 37.3263C190.57 37.0175 190.464 36.7563 190.25 36.5425C190.059 36.3288 189.726 36.1625 189.25 36.0437L186.111 35.2242C184.35 34.7493 183.101 34.0485 182.365 33.1222C181.626 32.1958 181.258 31.1389 181.258 29.9513C181.258 28.7636 181.556 27.7305 182.151 26.8518C182.768 25.9492 183.601 25.2603 184.647 24.7852C185.695 24.2864 186.871 24.0371 188.18 24.0371C190.154 24.0371 191.771 24.5834 193.033 25.676C194.317 26.7447 194.995 28.2055 195.067 30.0581H190.106C190.131 29.4406 189.953 28.9537 189.572 28.5974C189.191 28.2174 188.691 28.0275 188.074 28.0275C187.526 28.0275 187.074 28.1699 186.718 28.4549C186.384 28.7162 186.217 29.0844 186.217 29.5594C186.217 30.0107 186.384 30.3432 186.718 30.5571C187.051 30.747 187.502 30.9133 188.074 31.0559L191.249 31.8397C192.724 32.1958 193.842 32.8016 194.603 33.6566C195.365 34.5117 195.744 35.6044 195.744 36.9344C195.744 38.7633 195.067 40.2121 193.711 41.281C192.355 42.3498 190.595 42.8843 188.43 42.8843C186.195 42.8843 184.397 42.3261 183.043 41.2098C181.709 40.0697 181.008 38.597 180.936 36.7918ZM204.512 42.8843C202.418 42.8843 200.801 42.231 199.659 40.9248C198.518 39.6184 197.946 37.9082 197.946 35.7943V24.6072H203.441V33.7992C203.441 35.4618 203.739 36.5781 204.334 37.1482C204.928 37.7182 205.713 38.0033 206.688 38.0033C207.95 38.0033 208.817 37.6469 209.293 36.9344C209.768 36.2219 210.007 35.2005 210.007 33.8703V24.6072H215.502V42.4211H210.329L209.971 40.426C209.423 41.1622 208.651 41.7561 207.652 42.2074C206.652 42.6587 205.606 42.8843 204.512 42.8843ZM224.572 42.4211H219.041V24.6072H224.18L224.572 27.6711L223.966 27.0298C224.441 26.1272 225.155 25.4028 226.106 24.8565C227.082 24.2864 228.128 24.0014 229.247 24.0014C231.007 24.0014 232.386 24.3933 233.386 25.1771C234.409 25.9609 235.146 26.9942 235.597 28.2768H234.74C235.026 26.9942 235.716 25.9609 236.811 25.1771C237.905 24.3933 239.213 24.0014 240.735 24.0014C243.043 24.0014 244.744 24.6189 245.838 25.854C246.932 27.0892 247.479 28.7281 247.479 30.7708V42.4211H242.128V32.1247C242.128 31.0082 241.853 30.1769 241.306 29.6307C240.783 29.0844 240.082 28.8113 239.201 28.8113C238.678 28.8113 238.178 28.9301 237.703 29.1675C237.227 29.3812 236.834 29.7731 236.525 30.3432C236.216 30.8896 236.061 31.6734 236.061 32.6946V42.4211H230.637V32.1247C230.637 31.0082 230.376 30.1888 229.853 29.6662C229.329 29.12 228.628 28.8469 227.747 28.8469C227.224 28.8469 226.713 28.9656 226.213 29.2032C225.737 29.4169 225.345 29.8088 225.036 30.3789C224.727 30.9252 224.572 31.6971 224.572 32.6946V42.4211Z" fill="#104B5A"/>
</svg>
