<svg width="30" height="30" viewBox="0 0 30 30" fill="none" xmlns="http://www.w3.org/2000/svg">
<path d="M20.3571 3.21484H23.5714C24.1397 3.21484 24.6847 3.44061 25.0866 3.84247C25.4885 4.24434 25.7142 4.78938 25.7142 5.3577V26.7863C25.7142 27.3546 25.4885 27.8996 25.0866 28.3015C24.6847 28.7034 24.1397 28.9291 23.5714 28.9291H6.4285C5.86018 28.9291 5.31514 28.7034 4.91327 28.3015C4.51141 27.8996 4.28564 27.3546 4.28564 26.7863V5.3577C4.28564 4.78938 4.51141 4.24434 4.91327 3.84247C5.31514 3.44061 5.86018 3.21484 6.4285 3.21484H9.64279" stroke="white" stroke-width="1.5" stroke-linecap="round" stroke-linejoin="round"/>
<path d="M18.2143 1.07227H11.7857C10.6022 1.07227 9.64282 2.03166 9.64282 3.21512V4.28655C9.64282 5.47002 10.6022 6.42941 11.7857 6.42941H18.2143C19.3977 6.42941 20.3571 5.47002 20.3571 4.28655V3.21512C20.3571 2.03166 19.3977 1.07227 18.2143 1.07227Z" stroke="white" stroke-width="1.5" stroke-linecap="round" stroke-linejoin="round"/>
<path d="M9.64282 11.7871H20.3571" stroke="white" stroke-width="1.5" stroke-linecap="round" stroke-linejoin="round"/>
<path d="M9.64282 17.1445H20.3571" stroke="white" stroke-width="1.5" stroke-linecap="round" stroke-linejoin="round"/>
<path d="M9.64282 22.5H20.3571" stroke="white" stroke-width="1.5" stroke-linecap="round" stroke-linejoin="round"/>
</svg>
