<svg width="40" height="40" viewBox="0 0 40 40" fill="none" xmlns="http://www.w3.org/2000/svg">
<g clip-path="url(#clip0_481_19384)">
<path d="M25.0293 37.1429C26.7888 38.278 28.8855 38.7727 30.9668 38.5438C33.0481 38.3148 34.9872 37.3762 36.4579 35.8858L37.7436 34.6286C38.3072 34.0521 38.6228 33.2778 38.6228 32.4715C38.6228 31.6652 38.3072 30.8909 37.7436 30.3143L32.2864 24.9143C31.7147 24.3525 30.9452 24.0376 30.1436 24.0376C29.342 24.0376 28.5724 24.3525 28.0007 24.9143V24.9143C27.4242 25.478 26.6499 25.7936 25.8436 25.7936C25.0373 25.7936 24.263 25.478 23.6864 24.9143L15.115 16.3429C14.8291 16.0611 14.602 15.7253 14.447 15.355C14.292 14.9847 14.2122 14.5872 14.2122 14.1858C14.2122 13.7843 14.292 13.3869 14.447 13.0165C14.602 12.6462 14.8291 12.3104 15.115 12.0286V12.0286C15.6769 11.4569 15.9917 10.6874 15.9917 9.88576C15.9917 9.08416 15.6769 8.31463 15.115 7.74291L9.68642 2.31434C9.10987 1.75066 8.33559 1.43506 7.52928 1.43506C6.72297 1.43506 5.94869 1.75066 5.37214 2.31434L4.11499 3.60005C2.62455 5.07074 1.68595 7.00977 1.457 9.0911C1.22806 11.1724 1.72273 13.2691 2.85785 15.0286C8.77227 23.745 16.2977 31.251 25.0293 37.1429V37.1429Z" stroke="white" stroke-width="2" stroke-linecap="round" stroke-linejoin="round"/>
</g>
<defs>
<clipPath id="clip0_481_19384">
<rect width="40" height="40" fill="white"/>
</clipPath>
</defs>
</svg>
