<svg width="32" height="24" viewBox="0 0 32 24" fill="none" xmlns="http://www.w3.org/2000/svg">
<g clip-path="url(#clip0_135_20632)">
<path d="M11.7858 5.78564H5.35725C4.22061 5.78564 3.13052 6.23717 2.32679 7.0409C1.52306 7.84463 1.07153 8.93472 1.07153 10.0714V18.6428H4.28582" stroke="white" stroke-width="1.5" stroke-linecap="round" stroke-linejoin="round"/>
<path d="M26.7859 18.6429H28.9287V3.64286C28.9287 3.07454 28.703 2.52949 28.3011 2.12763C27.8993 1.72576 27.3542 1.5 26.7859 1.5H13.9287C13.3604 1.5 12.8154 1.72576 12.4135 2.12763C12.0117 2.52949 11.7859 3.07454 11.7859 3.64286V15.8143" stroke="white" stroke-width="1.5" stroke-linecap="round" stroke-linejoin="round"/>
<path d="M12.8572 18.6431H18.2143" stroke="white" stroke-width="1.5" stroke-linecap="round" stroke-linejoin="round"/>
<path d="M8.5716 22.9284C10.9385 22.9284 12.8573 21.0096 12.8573 18.6426C12.8573 16.2757 10.9385 14.3569 8.5716 14.3569C6.20467 14.3569 4.28589 16.2757 4.28589 18.6426C4.28589 21.0096 6.20467 22.9284 8.5716 22.9284Z" stroke="white" stroke-width="1.5" stroke-linecap="round" stroke-linejoin="round"/>
<path d="M22.5001 22.9284C24.867 22.9284 26.7858 21.0096 26.7858 18.6426C26.7858 16.2757 24.867 14.3569 22.5001 14.3569C20.1331 14.3569 18.2144 16.2757 18.2144 18.6426C18.2144 21.0096 20.1331 22.9284 22.5001 22.9284Z" stroke="white" stroke-width="1.5" stroke-linecap="round" stroke-linejoin="round"/>
</g>
<defs>
<clipPath id="clip0_135_20632">
<rect width="31.2" height="24" fill="white"/>
</clipPath>
</defs>
</svg>
