<svg width="40" height="40" viewBox="0 0 40 40" fill="none" xmlns="http://www.w3.org/2000/svg">
<path d="M20 38.2585C21.876 38.2585 23.7337 37.889 25.4669 37.171C27.2001 36.4531 28.775 35.4008 30.1015 34.0743C31.4281 32.7477 32.4804 31.1729 33.1983 29.4397C33.9162 27.7065 34.2857 25.8488 34.2857 23.9728V16.0299C34.2859 12.5204 32.9943 9.13369 30.6571 6.51562" stroke="#FF7D44" stroke-width="1.5" stroke-linecap="round" stroke-linejoin="round"/>
<path d="M5.71436 19.2012V23.9726C5.7134 26.7849 6.54251 29.5348 8.09777 31.8779C9.65304 34.221 11.8653 36.0529 14.4572 37.144" stroke="#FF7D44" stroke-width="1.5" stroke-linecap="round" stroke-linejoin="round"/>
<path d="M27.1429 3.65803C23.8617 1.76371 19.9625 1.25036 16.3029 2.2309C12.6433 3.21144 9.52303 5.60556 7.62857 8.8866C6.84851 10.2338 6.29813 11.7015 6 13.2295" stroke="#FF7D44" stroke-width="1.5" stroke-linecap="round" stroke-linejoin="round"/>
<path d="M18.5142 10.0286C19.565 9.81047 20.6514 9.83095 21.6933 10.0886C22.7352 10.3462 23.706 10.8344 24.534 11.5171C25.3621 12.1999 26.0264 13.0598 26.4779 14.0335C26.9294 15.0072 27.1566 16.0697 27.1427 17.1429V21.7429" stroke="#FF7D44" stroke-width="1.5" stroke-linecap="round" stroke-linejoin="round"/>
<path d="M25.3145 27.7443C24.3424 28.8271 23.0627 29.5872 21.6467 29.9228C20.2307 30.2585 18.746 30.1536 17.3913 29.6223C16.0365 29.0909 14.8764 28.1585 14.0661 26.9497C13.2559 25.741 12.8341 24.3136 12.8574 22.8585V17.1443C12.8519 16.163 13.0463 15.1908 13.4288 14.2871" stroke="#FF7D44" stroke-width="1.5" stroke-linecap="round" stroke-linejoin="round"/>
<path d="M20 17.459V22.2304" stroke="#FF7D44" stroke-width="1.5" stroke-linecap="round" stroke-linejoin="round"/>
</svg>
