<svg width="40" height="40" viewBox="0 0 40 40" fill="none" xmlns="http://www.w3.org/2000/svg">
<g clip-path="url(#clip0_282_173)">
<path d="M30.0001 24.2849C30 26.6812 29.397 29.0389 28.2468 31.1411C27.0966 33.2433 25.436 35.0224 23.418 36.3146C21.4 37.6068 19.0893 38.3706 16.6987 38.5357C14.3081 38.7008 11.9144 38.2619 9.73786 37.2594C7.56135 36.2569 5.67199 34.723 4.24369 32.7989C2.81539 30.8747 1.89405 28.6223 1.56447 26.2487C1.2349 23.8752 1.50768 21.4569 2.3577 19.2164C3.20773 16.976 4.60769 14.9853 6.42871 13.4277" stroke="white" stroke-width="1.5" stroke-linecap="round" stroke-linejoin="round"/>
<path d="M15.0859 19C14.784 19.6234 14.6276 20.3073 14.6288 21C14.625 21.5751 14.7354 22.1453 14.9538 22.6774C15.1721 23.2094 15.494 23.6928 15.9007 24.0995C16.3073 24.5062 16.7908 24.8281 17.3228 25.0464C17.8549 25.2647 18.4251 25.3752 19.0002 25.3714C19.5837 25.3714 20.1432 25.6032 20.5558 26.0158C20.9684 26.4284 21.2002 26.988 21.2002 27.5714V37.4857" stroke="white" stroke-width="1.5" stroke-linecap="round" stroke-linejoin="round"/>
<path d="M1.62891 26.4859H6.91462C7.50198 26.4706 8.08645 26.5731 8.63355 26.7874C9.18064 27.0017 9.67928 27.3234 10.1 27.7335C10.5208 28.1436 10.8552 28.6338 11.0834 29.1752C11.3116 29.7167 11.4291 30.2983 11.4289 30.8859V37.8859" stroke="white" stroke-width="1.5" stroke-linecap="round" stroke-linejoin="round"/>
<path d="M37.8859 5.62756L35.0287 4.65613C34.8279 4.58792 34.6103 4.5873 34.4091 4.65437C34.2079 4.72143 34.0342 4.8525 33.9144 5.02756L31.8287 8.25613L20.4001 2.54185C19.4969 2.00953 18.4872 1.68342 17.4432 1.58687C16.3992 1.49032 15.3468 1.62571 14.3612 1.98335C13.3757 2.34099 12.4814 2.91203 11.7422 3.65563C11.0031 4.39923 10.4375 5.297 10.0859 6.2847C9.98894 6.54094 9.9473 6.81477 9.96368 7.08823C9.98006 7.36169 10.0541 7.62859 10.1809 7.87142C10.3077 8.11426 10.4844 8.32752 10.6995 8.49723C10.9145 8.66694 11.1631 8.78925 11.4287 8.85613L18.8859 11.2561L19.6287 11.5133L21.0287 16.3133C21.0737 16.4804 21.1601 16.6335 21.28 16.7584C21.3998 16.8832 21.5493 16.9758 21.7144 17.0276L25.0859 18.1133C25.258 18.1693 25.4416 18.1803 25.6192 18.145C25.7967 18.1098 25.9623 18.0295 26.0999 17.9119C26.2375 17.7944 26.3427 17.6434 26.4053 17.4736C26.4679 17.3037 26.4858 17.1206 26.4573 16.9418L25.7144 13.3704H26.2001L33.4859 15.7418C33.9633 15.9064 34.4865 15.8757 34.9414 15.6563C35.3963 15.4368 35.746 15.0466 35.9144 14.5704L38.4859 6.65613C38.5142 6.44241 38.4706 6.22535 38.3619 6.03914C38.2533 5.85292 38.0858 5.70812 37.8859 5.62756Z" stroke="white" stroke-width="1.5" stroke-linecap="round" stroke-linejoin="round"/>
</g>
<defs>
<clipPath id="clip0_282_173">
<rect width="40" height="40" fill="white"/>
</clipPath>
</defs>
</svg>
