<svg width="24" height="24" viewBox="0 0 24 24" fill="none" xmlns="http://www.w3.org/2000/svg">
<path d="M18.2394 2.63989H5.75939C5.47167 2.64779 5.18985 2.72329 4.93671 2.86028C4.68358 2.99728 4.46623 3.19192 4.30225 3.42846L1.18225 7.74846C0.950574 8.07585 0.834873 8.47123 0.853507 8.87186C0.872141 9.27249 1.02404 9.65543 1.28511 9.95989L10.6451 20.7428C10.8053 20.9492 11.0107 21.1163 11.2454 21.2313C11.4801 21.3462 11.738 21.406 11.9994 21.406C12.2608 21.406 12.5187 21.3462 12.7534 21.2313C12.9881 21.1163 13.1934 20.9492 13.3537 20.7428L22.7137 9.95989C22.9747 9.65543 23.1266 9.27249 23.1453 8.87186C23.1639 8.47123 23.0482 8.07585 22.8165 7.74846L19.6965 3.42846C19.5326 3.19192 19.3152 2.99728 19.0621 2.86028C18.8089 2.72329 18.5271 2.64779 18.2394 2.63989V2.63989Z" stroke="white" stroke-width="1.5" stroke-linecap="round" stroke-linejoin="round"/>
<path d="M11.1086 2.6228L6.92578 9.1028L12.0001 21.3599" stroke="white" stroke-width="1.5" stroke-linecap="round" stroke-linejoin="round"/>
<path d="M12.9429 2.6228L17.1086 9.1028L12 21.3599" stroke="white" stroke-width="1.5" stroke-linecap="round" stroke-linejoin="round"/>
<path d="M0.890625 9.10278H23.1078" stroke="white" stroke-width="1.5" stroke-linecap="round" stroke-linejoin="round"/>
</svg>
