<svg width="30" height="30" viewBox="0 0 30 30" fill="none" xmlns="http://www.w3.org/2000/svg">
<path d="M11.2065 4.82153L12.1279 2.44296C12.2833 2.04024 12.5567 1.69384 12.9123 1.44913C13.2679 1.20442 13.6891 1.07281 14.1208 1.07153H15.8779C16.3096 1.07281 16.7308 1.20442 17.0864 1.44913C17.442 1.69384 17.7154 2.04024 17.8708 2.44296L18.7922 4.82153L21.9208 6.62153L24.4494 6.23582C24.8704 6.17867 25.2989 6.24798 25.6805 6.43494C26.062 6.6219 26.3794 6.91807 26.5922 7.28582L27.4494 8.78582C27.669 9.15942 27.7702 9.59085 27.7396 10.0231C27.709 10.4555 27.548 10.8683 27.2779 11.2072L25.7137 13.2001V16.8001L27.3208 18.793C27.5909 19.1319 27.7519 19.5448 27.7825 19.9771C27.8131 20.4094 27.7119 20.8408 27.4922 21.2144L26.6351 22.7144C26.4223 23.0821 26.1049 23.3783 25.7233 23.5653C25.3418 23.7522 24.9133 23.8215 24.4922 23.7644L21.9637 23.3787L18.8351 25.1787L17.9137 27.5572C17.7583 27.96 17.4849 28.3064 17.1293 28.5511C16.7737 28.7958 16.3525 28.9274 15.9208 28.9287H14.1208C13.6891 28.9274 13.2679 28.7958 12.9123 28.5511C12.5567 28.3064 12.2833 27.96 12.1279 27.5572L11.2065 25.1787L8.07795 23.3787L5.54938 23.7644C5.12834 23.8215 4.69982 23.7522 4.31827 23.5653C3.93671 23.3783 3.61935 23.0821 3.40652 22.7144L2.54937 21.2144C2.32974 20.8408 2.22854 20.4094 2.25915 19.9771C2.28975 19.5448 2.45072 19.1319 2.7208 18.793L4.28509 16.8001V13.2001L2.67795 11.2072C2.40786 10.8683 2.24689 10.4555 2.21629 10.0231C2.18568 9.59085 2.28688 9.15942 2.50652 8.78582L3.36366 7.28582C3.5765 6.91807 3.89386 6.6219 4.27541 6.43494C4.65696 6.24798 5.08548 6.17867 5.50652 6.23582L8.03509 6.62153L11.2065 4.82153ZM10.7137 15.0001C10.7137 15.8477 10.965 16.6763 11.4359 17.3811C11.9069 18.0859 12.5762 18.6352 13.3593 18.9596C14.1424 19.284 15.0041 19.3688 15.8355 19.2035C16.6668 19.0381 17.4305 18.6299 18.0298 18.0306C18.6292 17.4312 19.0374 16.6676 19.2027 15.8362C19.3681 15.0049 19.2832 14.1431 18.9589 13.36C18.6345 12.5769 18.0852 11.9076 17.3804 11.4367C16.6756 10.9657 15.847 10.7144 14.9994 10.7144C13.8627 10.7144 12.7726 11.1659 11.9689 11.9696C11.1652 12.7734 10.7137 13.8635 10.7137 15.0001V15.0001Z" stroke="white" stroke-width="1.5" stroke-linecap="round" stroke-linejoin="round"/>
</svg>
