<svg width="30" height="30" viewBox="0 0 30 30" fill="none" xmlns="http://www.w3.org/2000/svg">
<path d="M6.42913 17.1445H3.21484C3.21484 20.2703 4.45655 23.268 6.6668 25.4783C8.87705 27.6885 11.8748 28.9302 15.0006 28.9302C18.1263 28.9302 21.1241 27.6885 23.3343 25.4783C25.5446 23.268 26.7863 20.2703 26.7863 17.1445H23.572" stroke="#104B5A" stroke-width="1.5" stroke-linecap="round" stroke-linejoin="round"/>
<path d="M15.0007 7.50084C16.7759 7.50084 18.2149 6.06175 18.2149 4.28655C18.2149 2.51135 16.7759 1.07227 15.0007 1.07227C13.2255 1.07227 11.7864 2.51135 11.7864 4.28655C11.7864 6.06175 13.2255 7.50084 15.0007 7.50084Z" stroke="#104B5A" stroke-width="1.5" stroke-linecap="round" stroke-linejoin="round"/>
<path d="M15 7.5V28.9286" stroke="#104B5A" stroke-width="1.5" stroke-linecap="round" stroke-linejoin="round"/>
<path d="M11.7861 13.9297H18.2147" stroke="#104B5A" stroke-width="1.5" stroke-linecap="round" stroke-linejoin="round"/>
</svg>
