<svg width="40" height="40" viewBox="0 0 40 40" fill="none" xmlns="http://www.w3.org/2000/svg">
<path d="M19.9998 38.2585C21.8758 38.2585 23.7334 37.889 25.4667 37.171C27.1999 36.4531 28.7747 35.4008 30.1013 34.0743C31.4278 32.7477 32.4801 31.1729 33.198 29.4397C33.916 27.7065 34.2855 25.8488 34.2855 23.9728V16.0299C34.2857 12.5204 32.994 9.13369 30.6569 6.51562" stroke="#FF7D44" stroke-width="1.5" stroke-linecap="round" stroke-linejoin="round"/>
<path d="M5.71411 19.2031V23.9746C5.71315 26.7868 6.54226 29.5368 8.09753 31.8799C9.65279 34.2229 11.865 36.0548 14.457 37.146" stroke="#FF7D44" stroke-width="1.5" stroke-linecap="round" stroke-linejoin="round"/>
<path d="M27.1426 3.65999C23.8615 1.76567 19.9622 1.25232 16.3026 2.23286C12.643 3.2134 9.52279 5.60752 7.62833 8.88856C6.84826 10.2358 6.29789 11.7035 5.99976 13.2314" stroke="#FF7D44" stroke-width="1.5" stroke-linecap="round" stroke-linejoin="round"/>
<path d="M18.5142 10.0325C19.565 9.81437 20.6514 9.83486 21.6933 10.0925C22.7352 10.3501 23.706 10.8383 24.534 11.521C25.3621 12.2038 26.0264 13.0637 26.4779 14.0374C26.9294 15.0111 27.1566 16.0737 27.1427 17.1468V21.7468" stroke="#FF7D44" stroke-width="1.5" stroke-linecap="round" stroke-linejoin="round"/>
<path d="M25.314 27.7462C24.3419 28.8291 23.0622 29.5892 21.6462 29.9248C20.2302 30.2604 18.7455 30.1555 17.3908 29.6242C16.036 29.0929 14.8759 28.1604 14.0656 26.9517C13.2554 25.7429 12.8336 24.3155 12.8569 22.8605V17.1462C12.8514 16.1649 13.0459 15.1928 13.4283 14.2891" stroke="#FF7D44" stroke-width="1.5" stroke-linecap="round" stroke-linejoin="round"/>
<path d="M20 17.4609V22.2324" stroke="#FF7D44" stroke-width="1.5" stroke-linecap="round" stroke-linejoin="round"/>
</svg>
