<svg width="50" height="50" viewBox="0 0 50 50" fill="none" xmlns="http://www.w3.org/2000/svg">
<path d="M21.4286 48.179C23.4011 48.179 25 46.58 25 44.6076C25 42.6351 23.4011 41.0361 21.4286 41.0361C19.4562 41.0361 17.8572 42.6351 17.8572 44.6076C17.8572 46.58 19.4562 48.179 21.4286 48.179Z" stroke="#FF7D44" stroke-width="1.5" stroke-linecap="round" stroke-linejoin="round"/>
<path d="M37.5001 48.179C39.4726 48.179 41.0716 46.58 41.0716 44.6076C41.0716 42.6351 39.4726 41.0361 37.5001 41.0361C35.5277 41.0361 33.9287 42.6351 33.9287 44.6076C33.9287 46.58 35.5277 48.179 37.5001 48.179Z" stroke="#FF7D44" stroke-width="1.5" stroke-linecap="round" stroke-linejoin="round"/>
<path d="M29.9286 12.6072C29.3805 10.4056 28.316 8.36613 26.823 6.65772C25.33 4.94931 23.4516 3.62106 21.3433 2.78294C19.2349 1.94481 16.9573 1.6209 14.6988 1.83803C12.4404 2.05516 10.2662 2.80709 8.35613 4.03155C6.44608 5.25602 4.85515 6.91782 3.71502 8.87938C2.57489 10.8409 1.91837 13.0458 1.7998 15.3116C1.68122 17.5773 2.10401 19.8387 3.03316 21.9086C3.96231 23.9784 5.3711 25.7972 7.1429 27.2143" stroke="#FF7D44" stroke-width="1.5" stroke-linecap="round" stroke-linejoin="round"/>
<path d="M16.0715 16.1071L21.4287 10.75" stroke="#FF7D44" stroke-width="1.5" stroke-linecap="round" stroke-linejoin="round"/>
<path d="M23.2144 33.9289V30.3574H17.8572C15.9628 30.3574 14.146 31.11 12.8064 32.4495C11.4669 33.7891 10.7144 35.6059 10.7144 37.5003V44.6431" stroke="#FF7D44" stroke-width="1.5" stroke-linecap="round" stroke-linejoin="round"/>
<path d="M48.2144 44.6073V26.7501C48.2144 25.8029 47.8381 24.8945 47.1683 24.2248C46.4985 23.555 45.5901 23.1787 44.6429 23.1787H26.7858C25.8386 23.1787 24.9302 23.555 24.2604 24.2248C23.5906 24.8945 23.2144 25.8029 23.2144 26.7501V33.893" stroke="#FF7D44" stroke-width="1.5" stroke-linecap="round" stroke-linejoin="round"/>
</svg>
