<svg width="80" height="80" viewBox="0 0 80 80" fill="none" xmlns="http://www.w3.org/2000/svg">
<path d="M19.3715 60.628H11.0858C9.01444 60.4555 7.08358 59.5109 5.67615 57.9814C4.26873 56.4519 3.48755 54.4493 3.48755 52.3708C3.48755 50.2923 4.26873 48.2897 5.67615 46.7603C7.08358 45.2308 9.01444 44.2861 11.0858 44.1137H24.2286L32.6858 35.6565L9.48577 21.3708C7.6997 20.2667 6.39945 18.5257 5.84786 16.4996C5.29627 14.4736 5.53448 12.3137 6.51434 10.4565C6.94689 9.3937 7.59261 8.43075 8.41167 7.6271C9.23074 6.82344 10.2058 6.19613 11.2766 5.78385C12.3475 5.37156 13.4915 5.18306 14.638 5.22996C15.7845 5.27686 16.9093 5.55817 17.9429 6.05653L48.2286 20.0565L62.8572 5.25653C64.4333 3.68039 66.571 2.79492 68.8001 2.79492C71.0291 2.79492 73.1668 3.68039 74.7429 5.25653C76.3191 6.83268 77.2045 8.97039 77.2045 11.1994C77.2045 13.4284 76.3191 15.5661 74.7429 17.1422L59.9429 31.7708L73.9429 62.3422C74.4034 63.3603 74.6548 64.4605 74.682 65.5775C74.7093 66.6946 74.5118 67.8057 74.1014 68.845C73.6911 69.8843 73.0761 70.8305 72.293 71.6276C71.51 72.4247 70.5748 73.0564 69.5429 73.4851C67.6858 74.465 65.5259 74.7032 63.4998 74.1516C61.4738 73.6 59.7327 72.2997 58.6286 70.5137L44.3429 47.3137L35.8858 55.7708V68.9137C35.7133 70.985 34.7687 72.9159 33.2392 74.3233C31.7097 75.7307 29.7071 76.5119 27.6286 76.5119C25.5501 76.5119 23.5475 75.7307 22.0181 74.3233C20.4886 72.9159 19.5439 70.985 19.3715 68.9137V60.628Z" stroke="#FF7D44" stroke-width="2.5" stroke-linecap="round" stroke-linejoin="round"/>
</svg>
