<svg width="24" height="24" viewBox="0 0 24 24" fill="none" xmlns="http://www.w3.org/2000/svg">
<path d="M5.14272 13.7148H2.57129C2.57129 16.2155 3.56465 18.6137 5.33285 20.3819C7.10105 22.1501 9.49925 23.1434 11.9999 23.1434C14.5005 23.1434 16.8987 22.1501 18.6669 20.3819C20.4351 18.6137 21.4284 16.2155 21.4284 13.7148H18.857" stroke="white" stroke-width="1.5" stroke-linecap="round" stroke-linejoin="round"/>
<path d="M11.9999 6.00028C13.4201 6.00028 14.5713 4.84901 14.5713 3.42885C14.5713 2.00869 13.4201 0.857422 11.9999 0.857422C10.5797 0.857422 9.42847 2.00869 9.42847 3.42885C9.42847 4.84901 10.5797 6.00028 11.9999 6.00028Z" stroke="white" stroke-width="1.5" stroke-linecap="round" stroke-linejoin="round"/>
<path d="M12 6V23.1429" stroke="white" stroke-width="1.5" stroke-linecap="round" stroke-linejoin="round"/>
<path d="M9.42871 11.1426H14.5716" stroke="white" stroke-width="1.5" stroke-linecap="round" stroke-linejoin="round"/>
</svg>
