<svg width="30" height="30" viewBox="0 0 30 30" fill="none" xmlns="http://www.w3.org/2000/svg">
<g clip-path="url(#clip0_357_878)">
<path d="M15.0001 28.9294C22.6926 28.9294 28.9287 22.6934 28.9287 15.0008C28.9287 7.3083 22.6926 1.07227 15.0001 1.07227C7.30757 1.07227 1.07153 7.3083 1.07153 15.0008C1.07153 22.6934 7.30757 28.9294 15.0001 28.9294Z" stroke="white" stroke-width="1.5" stroke-linecap="round" stroke-linejoin="round"/>
<path d="M2.14307 20.3584H5.89307C6.88763 20.3584 7.84146 19.9633 8.54472 19.26C9.24798 18.5568 9.64307 17.6029 9.64307 16.6084V13.3941C9.64307 12.3995 10.0382 11.4457 10.7414 10.7424C11.4447 10.0392 12.3985 9.64409 13.3931 9.64409C14.3876 9.64409 15.3415 9.249 16.0447 8.54574C16.748 7.84247 17.1431 6.88865 17.1431 5.89409V1.22266" stroke="white" stroke-width="1.5" stroke-linecap="round" stroke-linejoin="round"/>
<path d="M28.9288 14.7868C27.8559 14.2301 26.6661 13.9363 25.4574 13.9297H20.8931C19.8985 13.9297 18.9447 14.3248 18.2414 15.028C17.5382 15.7313 17.1431 16.6851 17.1431 17.6797C17.1431 18.6742 17.5382 19.6281 18.2414 20.3313C18.9447 21.0346 19.8985 21.4297 20.8931 21.4297C21.6035 21.4297 22.2848 21.7119 22.7871 22.2142C23.2894 22.7166 23.5716 23.3979 23.5716 24.1083V25.9725" stroke="white" stroke-width="1.5" stroke-linecap="round" stroke-linejoin="round"/>
</g>
<defs>
<clipPath id="clip0_357_878">
<rect width="30" height="30" fill="white"/>
</clipPath>
</defs>
</svg>
