<svg width="40" height="40" viewBox="0 0 40 40" fill="none" xmlns="http://www.w3.org/2000/svg">
<g clip-path="url(#clip0_348_26)">
<path d="M24.2856 27.1423C25.0434 27.1423 25.7701 26.8413 26.3059 26.3055C26.8418 25.7696 27.1428 25.0429 27.1428 24.2852" stroke="#FF7D44" stroke-width="1.5" stroke-linecap="round" stroke-linejoin="round"/>
<path d="M12.8569 27.1445H17.1426" stroke="#FF7D44" stroke-width="1.5" stroke-linecap="round" stroke-linejoin="round"/>
<path d="M27.1428 12.8594V17.1451" stroke="#FF7D44" stroke-width="1.5" stroke-linecap="round" stroke-linejoin="round"/>
<path d="M15.7141 12.8594C14.9563 12.8594 14.2296 13.1604 13.6938 13.6962C13.158 14.232 12.8569 14.9588 12.8569 15.7165" stroke="#FF7D44" stroke-width="1.5" stroke-linecap="round" stroke-linejoin="round"/>
<path d="M1.42847 4.28683C1.42847 3.52907 1.72949 2.80234 2.2653 2.26653C2.80112 1.73071 3.52785 1.42969 4.28561 1.42969H24.2856C25.0434 1.42969 25.7701 1.73071 26.3059 2.26653C26.8417 2.80234 27.1428 3.52907 27.1428 4.28683V12.8583H35.7142C36.4719 12.8583 37.1987 13.1593 37.7345 13.6951C38.2703 14.2309 38.5713 14.9576 38.5713 15.7154V35.7154C38.5713 36.4732 38.2703 37.1999 37.7345 37.7357C37.1987 38.2715 36.4719 38.5725 35.7142 38.5725H15.7142C14.9564 38.5725 14.2297 38.2715 13.6939 37.7357C13.1581 37.1999 12.857 36.4732 12.857 35.7154V27.144H4.28561C3.52785 27.144 2.80112 26.843 2.2653 26.3071C1.72949 25.7713 1.42847 25.0446 1.42847 24.2868V4.28683Z" stroke="#FF7D44" stroke-width="1.5" stroke-linecap="round" stroke-linejoin="round"/>
<path d="M22.8569 12.8594H27.1426" stroke="#FF7D44" stroke-width="1.5" stroke-linecap="round" stroke-linejoin="round"/>
<path d="M12.8569 22.8594V27.1451" stroke="#FF7D44" stroke-width="1.5" stroke-linecap="round" stroke-linejoin="round"/>
</g>
<defs>
<clipPath id="clip0_348_26">
<rect width="40" height="40" fill="white"/>
</clipPath>
</defs>
</svg>
