<svg width="40" height="40" viewBox="0 0 40 40" fill="none" xmlns="http://www.w3.org/2000/svg">
<path d="M12.857 37.1423C19.1689 37.1423 24.2856 32.0256 24.2856 25.7137C24.2856 19.4019 19.1689 14.2852 12.857 14.2852C6.54521 14.2852 1.42847 19.4019 1.42847 25.7137C1.42847 32.0256 6.54521 37.1423 12.857 37.1423Z" stroke="#FF7D44" stroke-width="1.5" stroke-linecap="round" stroke-linejoin="round"/>
<path d="M27.1427 37.1423C33.4545 37.1423 38.5713 32.0256 38.5713 25.7137C38.5713 19.4019 33.4545 14.2852 27.1427 14.2852C20.8309 14.2852 15.7141 19.4019 15.7141 25.7137C15.7141 32.0256 20.8309 37.1423 27.1427 37.1423Z" stroke="#FF7D44" stroke-width="1.5" stroke-linecap="round" stroke-linejoin="round"/>
<path d="M19.9999 25.7146C26.3117 25.7146 31.4284 20.5978 31.4284 14.286C31.4284 7.97417 26.3117 2.85742 19.9999 2.85742C13.688 2.85742 8.57129 7.97417 8.57129 14.286C8.57129 20.5978 13.688 25.7146 19.9999 25.7146Z" stroke="#FF7D44" stroke-width="1.5" stroke-linecap="round" stroke-linejoin="round"/>
</svg>
