<svg width="24" height="24" viewBox="0 0 24 24" fill="none" xmlns="http://www.w3.org/2000/svg">
<g clip-path="url(#clip0_412_25386)">
<path d="M7.71456 22.2858C11.5017 22.2858 14.5717 19.2158 14.5717 15.4287C14.5717 11.6416 11.5017 8.57153 7.71456 8.57153C3.92747 8.57153 0.857422 11.6416 0.857422 15.4287C0.857422 19.2158 3.92747 22.2858 7.71456 22.2858Z" stroke="white" stroke-width="1.5" stroke-linecap="round" stroke-linejoin="round"/>
<path d="M16.2868 22.2858C20.0739 22.2858 23.144 19.2158 23.144 15.4287C23.144 11.6416 20.0739 8.57153 16.2868 8.57153C12.4997 8.57153 9.42969 11.6416 9.42969 15.4287C9.42969 19.2158 12.4997 22.2858 16.2868 22.2858Z" stroke="white" stroke-width="1.5" stroke-linecap="round" stroke-linejoin="round"/>
<path d="M12.0017 15.4286C15.7888 15.4286 18.8588 12.3586 18.8588 8.5715C18.8588 4.7844 15.7888 1.71436 12.0017 1.71436C8.21458 1.71436 5.14453 4.7844 5.14453 8.5715C5.14453 12.3586 8.21458 15.4286 12.0017 15.4286Z" stroke="white" stroke-width="1.5" stroke-linecap="round" stroke-linejoin="round"/>
</g>
<defs>
<clipPath id="clip0_412_25386">
<rect width="24" height="24" fill="white"/>
</clipPath>
</defs>
</svg>
