<svg width="50" height="50" viewBox="0 0 50 50" fill="none" xmlns="http://www.w3.org/2000/svg">
<path d="M12.1071 37.8927H6.92857C5.63399 37.7849 4.42721 37.1945 3.54757 36.2386C2.66793 35.2827 2.17969 34.0311 2.17969 32.732C2.17969 31.4329 2.66793 30.1813 3.54757 29.2254C4.42721 28.2695 5.63399 27.6791 6.92857 27.5713H15.1429L20.4286 22.2856L5.92857 13.357C4.81228 12.6669 3.99963 11.5788 3.65488 10.3125C3.31014 9.04623 3.45902 7.69629 4.07143 6.53558C4.34177 5.8713 4.74535 5.26946 5.25727 4.76718C5.76918 4.2649 6.37858 3.87282 7.04787 3.61515C7.71716 3.35747 8.43214 3.23966 9.14872 3.26897C9.8653 3.29828 10.5683 3.4741 11.2143 3.78558L30.1429 12.5356L39.2857 3.28558C40.2708 2.30049 41.6069 1.74707 43 1.74707C44.3931 1.74707 45.7292 2.30049 46.7143 3.28558C47.6994 4.27067 48.2528 5.60674 48.2528 6.99986C48.2528 8.39299 47.6994 9.72906 46.7143 10.7141L37.4643 19.857L46.2143 38.9641C46.5021 39.6004 46.6592 40.2881 46.6762 40.9862C46.6933 41.6844 46.5699 42.3788 46.3134 43.0284C46.0569 43.6779 45.6725 44.2693 45.1831 44.7675C44.6937 45.2657 44.1092 45.6605 43.4643 45.9284C42.3036 46.5408 40.9536 46.6897 39.6874 46.345C38.4211 46.0002 37.3329 45.1876 36.6429 44.0713L27.7143 29.5713L22.4286 34.857V43.0713C22.3208 44.3659 21.7304 45.5727 20.7745 46.4523C19.8185 47.3319 18.5669 47.8202 17.2679 47.8202C15.9688 47.8202 14.7172 47.3319 13.7613 46.4523C12.8053 45.5727 12.2149 44.3659 12.1071 43.0713V37.8927Z" stroke="#FF7D44" stroke-width="1.5" stroke-linecap="round" stroke-linejoin="round"/>
</svg>
