<svg width="50" height="50" viewBox="0 0 50 50" fill="none" xmlns="http://www.w3.org/2000/svg">
<path d="M24.9999 48.2147C37.8208 48.2147 48.2142 37.8213 48.2142 25.0004C48.2142 12.1795 37.8208 1.78613 24.9999 1.78613C12.179 1.78613 1.78564 12.1795 1.78564 25.0004C1.78564 37.8213 12.179 48.2147 24.9999 48.2147Z" stroke="#FF7D44" stroke-width="1.5" stroke-linecap="round" stroke-linejoin="round"/>
<path d="M3.57129 33.929H9.82129C11.4789 33.929 13.0686 33.2705 14.2407 32.0984C15.4128 30.9263 16.0713 29.3366 16.0713 27.679V22.3218C16.0713 20.6642 16.7298 19.0745 17.9019 17.9024C19.074 16.7303 20.6637 16.0718 22.3213 16.0718C23.9789 16.0718 25.5686 15.4134 26.7407 14.2413C27.9128 13.0692 28.5713 11.4794 28.5713 9.82185V2.03613" stroke="#FF7D44" stroke-width="1.5" stroke-linecap="round" stroke-linejoin="round"/>
<path d="M48.2141 24.6434C46.426 23.7156 44.4429 23.2259 42.4284 23.2148H34.8213C33.1637 23.2148 31.574 23.8733 30.4019 25.0454C29.2298 26.2175 28.5713 27.8072 28.5713 29.4648C28.5713 31.1224 29.2298 32.7122 30.4019 33.8843C31.574 35.0564 33.1637 35.7148 34.8213 35.7148C36.0053 35.7148 37.1408 36.1852 37.978 37.0224C38.8152 37.8596 39.2856 38.9951 39.2856 40.1791V43.2863" stroke="#FF7D44" stroke-width="1.5" stroke-linecap="round" stroke-linejoin="round"/>
</svg>
