<svg width="40" height="40" viewBox="0 0 40 40" fill="none" xmlns="http://www.w3.org/2000/svg">
<g clip-path="url(#clip0_1448_52378)">
<g clip-path="url(#clip1_1448_52378)">
<path d="M19.6286 27.143C26.7294 27.143 32.4858 21.3867 32.4858 14.2859C32.4858 7.18505 26.7294 1.42871 19.6286 1.42871C12.5278 1.42871 6.77148 7.18505 6.77148 14.2859C6.77148 21.3867 12.5278 27.143 19.6286 27.143Z" stroke="#201E4D" stroke-width="1.5" stroke-linecap="round" stroke-linejoin="round"/>
<path d="M19.6284 20.0008C22.7843 20.0008 25.3427 17.4425 25.3427 14.2866C25.3427 11.1307 22.7843 8.57227 19.6284 8.57227C16.4725 8.57227 13.9141 11.1307 13.9141 14.2866C13.9141 17.4425 16.4725 20.0008 19.6284 20.0008Z" stroke="#201E4D" stroke-width="1.5" stroke-linecap="round" stroke-linejoin="round"/>
<path d="M17.1431 26.9146L14.6289 37.486C14.5791 37.6869 14.4871 37.8749 14.359 38.0375C14.2309 38.2 14.0697 38.3335 13.886 38.4289C13.6921 38.513 13.4831 38.5564 13.2717 38.5564C13.0604 38.5564 12.8513 38.513 12.6574 38.4289L3.17175 34.286C2.97279 34.1919 2.79771 34.054 2.65967 33.8826C2.52162 33.7112 2.4242 33.5107 2.37471 33.2963C2.32523 33.0819 2.32496 32.859 2.37393 32.6444C2.4229 32.4298 2.51984 32.2292 2.65747 32.0574L10.0003 22.8574" stroke="#201E4D" stroke-width="1.5" stroke-linecap="round" stroke-linejoin="round"/>
<path d="M22.8574 26.7716L25.4288 37.4859C25.4799 37.6902 25.5756 37.8807 25.709 38.0437C25.8423 38.2067 26.0101 38.3382 26.2002 38.4287C26.3888 38.5139 26.5933 38.558 26.8002 38.558C27.0071 38.558 27.2117 38.5139 27.4002 38.4287L36.8288 34.2859C37.0308 34.1929 37.2083 34.0541 37.3471 33.8805C37.486 33.7069 37.5825 33.5033 37.6288 33.2859C37.683 33.0732 37.6853 32.8506 37.6356 32.6368C37.5859 32.423 37.4856 32.2243 37.3431 32.0573L29.686 22.3145" stroke="#201E4D" stroke-width="1.5" stroke-linecap="round" stroke-linejoin="round"/>
</g>
</g>
<defs>
<clipPath id="clip0_1448_52378">
<rect width="40" height="40" fill="white"/>
</clipPath>
<clipPath id="clip1_1448_52378">
<rect width="40" height="40" fill="white"/>
</clipPath>
</defs>
</svg>
