<svg width="40" height="40" viewBox="0 0 40 40" fill="none" xmlns="http://www.w3.org/2000/svg">
<path d="M12.8578 37.1428C19.1696 37.1428 24.2863 32.026 24.2863 25.7142C24.2863 19.4024 19.1696 14.2856 12.8578 14.2856C6.54594 14.2856 1.4292 19.4024 1.4292 25.7142C1.4292 32.026 6.54594 37.1428 12.8578 37.1428Z" stroke="#FF7D44" stroke-width="1.5" stroke-linecap="round" stroke-linejoin="round"/>
<path d="M27.1449 37.1428C33.4567 37.1428 38.5735 32.026 38.5735 25.7142C38.5735 19.4024 33.4567 14.2856 27.1449 14.2856C20.8331 14.2856 15.7163 19.4024 15.7163 25.7142C15.7163 32.026 20.8331 37.1428 27.1449 37.1428Z" stroke="#FF7D44" stroke-width="1.5" stroke-linecap="round" stroke-linejoin="round"/>
<path d="M19.9999 25.7141C26.3117 25.7141 31.4284 20.5973 31.4284 14.2855C31.4284 7.97368 26.3117 2.85693 19.9999 2.85693C13.688 2.85693 8.57129 7.97368 8.57129 14.2855C8.57129 20.5973 13.688 25.7141 19.9999 25.7141Z" stroke="#FF7D44" stroke-width="1.5" stroke-linecap="round" stroke-linejoin="round"/>
</svg>
