<svg width="40" height="40" viewBox="0 0 40 40" fill="none" xmlns="http://www.w3.org/2000/svg">
<path d="M30.3991 4.3999H9.59915C9.11962 4.41307 8.64991 4.5389 8.22802 4.76722C7.80612 4.99554 7.44388 5.31994 7.17058 5.71419L1.97058 12.9142C1.58445 13.4598 1.39162 14.1188 1.42267 14.7865C1.45373 15.4542 1.7069 16.0925 2.14201 16.5999L17.742 34.5713C18.0091 34.9155 18.3513 35.194 18.7425 35.3856C19.1337 35.5771 19.5635 35.6767 19.9991 35.6767C20.4348 35.6767 20.8646 35.5771 21.2558 35.3856C21.647 35.194 21.9892 34.9155 22.2563 34.5713L37.8563 16.5999C38.2914 16.0925 38.5446 15.4542 38.5756 14.7865C38.6067 14.1188 38.4138 13.4598 38.0277 12.9142L32.8277 5.71419C32.5544 5.31994 32.1922 4.99554 31.7703 4.76722C31.3484 4.5389 30.8787 4.41307 30.3991 4.3999V4.3999Z" stroke="#FF7D44" stroke-width="1.5" stroke-linecap="round" stroke-linejoin="round"/>
<path d="M18.5144 4.37109L11.543 15.1711L20.0001 35.5997" stroke="#FF7D44" stroke-width="1.5" stroke-linecap="round" stroke-linejoin="round"/>
<path d="M21.5714 4.37109L28.5143 15.1711L20 35.5997" stroke="#FF7D44" stroke-width="1.5" stroke-linecap="round" stroke-linejoin="round"/>
<path d="M1.48486 15.1709H38.5134" stroke="#FF7D44" stroke-width="1.5" stroke-linecap="round" stroke-linejoin="round"/>
</svg>
