<svg width="40" height="40" viewBox="0 0 40 40" fill="none" xmlns="http://www.w3.org/2000/svg">
<path d="M12.857 37.1423C19.1689 37.1423 24.2856 32.0256 24.2856 25.7137C24.2856 19.4019 19.1689 14.2852 12.857 14.2852C6.54521 14.2852 1.42847 19.4019 1.42847 25.7137C1.42847 32.0256 6.54521 37.1423 12.857 37.1423Z" stroke="#FF7D44" stroke-width="1.5" stroke-linecap="round" stroke-linejoin="round"/>
<path d="M27.1429 37.1423C33.4548 37.1423 38.5715 32.0256 38.5715 25.7137C38.5715 19.4019 33.4548 14.2852 27.1429 14.2852C20.8311 14.2852 15.7144 19.4019 15.7144 25.7137C15.7144 32.0256 20.8311 37.1423 27.1429 37.1423Z" stroke="#FF7D44" stroke-width="1.5" stroke-linecap="round" stroke-linejoin="round"/>
<path d="M19.9999 25.7165C26.3117 25.7165 31.4284 20.5998 31.4284 14.2879C31.4284 7.97612 26.3117 2.85938 19.9999 2.85938C13.688 2.85938 8.57129 7.97612 8.57129 14.2879C8.57129 20.5998 13.688 25.7165 19.9999 25.7165Z" stroke="#FF7D44" stroke-width="1.5" stroke-linecap="round" stroke-linejoin="round"/>
</svg>
