<svg width="50" height="50" viewBox="0 0 50 50" fill="none" xmlns="http://www.w3.org/2000/svg">
<path d="M46.6792 36.7346L33.9214 14.0627H45.2495C45.6551 14.0716 46.0489 13.9258 46.3507 13.6547C46.6526 13.3837 46.8399 13.0079 46.8745 12.6037C46.8887 12.39 46.8588 12.1756 46.7867 11.9739C46.7145 11.7723 46.6017 11.5876 46.4552 11.4313C46.3086 11.2751 46.1315 11.1506 45.9349 11.0657C45.7382 10.9808 45.5262 10.9372 45.312 10.9377H4.73977C4.33587 10.9313 3.94456 11.0783 3.64479 11.3491C3.34502 11.6198 3.1591 11.9942 3.12454 12.3967C3.11035 12.6104 3.14025 12.8248 3.2124 13.0265C3.28454 13.2281 3.39738 13.4128 3.54391 13.5691C3.69044 13.7253 3.86753 13.8498 4.06418 13.9347C4.26083 14.0196 4.47284 14.0632 4.68704 14.0627H16.0777L3.31985 36.7346C3.15608 37.0257 3.08991 37.3616 3.13103 37.6931C3.17216 38.0246 3.31842 38.3341 3.54837 38.5764C3.70055 38.7326 3.88291 38.8563 4.08436 38.9399C4.28581 39.0235 4.50215 39.0653 4.72024 39.0627H22.6558C22.863 39.0627 23.0617 38.9804 23.2082 38.8339C23.3547 38.6874 23.437 38.4887 23.437 38.2815V34.4279C23.4316 34.0247 23.5791 33.6344 23.8497 33.3354C24.1204 33.0365 24.4942 32.8511 24.896 32.8166C25.1098 32.8024 25.3241 32.8323 25.5258 32.9045C25.7275 32.9766 25.9122 33.0895 26.0684 33.236C26.2247 33.3825 26.3491 33.5596 26.434 33.7563C26.5189 33.9529 26.5625 34.1649 26.562 34.3791V38.2854C26.562 38.4926 26.6443 38.6913 26.7909 38.8378C26.9374 38.9843 27.1361 39.0666 27.3433 39.0666H45.2671C45.4852 39.0692 45.7015 39.0274 45.903 38.9438C46.1045 38.8602 46.2868 38.7365 46.439 38.5803C46.6717 38.3391 46.8207 38.0294 46.8639 37.6971C46.9072 37.3648 46.8424 37.0273 46.6792 36.7346ZM26.562 27.344C26.562 27.7584 26.3974 28.1558 26.1044 28.4488C25.8114 28.7418 25.4139 28.9065 24.9995 28.9065C24.5851 28.9065 24.1877 28.7418 23.8947 28.4488C23.6017 28.1558 23.437 27.7584 23.437 27.344V24.219C23.437 23.8046 23.6017 23.4071 23.8947 23.1141C24.1877 22.8211 24.5851 22.6565 24.9995 22.6565C25.4139 22.6565 25.8114 22.8211 26.1044 23.1141C26.3974 23.4071 26.562 23.8046 26.562 24.219V27.344ZM26.562 17.1877C26.562 17.6021 26.3974 17.9995 26.1044 18.2926C25.8114 18.5856 25.4139 18.7502 24.9995 18.7502C24.5851 18.7502 24.1877 18.5856 23.8947 18.2926C23.6017 17.9995 23.437 17.6021 23.437 17.1877V15.6252C23.437 15.2108 23.6017 14.8134 23.8947 14.5203C24.1877 14.2273 24.5851 14.0627 24.9995 14.0627C25.4139 14.0627 25.8114 14.2273 26.1044 14.5203C26.3974 14.8134 26.562 15.2108 26.562 15.6252V17.1877Z" fill="#3B42D5"/>
</svg>
