<svg width="200" height="100" viewBox="0 0 200 100" fill="none" xmlns="http://www.w3.org/2000/svg">
<path d="M184.156 4.1127C174.122 -2.98286 160.196 -0.665115 153.049 9.2768L142.175 24.4235C142.974 16.7586 139.718 8.91084 132.96 4.1127C122.926 -2.98286 109 -0.665115 101.853 9.2768L90.9793 24.4235C91.7779 16.7586 88.5219 8.91084 81.764 4.1127C71.7296 -2.98286 57.8043 -0.665115 50.6573 9.2768L10.6425 65.0044C3.49553 74.9666 5.83007 88.7918 15.844 95.8873C25.8579 102.983 39.8037 100.665 46.9507 90.7232L57.8247 75.5765C55.6131 97.9611 84.6105 109.164 98.1467 90.7232L109.021 75.5765C106.809 97.9611 135.807 109.164 149.343 90.7232L189.358 35.016C196.505 25.0537 194.17 11.2286 184.156 4.13303V4.1127Z" fill="white"/>
</svg>
