<svg width="60" height="57" viewBox="0 0 60 57" fill="none" xmlns="http://www.w3.org/2000/svg">
<path d="M60 0.564357L58.6163 10.9736C55.1782 10.7228 52.5786 11.3916 50.8176 12.9802C49.0566 14.5688 47.9245 16.7426 47.4214 19.5017C46.9182 22.2607 46.7924 25.3124 47.044 28.6568H60V57H35.3459V24.8944C35.3459 16.1155 37.4843 9.51045 41.761 5.07921C46.1216 0.564357 52.2013 -0.940594 60 0.564357ZM24.6541 0.564357L23.2704 10.9736C19.8323 10.7228 17.2327 11.3916 15.4717 12.9802C13.7107 14.5688 12.5786 16.7426 12.0755 19.5017C11.5723 22.2607 11.4465 25.3124 11.6981 28.6568H24.6541V57H0V24.8944C0 16.1155 2.13836 9.51045 6.41509 5.07921C10.7757 0.564357 16.8553 -0.940594 24.6541 0.564357Z" fill="#104B5A"/>
</svg>
