<svg width="57" height="54" viewBox="0 0 57 54" fill="none" xmlns="http://www.w3.org/2000/svg">
<path d="M39.0316 0L35.3601 17.4773L50.5727 8.35142L57 28.4673L39.4352 30.1726L52.5464 42.0733L35.8054 53.9941L28.4194 37.7567L21.031 54L4.413 42.0638L17.6472 30.1632L0 28.3406L5.85892 8.35379L21.4668 17.4241L17.8072 0H39.0316ZM19.3104 1.21268L22.9784 18.6758L22.2453 19.2822L6.59561 10.187L1.58204 27.2854L19.1887 29.1044L19.4334 30.1963L6.35085 41.9584L20.5331 52.1454L27.869 36.017H28.9698L36.3057 52.1454L50.6109 41.9584L37.6502 30.1963L37.8949 29.1044L55.3786 27.4062L49.8766 10.187L34.7165 19.2822L33.8604 18.6758L37.5284 1.21268H19.3104Z" fill="#104B5A"/>
</svg>
