<svg width="250" height="60" viewBox="0 0 250 60" fill="none" xmlns="http://www.w3.org/2000/svg">
<path d="M75.4082 42.912H92.9847V37.6437H81.6553V17.7998H75.4082V42.912Z" fill="#104B5A"/>
<path d="M103.398 39.3999C100.892 39.3999 99.5862 37.2224 99.5862 33.956C99.5862 30.6897 100.892 28.477 103.398 28.477C105.904 28.477 107.245 30.6897 107.245 33.956C107.245 37.2224 105.904 39.3999 103.398 39.3999ZM103.433 43.4741C109.257 43.4741 113.069 39.3648 113.069 33.956C113.069 28.5473 109.257 24.438 103.433 24.438C97.6451 24.438 93.7627 28.5473 93.7627 33.956C93.7627 39.3648 97.6451 43.4741 103.433 43.4741Z" fill="#104B5A"/>
<path d="M123.148 49.1287C125.831 49.1287 128.195 48.5316 129.784 47.1267C131.231 45.8272 132.184 43.8604 132.184 41.156V24.9297H126.678V26.8614H126.607C125.548 25.3511 123.925 24.4028 121.525 24.4028C117.042 24.4028 113.937 28.1258 113.937 33.3941C113.937 38.9082 117.713 41.9287 121.772 41.9287C123.96 41.9287 125.337 41.0506 126.395 39.8565H126.537V41.6477C126.537 43.8253 125.513 45.0897 123.078 45.0897C121.172 45.0897 120.219 44.2819 119.901 43.3336H114.325C114.889 47.0916 118.172 49.1287 123.148 49.1287ZM123.113 37.6789C120.96 37.6789 119.548 35.9228 119.548 33.2184C119.548 30.4789 120.96 28.7228 123.113 28.7228C125.513 28.7228 126.784 30.7599 126.784 33.1833C126.784 35.7121 125.619 37.6789 123.113 37.6789Z" fill="#104B5A"/>
<path d="M143.505 39.3999C140.999 39.3999 139.693 37.2224 139.693 33.956C139.693 30.6897 140.999 28.477 143.505 28.477C146.011 28.477 147.351 30.6897 147.351 33.956C147.351 37.2224 146.011 39.3999 143.505 39.3999ZM143.54 43.4741C149.363 43.4741 153.175 39.3648 153.175 33.956C153.175 28.5473 149.363 24.438 143.54 24.438C137.752 24.438 133.87 28.5473 133.87 33.956C133.87 39.3648 137.752 43.4741 143.54 43.4741Z" fill="#104B5A"/>
<path d="M154.856 42.912H160.609V24.9296H154.856V42.912ZM154.856 22.4359H160.609V17.7998H154.856V22.4359Z" fill="#104B5A"/>
<path d="M163.104 48.8477H168.857V41.0506H168.928C170.057 42.5609 171.716 43.4741 174.046 43.4741C178.775 43.4741 181.916 39.7511 181.916 33.9209C181.916 28.5121 178.987 24.4028 174.187 24.4028C171.716 24.4028 169.952 25.4916 168.716 27.1072H168.61V24.9297H163.104V48.8477ZM172.563 39.0487C170.093 39.0487 168.681 37.0467 168.681 34.1316C168.681 31.2165 169.952 29.0038 172.457 29.0038C174.928 29.0038 176.093 31.0409 176.093 34.1316C176.093 37.1872 174.752 39.0487 172.563 39.0487Z" fill="#104B5A"/>
<path d="M191.282 43.4741C196.012 43.4741 199.506 41.437 199.506 37.5033C199.506 32.9023 195.765 32.0945 192.588 31.5677C190.294 31.1462 188.247 30.9706 188.247 29.7062C188.247 28.5823 189.341 28.0555 190.753 28.0555C192.341 28.0555 193.435 28.5472 193.647 30.1628H198.941C198.659 26.6155 195.906 24.4028 190.788 24.4028C186.518 24.4028 182.988 26.3697 182.988 30.1628C182.988 34.3775 186.341 35.2204 189.482 35.7472C191.882 36.1687 194.071 36.3443 194.071 37.9599C194.071 39.1189 192.976 39.7511 191.247 39.7511C189.341 39.7511 188.141 38.8731 187.929 37.0819H182.494C182.671 41.0506 185.988 43.4741 191.282 43.4741Z" fill="#104B5A"/>
<path d="M207.321 43.439C209.827 43.439 211.415 42.4555 212.721 40.6994H212.827V42.9121H218.332V24.9297H212.58V34.9746C212.58 37.117 211.38 38.5921 209.403 38.5921C207.568 38.5921 206.685 37.5033 206.685 35.5365V24.9297H200.968V36.7307C200.968 40.7346 203.156 43.439 207.321 43.439Z" fill="#104B5A"/>
<path d="M220.835 42.9121H226.588V32.8321C226.588 30.6897 227.647 29.1794 229.447 29.1794C231.177 29.1794 231.988 30.3033 231.988 32.235V42.9121H237.741V32.8321C237.741 30.6897 238.765 29.1794 240.6 29.1794C242.33 29.1794 243.141 30.3033 243.141 32.235V42.9121H248.894V31.2165C248.894 27.1775 246.847 24.4028 242.753 24.4028C240.424 24.4028 238.482 25.3862 237.071 27.5638H237C236.083 25.6321 234.283 24.4028 231.918 24.4028C229.306 24.4028 227.577 25.6321 226.447 27.4936H226.341V24.9297H220.835V42.9121Z" fill="#104B5A"/>
<path fill-rule="evenodd" clip-rule="evenodd" d="M29.5611 59.0097C45.8049 59.0097 58.9729 45.9058 58.9729 29.7414C58.9729 13.577 45.8049 0.473145 29.5611 0.473145C13.3175 0.473145 0.149414 13.577 0.149414 29.7414C0.149414 45.9058 13.3175 59.0097 29.5611 59.0097ZM34.1008 23.0866C36.6079 20.5917 36.6079 16.5466 34.1008 14.0517C31.5936 11.5567 27.5288 11.5567 25.0216 14.0517C22.5145 16.5466 22.5145 20.5917 25.0216 23.0866L29.5611 27.6041L34.1008 23.0866ZM36.2486 34.2589C38.7558 36.7539 42.8207 36.7539 45.3279 34.2589C47.8349 31.764 47.8349 27.7189 45.3279 25.224C42.8207 22.7291 38.7558 22.7291 36.2486 25.224L31.7091 29.7415L36.2486 34.2589ZM34.1008 45.4312C36.6079 42.9362 36.6079 38.8912 34.1008 36.3963L29.5611 31.8788L25.0216 36.3963C22.5145 38.8912 22.5145 42.9362 25.0216 45.4312C27.5288 47.9262 31.5936 47.9262 34.1008 45.4312ZM13.7945 34.2589C11.2873 31.764 11.2873 27.7189 13.7945 25.224C16.3017 22.7291 20.3666 22.7291 22.8738 25.224L27.4133 29.7415L22.8738 34.2589C20.3666 36.7539 16.3017 36.7539 13.7945 34.2589Z" fill="#FF7D44"/>
</svg>
