<svg width="250" height="58" viewBox="0 0 250 58" fill="none" xmlns="http://www.w3.org/2000/svg">
<path d="M71.2739 42.0502H87.7749V37.3628H76.3056V15.4756H71.2739V42.0502Z" fill="#104B5A"/>
<path d="M97.6908 42.6036C99.6887 42.6036 101.446 42.1607 102.963 41.2748C104.492 40.3767 105.682 39.1403 106.533 37.5656C107.397 35.9784 107.828 34.1514 107.828 32.0846C107.828 30.03 107.403 28.2153 106.552 26.6404C105.701 25.0534 104.511 23.8108 102.981 22.9126C101.465 22.0145 99.7011 21.5654 97.6908 21.5654C95.7175 21.5654 93.9725 22.0084 92.4556 22.8942C90.9387 23.78 89.7486 25.0164 88.8852 26.6036C88.022 28.1783 87.5903 30.0053 87.5903 32.0846C87.5903 34.1391 88.0097 35.96 88.8483 37.547C89.6992 39.1219 90.8832 40.3583 92.4001 41.2564C93.9171 42.1546 95.6806 42.6036 97.6908 42.6036ZM97.6908 37.9162C96.1245 37.9162 94.9345 37.3933 94.1206 36.3476C93.3188 35.2895 92.9181 33.8685 92.9181 32.0846C92.9181 30.3498 93.3004 28.9472 94.065 27.8768C94.8419 26.7943 96.0505 26.2528 97.6908 26.2528C99.2818 26.2528 100.478 26.782 101.28 27.84C102.094 28.8981 102.501 30.3128 102.501 32.0846C102.501 33.7947 102.1 35.1972 101.298 36.2922C100.509 37.3748 99.3063 37.9162 97.6908 37.9162Z" fill="#104B5A"/>
<path d="M117.779 42.6036C118.716 42.6036 119.579 42.4928 120.369 42.2714C121.17 42.05 121.898 41.7362 122.552 41.3302V43.3418C122.576 44.08 122.385 44.6951 121.978 45.1872C121.583 45.6917 121.053 46.0669 120.387 46.313C119.721 46.5714 119.012 46.7006 118.26 46.7006C117.557 46.7006 116.903 46.5468 116.299 46.2392C115.707 45.9317 115.251 45.4826 114.93 44.892L110.268 47.1434C111.033 48.4352 112.124 49.4749 113.543 50.2622C114.961 51.0619 116.521 51.4618 118.223 51.4618C119.69 51.4618 121.053 51.2649 122.311 50.8712C123.569 50.4899 124.63 49.9055 125.493 49.118C126.368 48.3307 126.967 47.328 127.287 46.11C127.398 45.6794 127.472 45.2426 127.509 44.7996C127.559 44.3691 127.583 43.9078 127.583 43.4156V22.119H123.181V23.2264C122.502 22.6973 121.731 22.2913 120.868 22.0084C120.017 21.713 119.074 21.5654 118.038 21.5654C116.126 21.5654 114.461 22.0207 113.043 22.931C111.625 23.8415 110.521 25.0902 109.732 26.6774C108.955 28.2521 108.566 30.0546 108.566 32.0846C108.566 34.0776 108.949 35.8677 109.713 37.4548C110.49 39.0418 111.569 40.2968 112.951 41.2196C114.332 42.1422 115.941 42.6036 117.779 42.6036ZM118.593 38.1376C117.508 38.1376 116.62 37.8669 115.929 37.3256C115.238 36.7843 114.726 36.0585 114.394 35.148C114.061 34.2252 113.894 33.2041 113.894 32.0846C113.894 30.9772 114.067 29.9685 114.412 29.058C114.757 28.1352 115.288 27.4033 116.003 26.8618C116.73 26.3082 117.656 26.0314 118.778 26.0314C120.356 26.0314 121.485 26.5913 122.163 27.7108C122.841 28.818 123.181 30.276 123.181 32.0846C123.181 33.893 122.835 35.3571 122.145 36.4766C121.466 37.584 120.282 38.1376 118.593 38.1376Z" fill="#104B5A"/>
<path d="M139.535 42.6036C141.532 42.6036 143.29 42.1607 144.807 41.2748C146.336 40.3767 147.526 39.1403 148.376 37.5656C149.24 35.9784 149.671 34.1514 149.671 32.0846C149.671 30.03 149.247 28.2153 148.395 26.6404C147.545 25.0534 146.355 23.8108 144.825 22.9126C143.308 22.0145 141.545 21.5654 139.535 21.5654C137.561 21.5654 135.816 22.0084 134.299 22.8942C132.782 23.78 131.592 25.0164 130.729 26.6036C129.866 28.1783 129.434 30.0053 129.434 32.0846C129.434 34.1391 129.853 35.96 130.692 37.547C131.543 39.1219 132.727 40.3583 134.244 41.2564C135.761 42.1546 137.524 42.6036 139.535 42.6036ZM139.535 37.9162C137.968 37.9162 136.778 37.3933 135.964 36.3476C135.163 35.2895 134.762 33.8685 134.762 32.0846C134.762 30.3498 135.144 28.9472 135.909 27.8768C136.686 26.7943 137.894 26.2528 139.535 26.2528C141.126 26.2528 142.322 26.782 143.123 27.84C143.937 28.8981 144.344 30.3128 144.344 32.0846C144.344 33.7947 143.943 35.1972 143.142 36.2922C142.353 37.3748 141.15 37.9162 139.535 37.9162Z" fill="#104B5A"/>
<path d="M151.89 19.3509H156.922V14.9219H151.89V19.3509ZM151.89 42.0501H156.922V22.1191H151.89V42.0501Z" fill="#104B5A"/>
<path d="M160.211 50.9082H165.279V41.3302C165.933 41.7362 166.654 42.05 167.443 42.2714C168.246 42.4928 169.115 42.6036 170.053 42.6036C171.89 42.6036 173.5 42.1422 174.881 41.2196C176.262 40.2968 177.334 39.0418 178.099 37.4548C178.877 35.8677 179.265 34.0776 179.265 32.0846C179.265 30.0546 178.871 28.2521 178.082 26.6774C177.304 25.0902 176.207 23.8415 174.788 22.931C173.369 22.0207 171.705 21.5654 169.794 21.5654C168.757 21.5654 167.808 21.713 166.945 22.0084C166.093 22.2913 165.329 22.6973 164.651 23.2264V22.119H160.211V50.9082ZM169.239 38.1376C167.561 38.1376 166.378 37.584 165.686 36.4767C164.996 35.3571 164.651 33.893 164.651 32.0846C164.651 30.276 164.99 28.818 165.669 27.7108C166.359 26.5913 167.487 26.0314 169.054 26.0314C170.176 26.0314 171.095 26.3082 171.81 26.8618C172.538 27.4033 173.074 28.1352 173.419 29.058C173.765 29.9685 173.938 30.9772 173.938 32.0846C173.938 33.2041 173.771 34.2252 173.438 35.148C173.105 36.0585 172.593 36.7843 171.903 37.3256C171.212 37.8669 170.324 38.1376 169.239 38.1376Z" fill="#104B5A"/>
<path d="M188.381 42.6036C190.994 42.6036 193.042 42.0193 194.522 40.8504C196.002 39.6816 196.741 38.0761 196.741 36.0338C196.741 34.4836 196.26 33.2595 195.3 32.3614C194.349 31.4633 192.734 30.7188 190.452 30.1284C188.898 29.7346 187.739 29.4147 186.974 29.1687C186.223 28.9227 185.723 28.6828 185.475 28.449C185.241 28.2153 185.125 27.9261 185.125 27.5816C185.125 27.0034 185.401 26.5605 185.957 26.2528C186.525 25.9453 187.271 25.8223 188.195 25.8838C190.156 26.0314 191.23 26.8681 191.414 28.3936L196.557 27.4708C196.298 25.6624 195.41 24.2291 193.893 23.171C192.377 22.1006 190.441 21.5654 188.084 21.5654C185.667 21.5654 183.737 22.1314 182.294 23.2632C180.852 24.3951 180.13 25.9207 180.13 27.84C180.13 29.3656 180.63 30.5712 181.628 31.457C182.627 32.3307 184.348 33.081 186.789 33.7086C188.233 34.0899 189.292 34.3975 189.971 34.6312C190.662 34.865 191.106 35.1049 191.303 35.351C191.5 35.5848 191.599 35.8985 191.599 36.2922C191.599 36.9196 191.352 37.4118 190.859 37.7686C190.366 38.113 189.663 38.2852 188.75 38.2852C187.64 38.2852 186.721 38.0208 185.994 37.4916C185.279 36.9627 184.816 36.2307 184.606 35.2956L179.464 36.0707C179.797 38.15 180.734 39.7616 182.276 40.9058C183.83 42.0377 185.865 42.6036 188.381 42.6036Z" fill="#104B5A"/>
<path d="M206.023 42.6407C207.467 42.6407 208.724 42.4007 209.798 41.9209C210.871 41.4411 211.771 40.8014 212.499 40.0017V42.0501H216.938V22.1191H211.869V32.2323C211.869 33.4626 211.727 34.4591 211.444 35.2219C211.173 35.9724 210.821 36.5445 210.39 36.9381C209.958 37.3196 209.496 37.5779 209.002 37.7133C208.509 37.8486 208.047 37.9163 207.615 37.9163C206.542 37.9163 205.71 37.6763 205.118 37.1965C204.538 36.7167 204.118 36.12 203.859 35.4065C203.601 34.6928 203.446 33.9855 203.397 33.2841C203.348 32.5706 203.323 31.9862 203.323 31.5309V22.1191H198.217V33.3027C198.217 33.6348 198.241 34.1639 198.291 34.8897C198.34 35.6156 198.483 36.4215 198.717 37.3073C198.951 38.1808 199.339 39.0235 199.882 39.8355C200.438 40.6475 201.208 41.318 202.195 41.8471C203.18 42.3761 204.458 42.6407 206.023 42.6407Z" fill="#104B5A"/>
<path d="M219.852 42.0499H224.92V29.9806C224.92 28.8365 225.234 27.9077 225.863 27.194C226.504 26.4681 227.349 26.1052 228.398 26.1052C229.495 26.1052 230.353 26.4743 230.969 27.2125C231.597 27.9384 231.913 28.9595 231.913 30.2759V42.0499H236.945V29.9806C236.945 28.8365 237.259 27.9077 237.888 27.194C238.529 26.4681 239.373 26.1052 240.421 26.1052C241.52 26.1052 242.376 26.4743 242.993 27.2125C243.622 27.9384 243.937 28.9595 243.937 30.2759V42.0499H248.968V28.9472C248.968 26.7696 248.382 25.0103 247.211 23.6692C246.052 22.3159 244.331 21.6392 242.049 21.6392C240.767 21.6392 239.59 21.916 238.516 22.4696C237.443 23.0233 236.587 23.7799 235.945 24.7395C235.427 23.8046 234.687 23.0541 233.725 22.4881C232.763 21.9222 231.567 21.6392 230.136 21.6392C228.927 21.6392 227.818 21.8791 226.807 22.3589C225.795 22.8264 224.956 23.4724 224.291 24.2966V22.119H219.852V42.0499Z" fill="#104B5A"/>
<path d="M29.0698 0C13.015 0 0 12.9837 0 29C16.0548 29 29.0698 16.0163 29.0698 0Z" fill="#FF7D44"/>
<path d="M29.0698 58C45.1246 58 58.1396 45.0163 58.1396 29C42.0848 29 29.0698 41.9837 29.0698 58Z" fill="#FF7D44"/>
<path d="M29.0698 0C45.1246 0 58.1396 12.9837 58.1396 29C42.0848 29 29.0698 16.0163 29.0698 0Z" fill="#FF7D44"/>
<path d="M29.0698 58C13.015 58 -1.40355e-06 45.0163 0 29C16.0548 29 29.0698 41.9837 29.0698 58Z" fill="#FF7D44"/>
</svg>
