<svg width="135" height="33" viewBox="0 0 135 33" fill="none" xmlns="http://www.w3.org/2000/svg">
<g clip-path="url(#clip0_1450_49733)">
<g clip-path="url(#clip1_1450_49733)">
<g clip-path="url(#clip2_1450_49733)">
<path d="M40.7205 23.1675H50.2118V20.3226H44.0939V9.60693H40.7205V23.1675Z" fill="#104B5A"/>
<path d="M55.8349 21.2708C54.4817 21.2708 53.7765 20.095 53.7765 18.3311C53.7765 16.5673 54.4817 15.3725 55.8349 15.3725C57.1881 15.3725 57.9123 16.5673 57.9123 18.3311C57.9123 20.095 57.1881 21.2708 55.8349 21.2708ZM55.8538 23.4709C58.9988 23.4709 61.0572 21.2519 61.0572 18.3311C61.0572 15.4104 58.9988 13.1914 55.8538 13.1914C52.7283 13.1914 50.6318 15.4104 50.6318 18.3311C50.6318 21.2519 52.7283 23.4709 55.8538 23.4709Z" fill="#104B5A"/>
<path d="M66.4999 26.5248C67.9488 26.5248 69.2253 26.2024 70.0834 25.4438C70.8648 24.742 71.3794 23.68 71.3794 22.2196V13.4574H68.4061V14.5005H68.3678C67.7959 13.6849 66.9195 13.1729 65.6235 13.1729C63.2027 13.1729 61.526 15.1833 61.526 18.0282C61.526 21.0058 63.565 22.6368 65.7569 22.6368C66.9384 22.6368 67.682 22.1627 68.2533 21.5178H68.33V22.4851C68.33 23.661 67.777 24.3438 66.4621 24.3438C65.4329 24.3438 64.9183 23.9076 64.7466 23.3955H61.7355C62.0401 25.4248 63.8129 26.5248 66.4999 26.5248ZM66.481 20.3419C65.3184 20.3419 64.5559 19.3937 64.5559 17.9333C64.5559 16.4539 65.3184 15.5057 66.481 15.5057C67.777 15.5057 68.4634 16.6057 68.4634 17.9143C68.4634 19.2799 67.8343 20.3419 66.481 20.3419Z" fill="#104B5A"/>
<path d="M77.4927 21.2708C76.1395 21.2708 75.4342 20.095 75.4342 18.3311C75.4342 16.5673 76.1395 15.3725 77.4927 15.3725C78.8459 15.3725 79.5695 16.5673 79.5695 18.3311C79.5695 20.095 78.8459 21.2708 77.4927 21.2708ZM77.5116 23.4709C80.656 23.4709 82.7145 21.2519 82.7145 18.3311C82.7145 15.4104 80.656 13.1914 77.5116 13.1914C74.3861 13.1914 72.2898 15.4104 72.2898 18.3311C72.2898 21.2519 74.3861 23.4709 77.5116 23.4709Z" fill="#104B5A"/>
<path d="M83.6223 23.1675H86.7289V13.457H83.6223V23.1675ZM83.6223 12.1104H86.7289V9.60693H83.6223V12.1104Z" fill="#104B5A"/>
<path d="M88.0762 26.3731H91.1828V22.1627H91.2211C91.8308 22.9782 92.7267 23.4714 93.9849 23.4714C96.5385 23.4714 98.2346 21.4609 98.2346 18.3126C98.2346 15.3919 96.653 13.1729 94.061 13.1729C92.7266 13.1729 91.7741 13.7608 91.1067 14.6332H91.0494V13.4574H88.0762V26.3731ZM93.184 21.0816C91.8502 21.0816 91.0877 20.0006 91.0877 18.4264C91.0877 16.8522 91.7741 15.6574 93.1268 15.6574C94.4611 15.6574 95.0902 16.7574 95.0902 18.4264C95.0902 20.0764 94.3661 21.0816 93.184 21.0816Z" fill="#104B5A"/>
<path d="M103.292 23.4714C105.846 23.4714 107.733 22.3713 107.733 20.2471C107.733 17.7626 105.713 17.3264 103.998 17.0419C102.759 16.8143 101.653 16.7195 101.653 16.0367C101.653 15.4298 102.244 15.1453 103.007 15.1453C103.864 15.1453 104.455 15.4108 104.569 16.2833H107.428C107.276 14.3677 105.789 13.1729 103.026 13.1729C100.72 13.1729 98.8135 14.235 98.8135 16.2833C98.8135 18.5592 100.624 19.0144 102.32 19.2988C103.616 19.5264 104.798 19.6213 104.798 20.4937C104.798 21.1195 104.207 21.4609 103.273 21.4609C102.244 21.4609 101.596 20.9868 101.482 20.0196H98.5468C98.6423 22.1627 100.434 23.4714 103.292 23.4714Z" fill="#104B5A"/>
<path d="M111.953 23.4521C113.307 23.4521 114.164 22.921 114.869 21.9727H114.927V23.1675H117.899V13.457H114.793V18.8813C114.793 20.0382 114.145 20.8347 113.078 20.8347C112.087 20.8347 111.61 20.2468 111.61 19.1847V13.457H108.523V19.8296C108.523 21.9917 109.704 23.4521 111.953 23.4521Z" fill="#104B5A"/>
<path d="M119.251 23.1679H122.358V17.7247C122.358 16.5678 122.929 15.7522 123.901 15.7522C124.836 15.7522 125.274 16.3591 125.274 17.4022V23.1679H128.38V17.7247C128.38 16.5678 128.933 15.7522 129.924 15.7522C130.858 15.7522 131.296 16.3591 131.296 17.4022V23.1679H134.403V16.8522C134.403 14.6712 133.297 13.1729 131.087 13.1729C129.829 13.1729 128.78 13.7039 128.018 14.8798H127.98C127.485 13.8367 126.513 13.1729 125.236 13.1729C123.825 13.1729 122.892 13.8367 122.281 14.8419H122.224V13.4574H119.251V23.1679Z" fill="#104B5A"/>
<path fill-rule="evenodd" clip-rule="evenodd" d="M15.963 31.8602C24.7347 31.8602 31.8454 24.7841 31.8454 16.0553C31.8454 7.32657 24.7347 0.250488 15.963 0.250488C7.19145 0.250488 0.0806885 7.32657 0.0806885 16.0553C0.0806885 24.7841 7.19145 31.8602 15.963 31.8602ZM18.4144 12.4618C19.7683 11.1145 19.7683 8.93015 18.4144 7.58291C17.0605 6.23561 14.8656 6.23561 13.5117 7.58291C12.1578 8.93015 12.1578 11.1145 13.5117 12.4618L15.963 14.9012L18.4144 12.4618ZM19.5742 18.4948C20.9281 19.8421 23.1232 19.8421 24.4771 18.4948C25.8309 17.1476 25.8309 14.9632 24.4771 13.616C23.1232 12.2687 20.9281 12.2687 19.5742 13.616L17.1229 16.0554L19.5742 18.4948ZM18.4144 24.5278C19.7683 23.1805 19.7683 20.9962 18.4144 19.649L15.963 17.2095L13.5117 19.649C12.1578 20.9962 12.1578 23.1805 13.5117 24.5278C14.8656 25.8751 17.0605 25.8751 18.4144 24.5278ZM7.44904 18.4948C6.09515 17.1476 6.09515 14.9632 7.44904 13.616C8.80292 12.2687 10.998 12.2687 12.3519 13.616L14.8032 16.0554L12.3519 18.4948C10.998 19.8421 8.80292 19.8421 7.44904 18.4948Z" fill="#201E4D"/>
</g>
</g>
</g>
<defs>
<clipPath id="clip0_1450_49733">
<rect width="135" height="32.39" fill="white"/>
</clipPath>
<clipPath id="clip1_1450_49733">
<rect width="135" height="32.39" fill="white"/>
</clipPath>
<clipPath id="clip2_1450_49733">
<rect width="135" height="32.4" fill="white" transform="translate(0 -0.00488281)"/>
</clipPath>
</defs>
</svg>
