<svg width="250" height="47" viewBox="0 0 250 47" fill="none" xmlns="http://www.w3.org/2000/svg">
<path d="M150.503 12.6143H144.498V31.8796H150.503V12.6143Z" fill="#104B5A"/>
<path d="M145.166 9.00708C145.794 9.64133 146.578 9.95845 147.52 9.95845C148.462 9.95845 149.234 9.64133 149.836 9.00708C150.438 8.34645 150.739 7.55358 150.739 6.62864C150.739 5.67729 150.438 4.88444 149.836 4.25022C149.234 3.61594 148.462 3.29883 147.52 3.29883C146.578 3.29883 145.794 3.61594 145.166 4.25022C144.563 4.88444 144.263 5.67729 144.263 6.62864C144.263 7.55358 144.563 8.34645 145.166 9.00708Z" fill="#104B5A"/>
<path d="M58.3457 31.88V3.89355H64.5077V26.4096H76.7925V31.88H58.3457Z" fill="#104B5A"/>
<path fill-rule="evenodd" clip-rule="evenodd" d="M87.8892 32.3157C85.9268 32.3157 84.1476 31.8797 82.5514 31.0076C80.9815 30.1091 79.7387 28.8935 78.8228 27.3606C77.9071 25.8278 77.4492 24.1101 77.4492 22.2073C77.4492 20.3046 77.9071 18.6001 78.8228 17.0937C79.7387 15.5873 80.9815 14.3981 82.5514 13.5261C84.1214 12.6275 85.9007 12.1782 87.8892 12.1782C89.8778 12.1782 91.657 12.6143 93.2269 13.4863C94.7969 14.3585 96.0398 15.561 96.9555 17.0937C97.8714 18.6001 98.3293 20.3046 98.3293 22.2073C98.3293 24.1101 97.8714 25.8278 96.9555 27.3606C96.0398 28.8935 94.7969 30.1091 93.2269 31.0076C91.657 31.8797 89.8778 32.3157 87.8892 32.3157ZM87.8892 26.8057C88.7527 26.8057 89.5115 26.6207 90.1657 26.2507C90.8198 25.8543 91.3169 25.3126 91.657 24.6255C92.0233 23.912 92.2065 23.1058 92.2065 22.2073C92.2065 21.3088 92.0233 20.5292 91.657 19.8686C91.2907 19.1815 90.7805 18.653 90.1263 18.283C89.4983 17.8865 88.7527 17.6883 87.8892 17.6883C87.0519 17.6883 86.3063 17.8865 85.6521 18.283C84.998 18.653 84.4877 19.1815 84.1214 19.8686C83.755 20.5557 83.572 21.3485 83.572 22.247C83.572 23.1191 83.755 23.912 84.1214 24.6255C84.4877 25.3126 84.998 25.8543 85.6521 26.2507C86.3063 26.6207 87.0519 26.8057 87.8892 26.8057Z" fill="#104B5A"/>
<path fill-rule="evenodd" clip-rule="evenodd" d="M103.085 39.4114C104.681 40.1513 106.526 40.5213 108.619 40.5213C110.66 40.5213 112.479 40.1116 114.075 39.2924C115.671 38.4731 116.927 37.3369 117.843 35.8834C118.758 34.4299 119.217 32.7122 119.217 30.73V12.6143H113.329V13.9086C112.891 13.5364 112.394 13.2239 111.838 12.971C110.817 12.4689 109.653 12.2178 108.345 12.2178C106.592 12.2178 105.035 12.6406 103.674 13.4863C102.313 14.3055 101.241 15.4419 100.456 16.8954C99.6706 18.3225 99.2783 19.9345 99.2783 21.7316C99.2783 23.5023 99.6706 25.1143 100.456 26.5678C101.241 28.0213 102.313 29.1709 103.674 30.0165C105.035 30.8621 106.592 31.285 108.345 31.285C109.627 31.285 110.791 31.034 111.838 30.5319C112.345 30.2886 112.803 30.002 113.211 29.6719V30.8886C113.211 32.2364 112.78 33.2803 111.916 34.0203C111.079 34.7603 109.915 35.1301 108.423 35.1301C107.22 35.1301 106.186 34.9188 105.323 34.4959C104.485 34.0731 103.726 33.452 103.046 32.6328L99.3568 36.359C100.273 37.6804 101.515 38.6979 103.085 39.4114ZM111.641 25.3389C111.04 25.7089 110.32 25.8939 109.483 25.8939C108.646 25.8939 107.913 25.7089 107.285 25.3389C106.683 24.9689 106.212 24.4668 105.872 23.8325C105.532 23.1719 105.362 22.4715 105.362 21.7316C105.362 20.9388 105.532 20.2253 105.872 19.591C106.212 18.9568 106.696 18.4546 107.324 18.0846C107.952 17.7146 108.672 17.5296 109.483 17.5296C110.32 17.5296 111.04 17.7146 111.641 18.0846C112.269 18.4546 112.74 18.9568 113.054 19.591C113.395 20.2253 113.565 20.9388 113.565 21.7316C113.565 22.5244 113.395 23.2379 113.054 23.8721C112.74 24.48 112.269 24.9689 111.641 25.3389Z" fill="#104B5A"/>
<path fill-rule="evenodd" clip-rule="evenodd" d="M131.854 32.3157C129.891 32.3157 128.112 31.8797 126.516 31.0076C124.946 30.1091 123.703 28.8935 122.787 27.3606C121.871 25.8278 121.414 24.1101 121.414 22.2073C121.414 20.3046 121.871 18.6001 122.787 17.0937C123.703 15.5873 124.946 14.3981 126.516 13.5261C128.086 12.6275 129.865 12.1782 131.854 12.1782C133.842 12.1782 135.621 12.6143 137.191 13.4863C138.761 14.3585 140.004 15.561 140.92 17.0937C141.836 18.6001 142.294 20.3046 142.294 22.2073C142.294 24.1101 141.836 25.8278 140.92 27.3606C140.004 28.8935 138.761 30.1091 137.191 31.0076C135.621 31.8797 133.842 32.3157 131.854 32.3157ZM131.854 26.8057C132.717 26.8057 133.475 26.6207 134.13 26.2507C134.784 25.8543 135.281 25.3126 135.622 24.6255C135.988 23.912 136.171 23.1058 136.171 22.2073C136.171 21.3088 135.988 20.5292 135.622 19.8686C135.255 19.1815 134.745 18.653 134.091 18.283C133.463 17.8865 132.717 17.6883 131.854 17.6883C131.016 17.6883 130.27 17.8865 129.617 18.283C128.962 18.653 128.452 19.1815 128.086 19.8686C127.719 20.5557 127.536 21.3485 127.536 22.247C127.536 23.1191 127.719 23.912 128.086 24.6255C128.452 25.3126 128.962 25.8543 129.617 26.2507C130.27 26.6207 131.016 26.8057 131.854 26.8057Z" fill="#104B5A"/>
<path fill-rule="evenodd" clip-rule="evenodd" d="M164.936 32.276C163.655 32.276 162.477 32.025 161.404 31.5229C160.84 31.2586 160.33 30.9431 159.874 30.5764V40.006H153.947V12.6143H159.952V13.9439C160.388 13.584 160.872 13.2729 161.404 13.0106C162.477 12.482 163.655 12.2178 164.936 12.2178C166.742 12.2178 168.338 12.6539 169.724 13.526C171.138 14.398 172.237 15.5873 173.022 17.0936C173.833 18.6 174.238 20.3178 174.238 22.2469C174.238 24.1761 173.833 25.8939 173.022 27.4003C172.237 28.9066 171.138 30.0958 169.724 30.9679C168.338 31.84 166.742 32.276 164.936 32.276ZM163.838 26.8056C164.701 26.8056 165.447 26.6074 166.075 26.211C166.729 25.8146 167.239 25.2728 167.606 24.5858C167.972 23.8986 168.155 23.119 168.155 22.2469C168.155 21.3484 167.972 20.5556 167.606 19.8685C167.239 19.1814 166.729 18.6529 166.075 18.2829C165.447 17.8864 164.715 17.6883 163.877 17.6883C163.04 17.6883 162.294 17.8864 161.64 18.2829C161.012 18.6529 160.515 19.1814 160.149 19.8685C159.783 20.5556 159.599 21.3484 159.599 22.2469C159.599 23.119 159.769 23.8986 160.109 24.5858C160.476 25.2728 160.986 25.8146 161.64 26.211C162.294 26.6074 163.026 26.8056 163.838 26.8056Z" fill="#104B5A"/>
<path d="M180.115 31.9196C181.214 32.2103 182.326 32.3556 183.451 32.3556C185.832 32.3556 187.716 31.8007 189.103 30.6907C190.515 29.5808 191.222 28.0877 191.222 26.2113C191.222 24.9957 191 24.0178 190.555 23.2779C190.11 22.5116 189.535 21.9037 188.828 21.4544C188.121 21.0052 187.375 20.6483 186.591 20.3841C185.806 20.1198 185.06 19.8952 184.354 19.7102C183.647 19.5252 183.072 19.3138 182.626 19.0759C182.182 18.8381 181.959 18.5209 181.959 18.1246C181.959 17.7546 182.13 17.4771 182.469 17.2921C182.81 17.0807 183.319 16.9751 184 16.9751C184.707 16.9751 185.426 17.1203 186.159 17.4111C186.917 17.7017 187.598 18.2039 188.199 18.9174L191.614 15.4291C190.751 14.3191 189.626 13.4866 188.239 12.9317C186.879 12.3503 185.388 12.0596 183.765 12.0596C182.222 12.0596 180.874 12.3238 179.723 12.8523C178.571 13.3809 177.681 14.1077 177.053 15.0326C176.426 15.9311 176.112 17.0014 176.112 18.2436C176.112 19.4063 176.334 20.3709 176.779 21.1373C177.223 21.8772 177.8 22.4587 178.505 22.8814C179.212 23.3043 179.958 23.6347 180.743 23.8724C181.527 24.1103 182.274 24.3349 182.98 24.5464C183.686 24.7314 184.263 24.9561 184.707 25.2203C185.178 25.4582 185.414 25.8149 185.414 26.2906C185.414 26.6606 185.217 26.9512 184.824 27.1627C184.458 27.3741 183.922 27.4798 183.216 27.4798C182.194 27.4798 181.253 27.2948 180.39 26.9248C179.526 26.5284 178.78 25.9867 178.152 25.2996L174.738 28.7879C175.392 29.5014 176.177 30.1358 177.093 30.6907C178.035 31.2192 179.042 31.6288 180.115 31.9196Z" fill="#104B5A"/>
<path d="M202.172 32.3156C200.42 32.3156 198.863 31.9589 197.503 31.2454C196.167 30.5054 195.121 29.5011 194.363 28.2326C193.603 26.9378 193.224 25.4579 193.224 23.7929V12.6143H199.229V23.7136C199.229 24.3743 199.333 24.9425 199.543 25.4181C199.779 25.8939 200.119 26.2639 200.563 26.5281C201.009 26.7924 201.545 26.9245 202.172 26.9245C203.062 26.9245 203.769 26.647 204.292 26.092C204.816 25.5106 205.077 24.7179 205.077 23.7136V12.6143H211.082V23.7533C211.082 25.4446 210.703 26.9378 209.943 28.2326C209.185 29.5011 208.139 30.5054 206.803 31.2454C205.469 31.9589 203.926 32.3156 202.172 32.3156Z" fill="#104B5A"/>
<path d="M220.072 12.6143H214.067V31.8796H220.072V20.6216C220.072 19.961 220.203 19.406 220.464 18.9568C220.753 18.5075 221.132 18.1639 221.603 17.9261C222.074 17.6618 222.61 17.5296 223.212 17.5296C224.076 17.5296 224.795 17.8071 225.37 18.3621C225.973 18.8906 226.274 19.6439 226.274 20.6216V31.8796H232.279V20.6216C232.279 19.961 232.41 19.406 232.671 18.9568C232.959 18.5075 233.338 18.1639 233.809 17.9261C234.28 17.6618 234.817 17.5296 235.418 17.5296C236.282 17.5296 237.001 17.8071 237.577 18.3621C238.178 18.8906 238.479 19.6439 238.479 20.6216V31.8796H244.485V19.9478C244.485 18.3358 244.145 16.9615 243.464 15.8251C242.809 14.6623 241.907 13.777 240.756 13.1693C239.631 12.5349 238.335 12.2178 236.87 12.2178C235.379 12.2178 234.031 12.5481 232.828 13.2089C232.046 13.6298 231.363 14.173 230.777 14.8385C230.231 14.1424 229.568 13.5728 228.785 13.1295C227.739 12.5218 226.548 12.2178 225.214 12.2178C223.801 12.2178 222.532 12.5218 221.407 13.1295C220.917 13.3824 220.473 13.6853 220.072 14.0381V12.6143Z" fill="#104B5A"/>
<path d="M0 41.8227C7.67888 41.8227 13.9038 35.5811 13.9038 27.8818C13.9038 20.1825 7.67888 13.9409 0 13.9409V23.6995C2.30364 23.6995 4.17111 25.5719 4.17111 27.8818C4.17111 30.1916 2.30364 32.0641 0 32.0641V41.8227Z" fill="#FF7D44"/>
<path d="M46.3459 18.5881C43.97 17.8334 41.4398 17.4263 38.8147 17.4263C25.0567 17.4263 13.9038 28.6091 13.9038 42.4036C13.9038 43.7883 14.0162 45.1466 14.2322 46.4698H29.7102C29.1577 45.2277 28.8505 43.8517 28.8505 42.4036C28.8505 36.8858 33.3116 32.4127 38.8147 32.4127C41.8225 32.4127 44.5189 33.7489 46.3459 35.8615V18.5881Z" fill="#FF7D44"/>
<path d="M2.44434 0C3.59705 10.4555 12.4378 18.5879 23.1728 18.5879C33.9076 18.5879 42.7484 10.4555 43.901 0H28.9862C28.0654 2.31444 25.8095 3.9499 23.1728 3.9499C20.5359 3.9499 18.2801 2.31444 17.3592 0H2.44434Z" fill="#FF7D44"/>
</svg>
