<svg width="250" height="61" viewBox="0 0 250 61" fill="none" xmlns="http://www.w3.org/2000/svg">
<path d="M72.8003 42.8393H90.6925V37.4832H79.1596V17.3086H72.8003V42.8393Z" fill="#104B5A"/>
<path d="M101.293 39.2684C98.7424 39.2684 97.413 37.0546 97.413 33.7338C97.413 30.413 98.7424 28.1635 101.293 28.1635C103.844 28.1635 105.209 30.413 105.209 33.7338C105.209 37.0546 103.844 39.2684 101.293 39.2684ZM101.329 43.4105C107.257 43.4105 111.138 39.2327 111.138 33.7338C111.138 28.2349 107.257 24.0571 101.329 24.0571C95.437 24.0571 91.4849 28.2349 91.4849 33.7338C91.4849 39.2327 95.437 43.4105 101.329 43.4105Z" fill="#104B5A"/>
<path d="M121.399 49.1594C124.129 49.1594 126.536 48.5524 128.153 47.1241C129.626 45.8029 130.596 43.8033 130.596 41.0539V24.5571H124.992V26.521H124.92C123.842 24.9856 122.189 24.0215 119.746 24.0215C115.183 24.0215 112.021 27.8065 112.021 33.1626C112.021 38.7686 115.866 41.8394 119.998 41.8394C122.225 41.8394 123.626 40.9468 124.704 39.7327H124.848V41.5538C124.848 43.7676 123.806 45.0531 121.327 45.0531C119.387 45.0531 118.417 44.2318 118.093 43.2677H112.417C112.992 47.0884 116.333 49.1594 121.399 49.1594ZM121.363 37.5189C119.171 37.5189 117.734 35.7335 117.734 32.984C117.734 30.1989 119.171 28.4135 121.363 28.4135C123.806 28.4135 125.099 30.4845 125.099 32.9483C125.099 35.5192 123.914 37.5189 121.363 37.5189Z" fill="#104B5A"/>
<path d="M142.121 39.2684C139.57 39.2684 138.241 37.0546 138.241 33.7338C138.241 30.413 139.57 28.1635 142.121 28.1635C144.672 28.1635 146.037 30.413 146.037 33.7338C146.037 37.0546 144.672 39.2684 142.121 39.2684ZM142.157 43.4105C148.085 43.4105 151.966 39.2327 151.966 33.7338C151.966 28.2349 148.085 24.0571 142.157 24.0571C136.265 24.0571 132.312 28.2349 132.312 33.7338C132.312 39.2327 136.265 43.4105 142.157 43.4105Z" fill="#104B5A"/>
<path d="M153.675 42.8393H159.532V24.5572H153.675V42.8393ZM153.675 22.022H159.532V17.3086H153.675V22.022Z" fill="#104B5A"/>
<path d="M162.072 48.8738H167.928V40.9468H168C169.15 42.4822 170.838 43.4106 173.21 43.4106C178.024 43.4106 181.221 39.6256 181.221 33.6982C181.221 28.1992 178.239 24.0215 173.353 24.0215C170.838 24.0215 169.042 25.1284 167.784 26.7709H167.677V24.5571H162.072V48.8738ZM171.701 38.9114C169.186 38.9114 167.748 36.8761 167.748 33.9124C167.748 30.9487 169.042 28.6991 171.593 28.6991C174.108 28.6991 175.293 30.7702 175.293 33.9124C175.293 37.0189 173.928 38.9114 171.701 38.9114Z" fill="#104B5A"/>
<path d="M190.758 43.4106C195.572 43.4106 199.129 41.3395 199.129 37.3403C199.129 32.6627 195.321 31.8414 192.087 31.3058C189.752 30.8773 187.668 30.6988 187.668 29.4133C187.668 28.2707 188.782 27.735 190.219 27.735C191.835 27.735 192.949 28.2349 193.165 29.8775H198.554C198.267 26.271 195.464 24.0215 190.255 24.0215C185.907 24.0215 182.315 26.0211 182.315 29.8775C182.315 34.1624 185.728 35.0193 188.925 35.5549C191.368 35.9834 193.596 36.162 193.596 37.8045C193.596 38.9828 192.482 39.6256 190.722 39.6256C188.782 39.6256 187.56 38.7329 187.344 36.9118H181.812C181.991 40.9468 185.368 43.4106 190.758 43.4106Z" fill="#104B5A"/>
<path d="M207.082 43.3749C209.633 43.3749 211.25 42.3751 212.579 40.5897H212.687V42.8393H218.292V24.5571H212.436V34.7694C212.436 36.9476 211.214 38.4473 209.202 38.4473C207.334 38.4473 206.436 37.3403 206.436 35.3407V24.5571H200.615V36.5548C200.615 40.6254 202.843 43.3749 207.082 43.3749Z" fill="#104B5A"/>
<path d="M220.84 42.8392H226.696V32.5912C226.696 30.4131 227.774 28.8777 229.606 28.8777C231.367 28.8777 232.193 30.0203 232.193 31.9842V42.8392H238.049V32.5912C238.049 30.4131 239.091 28.8777 240.96 28.8777C242.72 28.8777 243.546 30.0203 243.546 31.9842V42.8392H249.403V30.9487C249.403 26.8424 247.319 24.0215 243.151 24.0215C240.78 24.0215 238.804 25.0213 237.367 27.2351H237.295C236.361 25.2712 234.528 24.0215 232.121 24.0215C229.463 24.0215 227.702 25.2712 226.552 27.1637H226.445V24.5571H220.84V42.8392Z" fill="#104B5A"/>
<path fill-rule="evenodd" clip-rule="evenodd" d="M12.9553 5.78993C10.8136 7.27827 8.87696 9.03798 7.19575 11.0189C14.066 10.385 22.7943 11.4201 32.9278 16.4557C43.7491 21.8329 52.4629 22.0148 58.5272 20.8522C57.9769 19.1964 57.2841 17.6051 56.4636 16.0923C49.5216 16.8199 40.6219 15.8567 30.25 10.7028C23.6638 7.42996 17.8581 6.08175 12.9553 5.78993ZM52.4084 10.3557C46.9262 4.2681 38.9593 0.437012 30.0919 0.437012C27.4879 0.437012 24.9612 0.767464 22.5525 1.38843C25.8148 2.27309 29.2804 3.56733 32.9278 5.37989C40.5216 9.15335 47.0775 10.3683 52.4084 10.3557ZM59.8238 26.6641C52.4975 28.102 42.3805 27.8066 30.25 21.7786C18.9093 16.1431 9.88304 16.2141 3.79542 17.5586C3.4812 17.628 3.17437 17.7009 2.87495 17.7767C2.07793 19.4995 1.44173 21.311 0.985242 23.1922C1.47279 23.0628 1.9766 22.9397 2.49641 22.8249C9.88175 21.1938 20.3166 21.2646 32.9278 27.5315C44.2687 33.167 53.2949 33.0961 59.3826 31.7515C59.5912 31.7056 59.7967 31.658 59.9988 31.6089C60.021 31.1398 60.032 30.6677 60.032 30.1931C60.032 28.9991 59.9614 27.8215 59.8238 26.6641ZM59.0213 37.8884C51.766 39.1491 41.9437 38.6652 30.25 32.8545C18.9093 27.219 9.88304 27.2899 3.79542 28.6344C2.44415 28.9328 1.22856 29.2962 0.156242 29.6799C0.153318 29.8506 0.151855 30.0217 0.151855 30.1931C0.151855 46.6269 13.5565 59.9492 30.0919 59.9492C43.9498 59.9492 55.6088 50.5922 59.0213 37.8884Z" fill="#FF7D44"/>
</svg>
