<svg width="250" height="50" viewBox="0 0 250 50" fill="none" xmlns="http://www.w3.org/2000/svg">
<g clip-path="url(#clip0_487_26905)">
<path fill-rule="evenodd" clip-rule="evenodd" d="M31.6283 14.6066C29.5931 13.2331 27.2002 12.5 24.7525 12.5V0C29.648 0 34.4337 1.46623 38.5042 4.21326C42.5747 6.96029 45.7473 10.8648 47.6208 15.4329C49.4942 20.001 49.9844 25.0278 49.0293 29.8773C48.0743 34.7267 45.7168 39.1814 42.2551 42.6776C38.7934 46.174 34.3829 48.555 29.5814 49.5196C24.7799 50.4842 19.803 49.9891 15.2801 48.097C10.7572 46.2048 6.89137 43.0005 4.17155 38.8893C1.45171 34.778 0 29.9445 0 25H12.3762C12.3762 27.4722 13.1021 29.889 14.462 31.9446C15.8219 34.0003 17.7548 35.6024 20.0163 36.5485C22.2777 37.4946 24.7662 37.7421 27.167 37.2598C29.5677 36.7775 31.7729 35.587 33.5038 33.8389C35.2347 32.0906 36.4134 29.8634 36.8908 27.4386C37.3684 25.0139 37.1234 22.5005 36.1866 20.2165C35.2499 17.9324 33.6636 15.9801 31.6283 14.6066Z" fill="#FF7D44"/>
<path fill-rule="evenodd" clip-rule="evenodd" d="M12.3762 6.60616e-06C12.3762 1.64153 12.0561 3.26698 11.4342 4.78355C10.8122 6.30012 9.90056 7.6781 8.75132 8.83884C7.60209 9.99958 6.23774 10.9203 4.73618 11.5485C3.23462 12.1767 1.62527 12.5 5.40978e-07 12.5L0 25C3.25054 25 6.46925 24.3534 9.47237 23.097C12.4755 21.8406 15.2042 19.9991 17.5026 17.6776C19.8011 15.3563 21.6244 12.6003 22.8683 9.56709C24.1122 6.53394 24.7525 3.28304 24.7525 0L12.3762 6.60616e-06Z" fill="#FF7D44"/>
<path d="M155.469 18.0654H149.464V37.3308H155.469V18.0654Z" fill="#104B5A"/>
<path d="M150.132 14.4583C150.76 15.0925 151.545 15.4096 152.486 15.4096C153.428 15.4096 154.201 15.0925 154.802 14.4583C155.405 13.7976 155.705 13.0047 155.705 12.0798C155.705 11.1285 155.405 10.3356 154.802 9.70139C154.201 9.06711 153.428 8.75 152.486 8.75C151.545 8.75 150.76 9.06711 150.132 9.70139C149.53 10.3356 149.229 11.1285 149.229 12.0798C149.229 13.0047 149.53 13.7976 150.132 14.4583Z" fill="#104B5A"/>
<path d="M63.312 37.3311V9.34473H69.474V31.8608H81.7588V37.3311H63.312Z" fill="#104B5A"/>
<path fill-rule="evenodd" clip-rule="evenodd" d="M92.8555 37.7669C90.8931 37.7669 89.1139 37.3309 87.5178 36.4588C85.9478 35.5603 84.705 34.3446 83.7892 32.8118C82.8734 31.279 82.4155 29.5613 82.4155 27.6585C82.4155 25.7558 82.8734 24.0513 83.7892 22.5449C84.705 21.0385 85.9478 19.8493 87.5178 18.9773C89.0877 18.0786 90.867 17.6294 92.8555 17.6294C94.8441 17.6294 96.6233 18.0655 98.1932 18.9375C99.7632 19.8096 101.006 21.0121 101.922 22.5449C102.838 24.0513 103.296 25.7558 103.296 27.6585C103.296 29.5613 102.838 31.279 101.922 32.8118C101.006 34.3446 99.7632 35.5603 98.1932 36.4588C96.6233 37.3309 94.8441 37.7669 92.8555 37.7669ZM92.8555 32.2569C93.719 32.2569 94.4778 32.0719 95.132 31.7019C95.7861 31.3055 96.2832 30.7638 96.6233 30.0766C96.9897 29.3631 97.1728 28.557 97.1728 27.6585C97.1728 26.76 96.9897 25.9804 96.6233 25.3198C96.257 24.6326 95.7468 24.1041 95.0926 23.7341C94.4647 23.3376 93.719 23.1395 92.8555 23.1395C92.0182 23.1395 91.2726 23.3376 90.6184 23.7341C89.9643 24.1041 89.454 24.6326 89.0877 25.3198C88.7213 26.0069 88.5383 26.7996 88.5383 27.6981C88.5383 28.5703 88.7213 29.3631 89.0877 30.0766C89.454 30.7638 89.9643 31.3055 90.6184 31.7019C91.2726 32.0719 92.0182 32.2569 92.8555 32.2569Z" fill="#104B5A"/>
<path fill-rule="evenodd" clip-rule="evenodd" d="M108.052 44.8626C109.648 45.6024 111.492 45.9724 113.586 45.9724C115.627 45.9724 117.445 45.5628 119.041 44.7436C120.637 43.9243 121.893 42.7881 122.809 41.3346C123.725 39.8811 124.183 38.1633 124.183 36.1812V18.0654H118.295V19.3598C117.858 18.9876 117.36 18.6751 116.804 18.4222C115.783 17.9201 114.619 17.6689 113.311 17.6689C111.558 17.6689 110.001 18.0918 108.64 18.9374C107.28 19.7567 106.207 20.8931 105.422 22.3466C104.637 23.7737 104.245 25.3857 104.245 27.1828C104.245 28.9534 104.637 30.5654 105.422 32.0189C106.207 33.4724 107.28 34.6221 108.64 35.4677C110.001 36.3133 111.558 36.7362 113.311 36.7362C114.593 36.7362 115.757 36.4852 116.804 35.9831C117.311 35.7398 117.769 35.4532 118.178 35.1231V36.3398C118.178 37.6876 117.746 38.7314 116.883 39.4714C116.045 40.2114 114.881 40.5813 113.389 40.5813C112.186 40.5813 111.152 40.3699 110.289 39.9471C109.452 39.5243 108.693 38.9032 108.012 38.0839L104.323 41.8102C105.239 43.1316 106.482 44.1491 108.052 44.8626ZM116.608 30.7901C116.006 31.1601 115.286 31.3451 114.449 31.3451C113.612 31.3451 112.879 31.1601 112.251 30.7901C111.649 30.4201 111.178 29.9179 110.838 29.2837C110.498 28.6231 110.328 27.9227 110.328 27.1828C110.328 26.3899 110.498 25.6764 110.838 25.0422C111.178 24.4079 111.662 23.9058 112.29 23.5358C112.918 23.1658 113.638 22.9808 114.449 22.9808C115.286 22.9808 116.006 23.1658 116.608 23.5358C117.236 23.9058 117.707 24.4079 118.021 25.0422C118.361 25.6764 118.531 26.3899 118.531 27.1828C118.531 27.9756 118.361 28.6891 118.021 29.3233C117.707 29.9312 117.236 30.4201 116.608 30.7901Z" fill="#104B5A"/>
<path fill-rule="evenodd" clip-rule="evenodd" d="M136.82 37.7669C134.858 37.7669 133.078 37.3309 131.483 36.4588C129.912 35.5603 128.669 34.3446 127.754 32.8118C126.838 31.279 126.38 29.5613 126.38 27.6585C126.38 25.7558 126.838 24.0513 127.754 22.5449C128.669 21.0385 129.912 19.8493 131.483 18.9773C133.052 18.0786 134.832 17.6294 136.82 17.6294C138.808 17.6294 140.588 18.0655 142.157 18.9375C143.728 19.8096 144.97 21.0121 145.886 22.5449C146.802 24.0513 147.26 25.7558 147.26 27.6585C147.26 29.5613 146.802 31.279 145.886 32.8118C144.97 34.3446 143.728 35.5603 142.157 36.4588C140.588 37.3309 138.808 37.7669 136.82 37.7669ZM136.82 32.2569C137.683 32.2569 138.442 32.0719 139.096 31.7019C139.75 31.3055 140.247 30.7638 140.588 30.0766C140.954 29.3631 141.137 28.557 141.137 27.6585C141.137 26.76 140.954 25.9804 140.588 25.3198C140.221 24.6326 139.712 24.1041 139.057 23.7341C138.429 23.3376 137.683 23.1395 136.82 23.1395C135.983 23.1395 135.236 23.3376 134.583 23.7341C133.928 24.1041 133.418 24.6326 133.052 25.3198C132.686 26.0069 132.502 26.7996 132.502 27.6981C132.502 28.5703 132.686 29.3631 133.052 30.0766C133.418 30.7638 133.928 31.3055 134.583 31.7019C135.236 32.0719 135.983 32.2569 136.82 32.2569Z" fill="#104B5A"/>
<path fill-rule="evenodd" clip-rule="evenodd" d="M169.902 37.7272C168.622 37.7272 167.443 37.4762 166.37 36.9741C165.806 36.7098 165.296 36.3943 164.841 36.0276V45.4572H158.914V18.0654H164.919V19.3951C165.354 19.0352 165.838 18.7241 166.37 18.4618C167.443 17.9332 168.622 17.6689 169.902 17.6689C171.708 17.6689 173.305 18.1051 174.691 18.9772C176.104 19.8492 177.203 21.0384 177.988 22.5448C178.8 24.0512 179.204 25.7689 179.204 27.6981C179.204 29.6273 178.8 31.3451 177.988 32.8514C177.203 34.3578 176.104 35.5469 174.691 36.4191C173.305 37.2912 171.708 37.7272 169.902 37.7272ZM168.805 32.2568C169.667 32.2568 170.414 32.0586 171.041 31.6622C171.696 31.2658 172.206 30.7239 172.572 30.0369C172.938 29.3498 173.122 28.5702 173.122 27.6981C173.122 26.7996 172.938 26.0068 172.572 25.3197C172.206 24.6326 171.696 24.1041 171.041 23.7341C170.414 23.3376 169.681 23.1394 168.843 23.1394C168.006 23.1394 167.26 23.3376 166.607 23.7341C165.978 24.1041 165.482 24.6326 165.115 25.3197C164.749 26.0068 164.566 26.7996 164.566 27.6981C164.566 28.5702 164.735 29.3498 165.076 30.0369C165.442 30.7239 165.952 31.2658 166.607 31.6622C167.26 32.0586 167.993 32.2568 168.805 32.2568Z" fill="#104B5A"/>
<path d="M185.082 37.3707C186.181 37.6615 187.292 37.8067 188.417 37.8067C190.798 37.8067 192.682 37.2519 194.069 36.1419C195.481 35.032 196.188 33.5389 196.188 31.6625C196.188 30.4469 195.966 29.469 195.521 28.7291C195.077 27.9627 194.501 27.3549 193.794 26.9056C193.088 26.4564 192.341 26.0995 191.557 25.8352C190.772 25.571 190.026 25.3464 189.32 25.1614C188.614 24.9764 188.038 24.765 187.593 24.5271C187.148 24.2892 186.926 23.9721 186.926 23.5757C186.926 23.2057 187.096 22.9282 187.436 22.7432C187.776 22.5319 188.286 22.4262 188.966 22.4262C189.673 22.4262 190.392 22.5715 191.125 22.8622C191.884 23.1529 192.564 23.6551 193.166 24.3686L196.58 20.8802C195.718 19.7702 194.593 18.9377 193.205 18.3829C191.845 17.8015 190.354 17.5107 188.731 17.5107C187.188 17.5107 185.84 17.775 184.689 18.3035C183.537 18.8321 182.647 19.5589 182.02 20.4837C181.392 21.3822 181.078 22.4526 181.078 23.6947C181.078 24.8575 181.301 25.8221 181.745 26.5885C182.189 27.3284 182.766 27.9099 183.471 28.3326C184.178 28.7555 184.924 29.0859 185.709 29.3236C186.494 29.5615 187.24 29.7861 187.947 29.9976C188.652 30.1826 189.229 30.4072 189.673 30.6715C190.145 30.9094 190.38 31.2661 190.38 31.7417C190.38 32.1117 190.183 32.4024 189.791 32.6139C189.424 32.8252 188.888 32.931 188.182 32.931C187.161 32.931 186.219 32.746 185.356 32.376C184.492 31.9796 183.746 31.4379 183.119 30.7507L179.704 34.2391C180.359 34.9526 181.143 35.587 182.059 36.1419C183.001 36.6704 184.009 37.08 185.082 37.3707Z" fill="#104B5A"/>
<path d="M207.138 37.7668C205.386 37.7668 203.829 37.4101 202.469 36.6966C201.134 35.9566 200.088 34.9523 199.329 33.6838C198.569 32.3889 198.19 30.9091 198.19 29.2441V18.0654H204.195V29.1648C204.195 29.8254 204.299 30.3937 204.51 30.8693C204.745 31.3451 205.085 31.7151 205.53 31.9793C205.975 32.2436 206.511 32.3757 207.138 32.3757C208.028 32.3757 208.735 32.0982 209.258 31.5432C209.782 30.9618 210.043 30.1691 210.043 29.1648V18.0654H216.048V29.2044C216.048 30.8958 215.669 32.3889 214.909 33.6838C214.151 34.9523 213.105 35.9566 211.77 36.6966C210.435 37.4101 208.892 37.7668 207.138 37.7668Z" fill="#104B5A"/>
<path d="M225.038 18.0654H219.033V37.3308H225.038V26.0728C225.038 25.4122 225.169 24.8572 225.43 24.4079C225.719 23.9587 226.099 23.6151 226.569 23.3773C227.041 23.1129 227.577 22.9808 228.178 22.9808C229.042 22.9808 229.761 23.2583 230.336 23.8133C230.939 24.3418 231.24 25.0951 231.24 26.0728V37.3308H237.245V26.0728C237.245 25.4122 237.376 24.8572 237.637 24.4079C237.926 23.9587 238.304 23.6151 238.776 23.3773C239.246 23.1129 239.783 22.9808 240.385 22.9808C241.249 22.9808 241.968 23.2583 242.543 23.8133C243.145 24.3418 243.445 25.0951 243.445 26.0728V37.3308H249.452V25.3989C249.452 23.7869 249.111 22.4127 248.43 21.2763C247.776 20.1134 246.874 19.2282 245.723 18.6204C244.598 17.9861 243.302 17.6689 241.836 17.6689C240.345 17.6689 238.997 17.9993 237.794 18.6601C237.012 19.0809 236.329 19.6242 235.744 20.2897C235.198 19.5936 234.534 19.0239 233.751 18.5807C232.705 17.9729 231.515 17.6689 230.18 17.6689C228.767 17.6689 227.499 17.9729 226.374 18.5807C225.883 18.8336 225.439 19.1364 225.038 19.4893V18.0654Z" fill="#104B5A"/>
</g>
<defs>
<clipPath id="clip0_487_26905">
<rect width="250" height="50" fill="white"/>
</clipPath>
</defs>
</svg>
