<svg width="60" height="60" viewBox="0 0 60 60" fill="none" xmlns="http://www.w3.org/2000/svg">
<g clip-path="url(#clip0_330_24)">
<path d="M13.2973 36.2586L11.2088 44.0553L3.57527 44.2168C1.29398 39.9855 0 35.1444 0 29.9998C0 25.0251 1.20984 20.3339 3.35438 16.2031H3.35602L10.152 17.4491L13.129 24.2042C12.5059 26.0207 12.1663 27.9707 12.1663 29.9998C12.1665 32.202 12.5654 34.312 13.2973 36.2586Z" fill="#FBBB00"/>
<path d="M59.4757 24.3965C59.8202 26.2113 59.9999 28.0854 59.9999 30.0009C59.9999 32.1487 59.7741 34.2437 59.3439 36.2646C57.8835 43.1416 54.0675 49.1465 48.7813 53.3959L48.7797 53.3943L40.2198 52.9575L39.0083 45.3948C42.516 43.3377 45.2572 40.1185 46.7012 36.2646H30.6594V24.3965H46.9352H59.4757Z" fill="#518EF8"/>
<path d="M48.7796 53.3943L48.7812 53.396C43.6401 57.5284 37.1092 60.0009 29.9999 60.0009C18.5752 60.0009 8.64227 53.6152 3.5752 44.218L13.2972 36.2598C15.8307 43.0213 22.3532 47.8345 29.9999 47.8345C33.2867 47.8345 36.3659 46.946 39.0081 45.3949L48.7796 53.3943Z" fill="#28B446"/>
<path d="M49.149 6.90656L39.4303 14.8631C36.6957 13.1538 33.4632 12.1664 30.0001 12.1664C22.1803 12.1664 15.5358 17.2004 13.1292 24.2044L3.35613 16.2033H3.35449C8.34738 6.57691 18.4056 0 30.0001 0C37.2792 0 43.9534 2.59289 49.149 6.90656Z" fill="#F14336"/>
</g>
<defs>
<clipPath id="clip0_330_24">
<rect width="60" height="60" fill="white"/>
</clipPath>
</defs>
</svg>
