<svg width="30" height="30" viewBox="0 0 30 30" fill="none" xmlns="http://www.w3.org/2000/svg">
<g clip-path="url(#clip0_258_5213)">
<path d="M22.5001 18.2141C22.5 20.0114 22.0478 21.7797 21.1851 23.3563C20.3224 24.933 19.077 26.2673 17.5635 27.2364C16.05 28.2056 14.317 28.7784 12.524 28.9023C10.7311 29.0261 8.93578 28.6969 7.30339 27.945C5.67101 27.1931 4.25399 26.0427 3.18277 24.5996C2.11154 23.1565 1.42054 21.4672 1.17336 19.687C0.926174 17.9069 1.13076 16.0932 1.76828 14.4128C2.4058 12.7325 3.45576 11.2395 4.82154 10.0713" stroke="white" stroke-width="1.5" stroke-linecap="round" stroke-linejoin="round"/>
<path d="M11.3144 14.25C11.0879 14.7176 10.9707 15.2305 10.9715 15.75C10.9687 16.1813 11.0515 16.609 11.2153 17.008C11.379 17.4071 11.6204 17.7696 11.9254 18.0746C12.2304 18.3797 12.593 18.621 12.9921 18.7848C13.3911 18.9486 13.8187 19.0314 14.2501 19.0286C14.6877 19.0286 15.1074 19.2024 15.4168 19.5118C15.7262 19.8213 15.9001 20.241 15.9001 20.6786V28.1143" stroke="white" stroke-width="1.5" stroke-linecap="round" stroke-linejoin="round"/>
<path d="M1.22144 19.8644H5.18572C5.62624 19.8529 6.0646 19.9298 6.47492 20.0906C6.88524 20.2513 7.25921 20.4925 7.57478 20.8001C7.89035 21.1077 8.14112 21.4754 8.3123 21.8814C8.48347 22.2875 8.57158 22.7237 8.57144 23.1644V28.4144" stroke="white" stroke-width="1.5" stroke-linecap="round" stroke-linejoin="round"/>
<path d="M28.4145 4.22116L26.2716 3.49259C26.121 3.44143 25.9578 3.44096 25.8069 3.49126C25.656 3.54156 25.5257 3.63986 25.4359 3.77116L23.8716 6.19259L15.3002 1.90687C14.6227 1.50763 13.8654 1.26306 13.0824 1.19064C12.2995 1.11823 11.5101 1.21977 10.771 1.488C10.0318 1.75623 9.36108 2.18451 8.80674 2.74221C8.25241 3.29991 7.8282 3.97324 7.56446 4.71402C7.49177 4.90619 7.46054 5.11156 7.47282 5.31666C7.48511 5.52175 7.54062 5.72193 7.63573 5.90406C7.73084 6.08618 7.86339 6.24613 8.02468 6.37341C8.18597 6.50069 8.37235 6.59242 8.5716 6.64259L14.1645 8.44259L14.7216 8.63544L15.7716 12.2354C15.8053 12.3608 15.8701 12.4756 15.96 12.5693C16.0499 12.6629 16.162 12.7323 16.2859 12.7712L18.8145 13.5854C18.9435 13.6275 19.0813 13.6357 19.2144 13.6093C19.3476 13.5828 19.4718 13.5226 19.575 13.4344C19.6782 13.3463 19.7571 13.2331 19.804 13.1057C19.8509 12.9783 19.8644 12.8409 19.843 12.7069L19.2859 10.0283H19.6502L25.1145 11.8069C25.4726 11.9303 25.8649 11.9072 26.2061 11.7427C26.5473 11.5781 26.8096 11.2854 26.9359 10.9283L28.8645 4.99259C28.8857 4.8323 28.853 4.6695 28.7715 4.52984C28.69 4.39018 28.5644 4.28158 28.4145 4.22116Z" stroke="white" stroke-width="1.5" stroke-linecap="round" stroke-linejoin="round"/>
</g>
<defs>
<clipPath id="clip0_258_5213">
<rect width="30" height="30" fill="white"/>
</clipPath>
</defs>
</svg>
