<svg width="80" height="80" viewBox="0 0 80 80" fill="none" xmlns="http://www.w3.org/2000/svg">
<path d="M39.9998 77.1431C60.5132 77.1431 77.1426 60.5137 77.1426 40.0003C77.1426 19.4868 60.5132 2.85742 39.9998 2.85742C19.4864 2.85742 2.85693 19.4868 2.85693 40.0003C2.85693 60.5137 19.4864 77.1431 39.9998 77.1431Z" stroke="#FF7D44" stroke-width="2.5" stroke-linecap="round" stroke-linejoin="round"/>
<path d="M5.71387 54.2864H15.7139C18.366 54.2864 20.9096 53.2328 22.7849 51.3575C24.6603 49.4821 25.7139 46.9385 25.7139 44.2864V35.715C25.7139 33.0628 26.7674 30.5192 28.6428 28.6439C30.5182 26.7685 33.0617 25.715 35.7139 25.715C38.366 25.715 40.9096 24.6614 42.7849 22.786C44.6603 20.9107 45.7139 18.3671 45.7139 15.715V3.25781" stroke="#FF7D44" stroke-width="2.5" stroke-linecap="round" stroke-linejoin="round"/>
<path d="M77.1424 39.4283C74.2814 37.9438 71.1085 37.1603 67.8853 37.1426H55.7139C53.0617 37.1426 50.5182 38.1961 48.6428 40.0715C46.7674 41.9469 45.7139 44.4904 45.7139 47.1426C45.7139 49.7947 46.7674 52.3383 48.6428 54.2136C50.5182 56.089 53.0617 57.1426 55.7139 57.1426C57.6083 57.1426 59.4251 57.8951 60.7646 59.2347C62.1042 60.5742 62.8567 62.391 62.8567 64.2854V69.2569" stroke="#FF7D44" stroke-width="2.5" stroke-linecap="round" stroke-linejoin="round"/>
</svg>
