<svg width="30" height="30" viewBox="0 0 30 30" fill="none" xmlns="http://www.w3.org/2000/svg">
<g clip-path="url(#clip0_482_92)">
<path d="M28.9287 28.8853H27.8572C26.7206 28.8853 25.6305 28.4338 24.8268 27.6301C24.0231 26.8263 23.5715 25.7363 23.5715 24.5996C23.5715 25.7363 23.12 26.8263 22.3163 27.6301C21.5125 28.4338 20.4225 28.8853 19.2858 28.8853C18.1492 28.8853 17.0591 28.4338 16.2554 27.6301C15.4516 26.8263 15.0001 25.7363 15.0001 24.5996C15.0001 25.7363 14.5486 26.8263 13.7448 27.6301C12.9411 28.4338 11.851 28.8853 10.7144 28.8853C9.57775 28.8853 8.48766 28.4338 7.68393 27.6301C6.88021 26.8263 6.42868 25.7363 6.42868 24.5996C6.42868 25.7363 5.97715 26.8263 5.17342 27.6301C4.36969 28.4338 3.2796 28.8853 2.14296 28.8853H1.07153" stroke="#104B5A" stroke-width="1.5" stroke-linecap="round" stroke-linejoin="round"/>
<path d="M21.4285 20.3146C20.3249 18.9728 18.9378 17.8921 17.3668 17.1502C15.7959 16.4082 14.0801 16.0234 12.3428 16.0234C10.6055 16.0234 8.88969 16.4082 7.31875 17.1502C5.74782 17.8921 4.36071 18.9728 3.25708 20.3146" stroke="#104B5A" stroke-width="1.5" stroke-linecap="round" stroke-linejoin="round"/>
<path d="M13.929 16.1358C14.0575 11.293 15.5361 6.87868 18.7504 5.29297" stroke="#104B5A" stroke-width="1.5" stroke-linecap="round" stroke-linejoin="round"/>
<path d="M12.3428 1.22137C13.7318 0.947846 15.1729 1.21764 16.369 1.97513C17.565 2.73263 18.4249 3.9201 18.7713 5.29279" stroke="#104B5A" stroke-width="1.5" stroke-linecap="round" stroke-linejoin="round"/>
<path d="M26.5929 6.08516C25.6066 5.02022 24.2655 4.35199 22.8213 4.206C21.3772 4.06001 19.9294 4.4463 18.75 5.2923" stroke="#104B5A" stroke-width="1.5" stroke-linecap="round" stroke-linejoin="round"/>
<path d="M10.8857 7.58554C11.7254 6.34848 12.97 5.44277 14.4054 5.02429C15.8407 4.60581 17.3771 4.70072 18.75 5.29268C20.1272 5.62949 21.3195 6.48834 22.0752 7.68787C22.8309 8.88739 23.0908 10.3337 22.8 11.7213" stroke="#104B5A" stroke-width="1.5" stroke-linecap="round" stroke-linejoin="round"/>
</g>
<defs>
<clipPath id="clip0_482_92">
<rect width="30" height="30" fill="white"/>
</clipPath>
</defs>
</svg>
