<svg width="40" height="40" viewBox="0 0 40 40" fill="none" xmlns="http://www.w3.org/2000/svg">
<path d="M19.6284 27.142C26.7292 27.142 32.4855 21.3857 32.4855 14.2849C32.4855 7.18407 26.7292 1.42773 19.6284 1.42773C12.5276 1.42773 6.77124 7.18407 6.77124 14.2849C6.77124 21.3857 12.5276 27.142 19.6284 27.142Z" stroke="#FF7D44" stroke-width="1.5" stroke-linecap="round" stroke-linejoin="round"/>
<path d="M19.6283 19.9989C22.7843 19.9989 25.3426 17.4405 25.3426 14.2846C25.3426 11.1287 22.7843 8.57031 19.6283 8.57031C16.4724 8.57031 13.9141 11.1287 13.9141 14.2846C13.9141 17.4405 16.4724 19.9989 19.6283 19.9989Z" stroke="#FF7D44" stroke-width="1.5" stroke-linecap="round" stroke-linejoin="round"/>
<path d="M17.1427 26.9126L14.6284 37.484C14.5787 37.6849 14.4867 37.8729 14.3586 38.0355C14.2305 38.1981 14.0692 38.3315 13.8856 38.4269C13.6917 38.511 13.4826 38.5545 13.2713 38.5545C13.0599 38.5545 12.8508 38.511 12.657 38.4269L3.17127 34.284C2.9723 34.19 2.79722 34.0521 2.65918 33.8807C2.52114 33.7092 2.42372 33.5088 2.37423 33.2943C2.32474 33.0799 2.32447 32.857 2.37344 32.6425C2.42242 32.4279 2.51935 32.2272 2.65698 32.0555L9.99984 22.8555" stroke="#FF7D44" stroke-width="1.5" stroke-linecap="round" stroke-linejoin="round"/>
<path d="M22.8569 26.7696L25.4284 37.4839C25.4795 37.6882 25.5752 37.8787 25.7085 38.0417C25.8419 38.2047 26.0097 38.3362 26.1998 38.4268C26.3883 38.512 26.5929 38.556 26.7998 38.556C27.0067 38.556 27.2112 38.512 27.3998 38.4268L36.8284 34.2839C37.0303 34.191 37.2078 34.0522 37.3467 33.8786C37.4856 33.705 37.582 33.5014 37.6284 33.2839C37.6825 33.0712 37.6848 32.8486 37.6351 32.6348C37.5854 32.4211 37.4851 32.2223 37.3426 32.0554L29.6855 22.3125" stroke="#FF7D44" stroke-width="1.5" stroke-linecap="round" stroke-linejoin="round"/>
</svg>
