<svg width="40" height="40" viewBox="0 0 40 40" fill="none" xmlns="http://www.w3.org/2000/svg">
<g clip-path="url(#clip0_1448_52395)">
<mask id="mask0_1448_52395" style="mask-type:luminance" maskUnits="userSpaceOnUse" x="0" y="0" width="40" height="40">
<path d="M40 0H0V40H40V0Z" fill="white"/>
</mask>
<g mask="url(#mask0_1448_52395)">
<path d="M17.1424 38.5424C18.7203 38.5424 19.9995 37.2632 19.9995 35.6853C19.9995 34.1073 18.7203 32.8281 17.1424 32.8281C15.5644 32.8281 14.2852 34.1073 14.2852 35.6853C14.2852 37.2632 15.5644 38.5424 17.1424 38.5424Z" stroke="#201E4D" stroke-width="1.5" stroke-linecap="round" stroke-linejoin="round"/>
<path d="M29.9998 38.5424C31.5777 38.5424 32.8569 37.2632 32.8569 35.6853C32.8569 34.1073 31.5777 32.8281 29.9998 32.8281C28.4218 32.8281 27.1426 34.1073 27.1426 35.6853C27.1426 37.2632 28.4218 38.5424 29.9998 38.5424Z" stroke="#201E4D" stroke-width="1.5" stroke-linecap="round" stroke-linejoin="round"/>
<path d="M23.9425 10.0858C23.5041 8.32445 22.6524 6.6929 21.458 5.32618C20.2637 3.95945 18.7609 2.89685 17.0743 2.22635C15.3876 1.55585 13.5655 1.29672 11.7587 1.47043C9.95194 1.64413 8.21256 2.24567 6.68452 3.22524C5.15648 4.20482 3.88373 5.53425 2.97163 7.1035C2.05953 8.67275 1.53431 10.4367 1.43945 12.2493C1.34459 14.0619 1.68282 15.871 2.42614 17.5268C3.16946 19.1827 4.29649 20.6378 5.71394 21.7715" stroke="#201E4D" stroke-width="1.5" stroke-linecap="round" stroke-linejoin="round"/>
<path d="M12.8564 12.8863L17.1421 8.60059" stroke="#201E4D" stroke-width="1.5" stroke-linecap="round" stroke-linejoin="round"/>
<path d="M18.5713 27.1424V24.2852H14.2856C12.7701 24.2852 11.3166 24.8873 10.245 25.9589C9.17333 27.0306 8.57129 28.484 8.57129 29.9995V35.7138" stroke="#201E4D" stroke-width="1.5" stroke-linecap="round" stroke-linejoin="round"/>
<path d="M38.5713 35.6858V21.4001C38.5713 20.6424 38.2703 19.9156 37.7345 19.3798C37.1986 18.844 36.4719 18.543 35.7141 18.543H21.4284C20.6707 18.543 19.9439 18.844 19.4081 19.3798C18.8723 19.9156 18.5713 20.6424 18.5713 21.4001V27.1144" stroke="#201E4D" stroke-width="1.5" stroke-linecap="round" stroke-linejoin="round"/>
</g>
</g>
<defs>
<clipPath id="clip0_1448_52395">
<rect width="40" height="40" fill="white"/>
</clipPath>
</defs>
</svg>
