<svg width="40" height="40" viewBox="0 0 40 40" fill="none" xmlns="http://www.w3.org/2000/svg">
<g clip-path="url(#clip0_232_15)">
<path d="M4.28585 17.1445H7.143C7.52188 17.1445 7.88524 17.295 8.15315 17.563C8.42106 17.8309 8.57157 18.1942 8.57157 18.5731V25.716C8.57157 26.0948 8.42106 26.4582 8.15315 26.7261C7.88524 26.994 7.52188 27.1445 7.143 27.1445H4.28585C3.52809 27.1445 2.80137 26.8435 2.26555 26.3077C1.72973 25.7719 1.42871 25.0452 1.42871 24.2874V20.0017C1.42871 19.2439 1.72973 18.5172 2.26555 17.9814C2.80137 17.4456 3.52809 17.1445 4.28585 17.1445V17.1445Z" stroke="#FF7D44" stroke-width="1.5" stroke-linecap="round" stroke-linejoin="round"/>
<path d="M35.7141 27.1445H32.857C32.4781 27.1445 32.1148 26.994 31.8468 26.7261C31.5789 26.4582 31.4284 26.0948 31.4284 25.716V18.5731C31.4284 18.1942 31.5789 17.8309 31.8468 17.5629C32.1148 17.295 32.4781 17.1445 32.857 17.1445H35.7141C36.4719 17.1445 37.1986 17.4456 37.7345 17.9814C38.2703 18.5172 38.5713 19.2439 38.5713 20.0017V24.2874C38.5713 25.0451 38.2703 25.7719 37.7345 26.3077C37.1986 26.8435 36.4719 27.1445 35.7141 27.1445V27.1445Z" stroke="#FF7D44" stroke-width="1.5" stroke-linecap="round" stroke-linejoin="round"/>
<path d="M27.1431 35.0017C28.6586 35.0017 30.112 34.3996 31.1837 33.328C32.2553 32.2564 32.8574 30.8029 32.8574 29.2874V27.1445" stroke="#FF7D44" stroke-width="1.5" stroke-linecap="round" stroke-linejoin="round"/>
<path d="M23.5715 31.4297C24.5187 31.4297 25.4271 31.806 26.0969 32.4757C26.7667 33.1455 27.1429 34.0539 27.1429 35.0011C27.1429 35.9483 26.7667 36.8567 26.0969 37.5265C25.4271 38.1963 24.5187 38.5725 23.5715 38.5725H19.2858C18.3386 38.5725 17.4302 38.1963 16.7604 37.5265C16.0906 36.8567 15.7144 35.9483 15.7144 35.0011C15.7144 34.0539 16.0906 33.1455 16.7604 32.4757C17.4302 31.806 18.3386 31.4297 19.2858 31.4297H23.5715Z" stroke="#FF7D44" stroke-width="1.5" stroke-linecap="round" stroke-linejoin="round"/>
<path d="M7.14307 17.144V14.2868C7.14307 10.8769 8.49765 7.60664 10.9088 5.19546C13.32 2.78428 16.5903 1.42969 20.0002 1.42969C23.4101 1.42969 26.6804 2.78428 29.0916 5.19546C31.5028 7.60664 32.8574 10.8769 32.8574 14.2868V17.144" stroke="#FF7D44" stroke-width="1.5" stroke-linecap="round" stroke-linejoin="round"/>
<path d="M15.7144 11.4297V15.7154" stroke="#FF7D44" stroke-width="1.5" stroke-linecap="round" stroke-linejoin="round"/>
<path d="M24.2859 11.4297V15.7154" stroke="#FF7D44" stroke-width="1.5" stroke-linecap="round" stroke-linejoin="round"/>
<path d="M15.7144 21.4297C15.7144 25.2297 24.2858 25.2297 24.2858 21.4297" stroke="#FF7D44" stroke-width="1.5" stroke-linecap="round" stroke-linejoin="round"/>
</g>
<defs>
<clipPath id="clip0_232_15">
<rect width="40" height="40" fill="white"/>
</clipPath>
</defs>
</svg>
