<svg width="40" height="40" viewBox="0 0 40 40" fill="none" xmlns="http://www.w3.org/2000/svg">
<path d="M19.6286 27.143C26.7294 27.143 32.4858 21.3867 32.4858 14.2859C32.4858 7.18505 26.7294 1.42871 19.6286 1.42871C12.5278 1.42871 6.77148 7.18505 6.77148 14.2859C6.77148 21.3867 12.5278 27.143 19.6286 27.143Z" stroke="#FF7D44" stroke-width="1.5" stroke-linecap="round" stroke-linejoin="round"/>
<path d="M19.6286 20.0003C22.7845 20.0003 25.3429 17.442 25.3429 14.2861C25.3429 11.1302 22.7845 8.57178 19.6286 8.57178C16.4727 8.57178 13.9143 11.1302 13.9143 14.2861C13.9143 17.442 16.4727 20.0003 19.6286 20.0003Z" stroke="#FF7D44" stroke-width="1.5" stroke-linecap="round" stroke-linejoin="round"/>
<path d="M17.1429 26.9146L14.6287 37.486C14.5789 37.6869 14.4869 37.8749 14.3588 38.0375C14.2307 38.2 14.0695 38.3335 13.8858 38.4289C13.6919 38.513 13.4829 38.5564 13.2715 38.5564C13.0602 38.5564 12.8511 38.513 12.6572 38.4289L3.17151 34.286C2.97255 34.1919 2.79747 34.054 2.65943 33.8826C2.52138 33.7112 2.42396 33.5107 2.37447 33.2963C2.32499 33.0819 2.32472 32.859 2.37369 32.6444C2.42266 32.4298 2.5196 32.2292 2.65723 32.0574L10.0001 22.8574" stroke="#FF7D44" stroke-width="1.5" stroke-linecap="round" stroke-linejoin="round"/>
<path d="M22.8572 26.7716L25.4286 37.4859C25.4797 37.6902 25.5754 37.8807 25.7088 38.0437C25.8421 38.2067 26.0099 38.3382 26.2 38.4287C26.3886 38.5139 26.5931 38.558 26.8 38.558C27.0069 38.558 27.2115 38.5139 27.4 38.4287L36.8286 34.2859C37.0306 34.1929 37.2081 34.0541 37.3469 33.8805C37.4858 33.7069 37.5823 33.5033 37.6286 33.2859C37.6828 33.0732 37.6851 32.8506 37.6354 32.6368C37.5857 32.423 37.4854 32.2243 37.3429 32.0573L29.6858 22.3145" stroke="#FF7D44" stroke-width="1.5" stroke-linecap="round" stroke-linejoin="round"/>
</svg>
