<svg width="42" height="54" viewBox="0 0 42 54" fill="none" xmlns="http://www.w3.org/2000/svg">
<g clip-path="url(#clip0_1432_50639)">
<path d="M20.6883 0C9.26216 0 0 9.26214 0 20.6883C0.0032899 21.0175 0.0115233 21.3457 0.0248657 21.6707C0.0281556 21.7376 0.032352 21.8047 0.0356419 21.8709C0.972532 41.5751 20.6883 53.2362 20.6883 53.2362C20.6883 53.2362 40.4043 41.5751 41.3403 21.8709C41.3445 21.8047 41.3485 21.7378 41.3511 21.6707C41.3652 21.3457 41.3734 21.0175 41.3767 20.6883C41.3767 9.26214 32.1138 0 20.6883 0ZM20.6883 29.427C14.8232 29.427 10.0693 24.6724 10.0693 18.808C10.0693 12.9428 14.8232 8.18891 20.6883 8.18891C26.5528 8.18891 31.3074 12.9428 31.3074 18.808C31.3074 24.6724 26.5528 29.427 20.6883 29.427Z" fill="#4758E0"/>
</g>
<defs>
<clipPath id="clip0_1432_50639">
<rect width="42" height="54" fill="white"/>
</clipPath>
</defs>
</svg>
