<svg width="30" height="30" viewBox="0 0 30 30" fill="none" xmlns="http://www.w3.org/2000/svg">
<g clip-path="url(#clip0_135_20645)">
<path d="M15.0001 28.9284C22.6926 28.9284 28.9287 22.6924 28.9287 14.9999C28.9287 7.30732 22.6926 1.07129 15.0001 1.07129C7.30757 1.07129 1.07153 7.30732 1.07153 14.9999C1.07153 22.6924 7.30757 28.9284 15.0001 28.9284Z" stroke="white" stroke-width="1.5" stroke-linecap="round" stroke-linejoin="round"/>
<path d="M2.14307 20.3569H5.89307C6.88763 20.3569 7.84146 19.9618 8.54472 19.2586C9.24798 18.5553 9.64307 17.6015 9.64307 16.6069V13.3926C9.64307 12.3981 10.0382 11.4442 10.7414 10.741C11.4447 10.0377 12.3985 9.64262 13.3931 9.64262C14.3876 9.64262 15.3415 9.24753 16.0447 8.54427C16.748 7.84101 17.1431 6.88718 17.1431 5.89262V1.22119" stroke="white" stroke-width="1.5" stroke-linecap="round" stroke-linejoin="round"/>
<path d="M28.9288 14.7854C27.8559 14.2287 26.6661 13.9349 25.4574 13.9282H20.8931C19.8985 13.9282 18.9447 14.3233 18.2414 15.0266C17.5382 15.7298 17.1431 16.6837 17.1431 17.6782C17.1431 18.6728 17.5382 19.6266 18.2414 20.3299C18.9447 21.0331 19.8985 21.4282 20.8931 21.4282C21.6035 21.4282 22.2848 21.7104 22.7871 22.2128C23.2894 22.7151 23.5716 23.3964 23.5716 24.1068V25.9711" stroke="white" stroke-width="1.5" stroke-linecap="round" stroke-linejoin="round"/>
</g>
<defs>
<clipPath id="clip0_135_20645">
<rect width="30" height="30" fill="white"/>
</clipPath>
</defs>
</svg>
