<svg width="30" height="30" viewBox="0 0 30 30" fill="none" xmlns="http://www.w3.org/2000/svg">
<g clip-path="url(#clip0_400_25172)">
<path d="M22.4999 17.1428C22.505 15.8055 22.1523 14.4912 21.4785 13.336C20.8048 12.1809 19.8344 11.2268 18.6679 10.5728C17.5014 9.91882 16.1813 9.58859 14.8443 9.61636C13.5072 9.64413 12.202 10.0289 11.0636 10.7308C9.92533 11.4327 8.99539 12.4261 8.37016 13.6083C7.74493 14.7905 7.44716 16.1183 7.50769 17.4542C7.56822 18.7902 7.98485 20.0856 8.71442 21.2064C9.444 22.3272 10.46 23.2325 11.6571 23.8285V27.5142C11.6627 27.7322 11.7532 27.9393 11.9093 28.0914C12.0654 28.2435 12.2748 28.3286 12.4928 28.3285H17.5071C17.7251 28.3286 17.9345 28.2435 18.0906 28.0914C18.2467 27.9393 18.3372 27.7322 18.3428 27.5142V23.7642C19.5776 23.1496 20.619 22.2063 21.3524 21.0381C22.0858 19.8699 22.4829 18.5221 22.4999 17.1428V17.1428Z" stroke="#104B5A" stroke-width="1.5" stroke-linecap="round" stroke-linejoin="round"/>
<path d="M15 1.73572V4.95" stroke="#104B5A" stroke-width="1.5" stroke-linecap="round" stroke-linejoin="round"/>
<path d="M23.5712 4.80005L21.2998 7.09291" stroke="#104B5A" stroke-width="1.5" stroke-linecap="round" stroke-linejoin="round"/>
<path d="M28.4574 11.4429H25.2432" stroke="#104B5A" stroke-width="1.5" stroke-linecap="round" stroke-linejoin="round"/>
<path d="M6.42871 4.80005L8.70014 7.09291" stroke="#104B5A" stroke-width="1.5" stroke-linecap="round" stroke-linejoin="round"/>
<path d="M1.54297 11.4429H4.75725" stroke="#104B5A" stroke-width="1.5" stroke-linecap="round" stroke-linejoin="round"/>
</g>
<defs>
<clipPath id="clip0_400_25172">
<rect width="30" height="30" fill="white"/>
</clipPath>
</defs>
</svg>
