<svg width="30" height="30" viewBox="0 0 30 30" fill="none" xmlns="http://www.w3.org/2000/svg">
<g clip-path="url(#clip0_290_161)">
<path d="M7.26434 22.7362H4.15719C3.38044 22.6715 2.65637 22.3173 2.12859 21.7437C1.6008 21.1702 1.30786 20.4192 1.30786 19.6398C1.30786 18.8604 1.6008 18.1094 2.12859 17.5358C2.65637 16.9623 3.38044 16.608 4.15719 16.5434H9.08576L12.2572 13.3719L3.55719 8.01479C2.88742 7.60075 2.39983 6.94785 2.19298 6.18809C1.98613 5.42832 2.07546 4.61836 2.44291 3.92193C2.60511 3.52337 2.84726 3.16226 3.15441 2.86089C3.46156 2.55952 3.8272 2.32428 4.22877 2.16967C4.63034 2.01507 5.05934 1.94438 5.48928 1.96197C5.91923 1.97955 6.34102 2.08504 6.72862 2.27193L18.0858 7.52193L23.5715 1.97193C24.1625 1.38088 24.9642 1.04883 25.8 1.04883C26.6359 1.04883 27.4376 1.38088 28.0286 1.97193C28.6197 2.56299 28.9517 3.36463 28.9517 4.2005C28.9517 5.03638 28.6197 5.83802 28.0286 6.42908L22.4786 11.9148L27.7286 23.3791C27.9013 23.7608 27.9956 24.1734 28.0058 24.5923C28.016 25.0112 27.942 25.4279 27.7881 25.8176C27.6342 26.2073 27.4036 26.5622 27.1099 26.8611C26.8163 27.16 26.4656 27.3969 26.0786 27.5576C25.3822 27.9251 24.5722 28.0144 23.8125 27.8076C23.0527 27.6007 22.3998 27.1131 21.9858 26.4434L16.6286 17.7434L13.4572 20.9148V25.8434C13.3925 26.6201 13.0383 27.3442 12.4647 27.872C11.8912 28.3997 11.1402 28.6927 10.3608 28.6927C9.58133 28.6927 8.83036 28.3997 8.25681 27.872C7.68325 27.3442 7.32901 26.6201 7.26434 25.8434V22.7362Z" stroke="white" stroke-width="1.5" stroke-linecap="round" stroke-linejoin="round"/>
</g>
<defs>
<clipPath id="clip0_290_161">
<rect width="30" height="30" fill="white"/>
</clipPath>
</defs>
</svg>
