<svg width="30" height="30" viewBox="0 0 30 30" fill="none" xmlns="http://www.w3.org/2000/svg">
<path d="M11.7143 8.28516H5.28571C4.14907 8.28516 3.05898 8.73669 2.25526 9.54041C1.45153 10.3441 1 11.4342 1 12.5709V21.1423H4.21429" stroke="white" stroke-width="1.5" stroke-linecap="round" stroke-linejoin="round"/>
<path d="M26.7144 21.1429H28.8572V6.14286C28.8572 5.57454 28.6314 5.02949 28.2296 4.62763C27.8277 4.22576 27.2827 4 26.7144 4H13.8572C13.2889 4 12.7438 4.22576 12.342 4.62763C11.9401 5.02949 11.7144 5.57454 11.7144 6.14286V18.3143" stroke="white" stroke-width="1.5" stroke-linecap="round" stroke-linejoin="round"/>
<path d="M12.7856 21.1426H18.1428" stroke="white" stroke-width="1.5" stroke-linecap="round" stroke-linejoin="round"/>
<path d="M8.50007 25.4289C10.867 25.4289 12.7858 23.5101 12.7858 21.1431C12.7858 18.7762 10.867 16.8574 8.50007 16.8574C6.13313 16.8574 4.21436 18.7762 4.21436 21.1431C4.21436 23.5101 6.13313 25.4289 8.50007 25.4289Z" stroke="white" stroke-width="1.5" stroke-linecap="round" stroke-linejoin="round"/>
<path d="M22.4285 25.4289C24.7955 25.4289 26.7143 23.5101 26.7143 21.1431C26.7143 18.7762 24.7955 16.8574 22.4285 16.8574C20.0616 16.8574 18.1428 18.7762 18.1428 21.1431C18.1428 23.5101 20.0616 25.4289 22.4285 25.4289Z" stroke="white" stroke-width="1.5" stroke-linecap="round" stroke-linejoin="round"/>
</svg>
