<svg width="40" height="40" viewBox="0 0 40 40" fill="none" xmlns="http://www.w3.org/2000/svg">
<g clip-path="url(#clip0_135_20402)">
<path d="M19.9999 38.5716C30.2566 38.5716 38.5713 30.2569 38.5713 20.0001C38.5713 9.74342 30.2566 1.42871 19.9999 1.42871C9.74318 1.42871 1.42847 9.74342 1.42847 20.0001C1.42847 30.2569 9.74318 38.5716 19.9999 38.5716Z" stroke="#FF7D44" stroke-width="1.5" stroke-linecap="round" stroke-linejoin="round"/>
<path d="M2.85693 27.1432H7.85693C9.18302 27.1432 10.4548 26.6164 11.3925 25.6787C12.3301 24.741 12.8569 23.4693 12.8569 22.1432V17.8575C12.8569 16.5314 13.3837 15.2596 14.3214 14.3219C15.2591 13.3843 16.5309 12.8575 17.8569 12.8575C19.183 12.8575 20.4548 12.3307 21.3925 11.393C22.3301 10.4553 22.8569 9.18356 22.8569 7.85748V1.62891" stroke="#FF7D44" stroke-width="1.5" stroke-linecap="round" stroke-linejoin="round"/>
<path d="M38.5712 19.7146C37.1407 18.9724 35.5543 18.5807 33.9426 18.5718H27.8569C26.5309 18.5718 25.2591 19.0986 24.3214 20.0362C23.3837 20.9739 22.8569 22.2457 22.8569 23.5718C22.8569 24.8979 23.3837 26.1696 24.3214 27.1073C25.2591 28.045 26.5309 28.5718 27.8569 28.5718C28.8041 28.5718 29.7125 28.9481 30.3823 29.6178C31.0521 30.2876 31.4284 31.196 31.4284 32.1432V34.6289" stroke="#FF7D44" stroke-width="1.5" stroke-linecap="round" stroke-linejoin="round"/>
</g>
<defs>
<clipPath id="clip0_135_20402">
<rect width="40" height="40" fill="white"/>
</clipPath>
</defs>
</svg>
