<svg width="40" height="40" viewBox="0 0 40 40" fill="none" xmlns="http://www.w3.org/2000/svg">
<g clip-path="url(#clip0_1448_52414)">
<g clip-path="url(#clip1_1448_52414)">
<g clip-path="url(#clip2_1448_52414)">
<mask id="mask0_1448_52414" style="mask-type:luminance" maskUnits="userSpaceOnUse" x="0" y="0" width="40" height="40">
<path d="M40 0H0V40H40V0Z" fill="white"/>
</mask>
<g mask="url(#mask0_1448_52414)">
<path d="M20.0001 38.5716C30.2568 38.5716 38.5715 30.2569 38.5715 20.0001C38.5715 9.74342 30.2568 1.42871 20.0001 1.42871C9.74342 1.42871 1.42871 9.74342 1.42871 20.0001C1.42871 30.2569 9.74342 38.5716 20.0001 38.5716Z" stroke="#201E4D" stroke-width="1.5" stroke-linecap="round" stroke-linejoin="round"/>
<path d="M2.85693 27.1432H7.85693C9.18302 27.1432 10.4548 26.6164 11.3925 25.6787C12.3301 24.741 12.8569 23.4693 12.8569 22.1432V17.8575C12.8569 16.5314 13.3837 15.2596 14.3214 14.3219C15.2591 13.3843 16.5309 12.8575 17.8569 12.8575C19.183 12.8575 20.4548 12.3307 21.3925 11.393C22.3301 10.4553 22.8569 9.18356 22.8569 7.85748V1.62891" stroke="#201E4D" stroke-width="1.5" stroke-linecap="round" stroke-linejoin="round"/>
<path d="M38.5712 19.7151C37.1407 18.9729 35.5543 18.5812 33.9426 18.5723H27.8569C26.5309 18.5723 25.2591 19.0991 24.3214 20.0367C23.3837 20.9744 22.8569 22.2462 22.8569 23.5723C22.8569 24.8984 23.3837 26.1701 24.3214 27.1078C25.2591 28.0455 26.5309 28.5723 27.8569 28.5723C28.8041 28.5723 29.7125 28.9486 30.3823 29.6183C31.0521 30.2881 31.4284 31.1965 31.4284 32.1437V34.6294" stroke="#201E4D" stroke-width="1.5" stroke-linecap="round" stroke-linejoin="round"/>
</g>
</g>
</g>
</g>
<defs>
<clipPath id="clip0_1448_52414">
<rect width="40" height="40" fill="white"/>
</clipPath>
<clipPath id="clip1_1448_52414">
<rect width="40" height="40" fill="white"/>
</clipPath>
<clipPath id="clip2_1448_52414">
<rect width="40" height="40" fill="white"/>
</clipPath>
</defs>
</svg>
