<svg width="40" height="40" viewBox="0 0 40 40" fill="none" xmlns="http://www.w3.org/2000/svg">
<g clip-path="url(#clip0_135_20390)">
<path d="M17.1428 38.5429C18.7207 38.5429 19.9999 37.2637 19.9999 35.6858C19.9999 34.1078 18.7207 32.8286 17.1428 32.8286C15.5648 32.8286 14.2856 34.1078 14.2856 35.6858C14.2856 37.2637 15.5648 38.5429 17.1428 38.5429Z" stroke="#FF7D44" stroke-width="1.5" stroke-linecap="round" stroke-linejoin="round"/>
<path d="M30 38.5429C31.5779 38.5429 32.8571 37.2637 32.8571 35.6858C32.8571 34.1078 31.5779 32.8286 30 32.8286C28.422 32.8286 27.1428 34.1078 27.1428 35.6858C27.1428 37.2637 28.422 38.5429 30 38.5429Z" stroke="#FF7D44" stroke-width="1.5" stroke-linecap="round" stroke-linejoin="round"/>
<path d="M23.9427 10.0858C23.5043 8.32445 22.6526 6.6929 21.4582 5.32618C20.2639 3.95945 18.7611 2.89685 17.0745 2.22635C15.3878 1.55585 13.5657 1.29672 11.7589 1.47043C9.95218 1.64413 8.2128 2.24567 6.68476 3.22524C5.15672 4.20482 3.88397 5.53425 2.97187 7.1035C2.05977 8.67275 1.53455 10.4367 1.43969 12.2493C1.34483 14.0619 1.68306 15.871 2.42638 17.5268C3.1697 19.1827 4.29673 20.6378 5.71418 21.7715" stroke="#FF7D44" stroke-width="1.5" stroke-linecap="round" stroke-linejoin="round"/>
<path d="M12.8569 12.8858L17.1426 8.6001" stroke="#FF7D44" stroke-width="1.5" stroke-linecap="round" stroke-linejoin="round"/>
<path d="M18.5713 27.1428V24.2856H14.2856C12.7701 24.2856 11.3166 24.8877 10.245 25.9593C9.17333 27.031 8.57129 28.4844 8.57129 29.9999V35.7142" stroke="#FF7D44" stroke-width="1.5" stroke-linecap="round" stroke-linejoin="round"/>
<path d="M38.5713 35.6858V21.4001C38.5713 20.6424 38.2703 19.9156 37.7345 19.3798C37.1986 18.844 36.4719 18.543 35.7141 18.543H21.4284C20.6707 18.543 19.9439 18.844 19.4081 19.3798C18.8723 19.9156 18.5713 20.6424 18.5713 21.4001V27.1144" stroke="#FF7D44" stroke-width="1.5" stroke-linecap="round" stroke-linejoin="round"/>
</g>
<defs>
<clipPath id="clip0_135_20390">
<rect width="40" height="40" fill="white"/>
</clipPath>
</defs>
</svg>
