<svg width="30" height="30" viewBox="0 0 30 30" fill="none" xmlns="http://www.w3.org/2000/svg">
<path d="M20.3571 3.21436H23.5714C24.1397 3.21436 24.6847 3.44012 25.0866 3.84198C25.4885 4.24385 25.7142 4.78889 25.7142 5.35721V26.7858C25.7142 27.3541 25.4885 27.8991 25.0866 28.301C24.6847 28.7029 24.1397 28.9286 23.5714 28.9286H6.4285C5.86018 28.9286 5.31514 28.7029 4.91327 28.301C4.51141 27.8991 4.28564 27.3541 4.28564 26.7858V5.35721C4.28564 4.78889 4.51141 4.24385 4.91327 3.84198C5.31514 3.44012 5.86018 3.21436 6.4285 3.21436H9.64279" stroke="white" stroke-width="1.5" stroke-linecap="round" stroke-linejoin="round"/>
<path d="M18.2143 1.07129H11.7857C10.6022 1.07129 9.64282 2.03068 9.64282 3.21415V4.28557C9.64282 5.46904 10.6022 6.42843 11.7857 6.42843H18.2143C19.3977 6.42843 20.3571 5.46904 20.3571 4.28557V3.21415C20.3571 2.03068 19.3977 1.07129 18.2143 1.07129Z" stroke="white" stroke-width="1.5" stroke-linecap="round" stroke-linejoin="round"/>
<path d="M9.64282 11.7856H20.3571" stroke="white" stroke-width="1.5" stroke-linecap="round" stroke-linejoin="round"/>
<path d="M9.64282 17.1426H20.3571" stroke="white" stroke-width="1.5" stroke-linecap="round" stroke-linejoin="round"/>
<path d="M9.64282 22.5H20.3571" stroke="white" stroke-width="1.5" stroke-linecap="round" stroke-linejoin="round"/>
</svg>
