<svg width="200" height="200" viewBox="0 0 200 200" fill="none" xmlns="http://www.w3.org/2000/svg">
<circle cx="100" cy="100" r="100" fill="#FF7D44"/>
<path d="M102.244 33.1648L103.232 20.3086L106.037 20.5243L105.049 33.3804L102.244 33.1648ZM102.828 33.2097L103.011 30.8333L110.627 31.4189L110.445 33.7953L102.828 33.2097Z" fill="white"/>
<path d="M116.899 35.5395C116.064 35.3345 115.352 35.0389 114.763 34.6527C114.19 34.2571 113.734 33.7898 113.397 33.251C113.076 32.7027 112.871 32.0891 112.783 31.4103C112.708 30.7347 112.768 29.9984 112.964 29.2015C113.156 28.4173 113.441 27.7228 113.818 27.1179C114.21 26.5035 114.68 26.0087 115.228 25.6337C115.779 25.2461 116.391 24.994 117.064 24.8775C117.749 24.7642 118.49 24.8054 119.286 25.0011C120.045 25.1875 120.691 25.4802 121.223 25.8792C121.756 26.2782 122.157 26.7725 122.428 27.3621C122.699 27.9517 122.836 28.6224 122.839 29.3742C122.855 30.1291 122.718 30.9605 122.428 31.8683L114.654 30.0191L115.022 28.5202L121.164 29.9687L120.082 30.5275C120.322 29.8758 120.407 29.3131 120.335 28.8396C120.276 28.3692 120.107 27.9924 119.828 27.7092C119.549 27.4261 119.201 27.2332 118.783 27.1307C118.303 27.0126 117.848 27.035 117.419 27.1979C117.003 27.3639 116.633 27.6686 116.309 28.1122C116.002 28.5462 115.764 29.1048 115.596 29.7878C115.335 30.8502 115.37 31.6904 115.701 32.3081C116.045 32.929 116.609 33.3358 117.393 33.5284C117.747 33.6154 118.055 33.6442 118.317 33.6147C118.582 33.5725 118.81 33.4942 118.999 33.3797C119.2 33.2683 119.369 33.1286 119.504 32.9606C119.655 32.7831 119.779 32.6057 119.876 32.4284L122.15 33.49C121.934 33.9331 121.672 34.318 121.364 34.6446C121.055 34.9712 120.682 35.235 120.244 35.4358C119.809 35.6239 119.313 35.7302 118.757 35.7546C118.214 35.7821 117.595 35.7104 116.899 35.5395Z" fill="white"/>
<path d="M126.893 38.8949C125.832 38.4596 125.163 37.861 124.884 37.099C124.623 36.3299 124.742 35.3369 125.241 34.12L126.948 29.9632L125.592 29.4068L126.452 27.4155L127.338 27.7791C127.74 27.9302 128.059 27.9766 128.294 27.9183C128.541 27.8649 128.756 27.6854 128.938 27.3799L129.666 26.2219L131.148 26.8303L130.28 28.9448L132.666 29.9241L131.798 32.0387L129.412 31.0594L127.788 35.0173C127.609 35.4511 127.581 35.8124 127.702 36.1013C127.827 36.3782 128.095 36.6007 128.505 36.7689C128.734 36.8629 128.96 36.9278 129.185 36.9637C129.422 37.0045 129.64 37.0029 129.842 36.9587L128.855 39.3624C128.444 39.3345 128.074 39.2744 127.746 39.1819C127.418 39.0895 127.134 38.9938 126.893 38.8949Z" fill="white"/>
<path d="M133.901 32.0109C134.382 31.5832 134.781 31.1579 135.099 30.7349C135.428 30.3178 135.716 29.88 135.964 29.4216C136.223 28.969 136.492 28.47 136.769 27.9244L139.051 29.0848C138.655 29.8626 138.269 30.5065 137.892 31.0164C137.516 31.5264 137.152 31.9403 136.8 32.2583C136.455 32.5646 136.127 32.8069 135.817 32.9853L133.901 32.0109Z" fill="white"/>
<path d="M136.615 44.1683C136.035 43.794 135.545 43.4003 135.145 42.9872C134.745 42.5741 134.437 42.1506 134.221 41.7167C134.023 41.2789 133.915 40.8452 133.898 40.4155C133.899 39.982 133.995 39.5561 134.188 39.1377L136.455 39.6241C136.336 39.904 136.299 40.2135 136.344 40.5524C136.4 40.8984 136.553 41.2375 136.804 41.5697C137.054 41.902 137.415 42.2199 137.885 42.5236C138.367 42.8343 138.79 43.0068 139.156 43.0411C139.528 43.0644 139.803 42.9393 139.979 42.6657C140.113 42.4578 140.143 42.2442 140.067 42.0249C140.003 41.8128 139.851 41.5675 139.612 41.2893C139.384 41.0182 139.081 40.7066 138.704 40.3546C138.351 39.9877 137.997 39.6119 137.641 39.227C137.303 38.8383 137.017 38.4289 136.783 37.9989C136.56 37.5759 136.441 37.1351 136.427 36.6765C136.424 36.225 136.581 35.753 136.899 35.2605C137.245 34.7243 137.687 34.351 138.226 34.1406C138.765 33.9302 139.379 33.8922 140.067 34.0264C140.773 34.1567 141.51 34.4691 142.276 34.9634C142.987 35.4224 143.547 35.9235 143.956 36.4665C144.366 37.0095 144.623 37.571 144.729 38.1511C144.847 38.7382 144.79 39.3297 144.561 39.9256L142.242 39.2666C142.386 38.9719 142.434 38.6695 142.386 38.3595C142.349 38.0566 142.225 37.7676 142.015 37.4926C141.812 37.2066 141.525 36.9436 141.153 36.7034C140.693 36.4068 140.283 36.2504 139.921 36.2341C139.571 36.2249 139.314 36.3462 139.152 36.5979C139.017 36.8058 138.99 37.0284 139.069 37.2656C139.149 37.5029 139.314 37.7642 139.563 38.0494C139.82 38.3238 140.129 38.6389 140.488 38.9948C140.858 39.3578 141.213 39.7336 141.551 40.1224C141.896 40.5001 142.178 40.8915 142.397 41.2965C142.617 41.7014 142.726 42.1207 142.725 42.5542C142.724 42.9878 142.565 43.4508 142.247 43.9432C141.88 44.5123 141.413 44.9004 140.845 45.1076C140.288 45.3219 139.649 45.3513 138.928 45.1959C138.207 45.0405 137.436 44.6979 136.615 44.1683Z" fill="white"/>
<path d="M146.755 51.3241L156.617 43.0176L159.348 46.2601L154.187 55.2048L154.25 55.2795L163.904 51.6693L166.509 54.7624L156.647 63.0689L154.935 61.0367L162.717 54.6872L162.591 54.5378L152.443 58.0781L150.908 56.2551L156.159 46.9022L156.033 46.7528L148.454 53.3414L146.755 51.3241Z" fill="white"/>
<path d="M159.757 69.937C159.291 69.0197 159.06 68.1213 159.066 67.2417C159.084 66.3562 159.347 65.5361 159.854 64.7814C160.374 64.0209 161.167 63.3692 162.236 62.8264C163.304 62.2835 164.292 62.0296 165.201 62.0645C166.116 62.111 166.925 62.394 167.627 62.9137C168.347 63.4391 168.934 64.1489 169.388 65.0429C169.849 65.9486 170.076 66.8412 170.07 67.7208C170.07 68.612 169.81 69.4379 169.291 70.1985C168.789 70.9648 168.004 71.6194 166.936 72.1622C165.844 72.7168 164.838 72.965 163.917 72.9069C163.003 72.8604 162.191 72.5715 161.483 72.0402C160.78 71.5206 160.205 70.8195 159.757 69.937ZM161.665 69.0772C161.889 69.5184 162.182 69.8368 162.544 70.0325C162.913 70.2398 163.344 70.3128 163.839 70.2513C164.351 70.1956 164.909 70.0143 165.513 69.7075C166.152 69.383 166.647 69.0216 167 68.6232C167.37 68.2305 167.589 67.8126 167.656 67.3695C167.735 66.9205 167.65 66.4521 167.402 65.9645C167.184 65.5348 166.891 65.2164 166.522 65.0091C166.154 64.8018 165.72 64.723 165.219 64.7729C164.724 64.8343 164.169 65.0214 163.554 65.3341C162.567 65.8356 161.915 66.4078 161.599 67.0505C161.289 67.7049 161.311 68.3805 161.665 69.0772Z" fill="white"/>
<path d="M163.804 78.9277L172.596 72.668L173.503 75.6388L166.47 80.0336L166.556 80.3139L174.85 80.0484L175.717 82.8885L164.928 82.6086L163.804 78.9277Z" fill="white"/>
<path d="M166.388 91.8495C166.279 90.9968 166.298 90.2262 166.447 89.5376C166.61 88.8602 166.882 88.2674 167.263 87.7591C167.659 87.2621 168.158 86.8504 168.76 86.524C169.363 86.2105 170.072 86.0018 170.886 85.8978C171.687 85.7954 172.437 85.8111 173.137 85.9449C173.852 86.0899 174.482 86.3507 175.029 86.7272C175.589 87.1021 176.045 87.5822 176.395 88.1677C176.747 88.7661 176.976 89.4722 177.08 90.2861C177.179 91.0613 177.138 91.769 176.957 92.4092C176.776 93.0494 176.459 93.602 176.007 94.0669C175.554 94.5318 174.978 94.9009 174.277 95.1742C173.579 95.4605 172.753 95.6316 171.802 95.6875L170.731 87.7689L172.262 87.5733L173.12 93.8252L172.209 93.016C172.904 93.006 173.459 92.8825 173.875 92.6455C174.293 92.4214 174.584 92.1282 174.748 91.7659C174.911 91.4035 174.966 91.0092 174.912 90.5829C174.849 90.0919 174.664 89.6757 174.358 89.334C174.053 89.0053 173.636 88.7698 173.106 88.6275C172.59 88.4964 171.983 88.4755 171.286 88.5646C170.2 88.7033 169.429 89.0382 168.972 89.5694C168.516 90.1134 168.339 90.786 168.442 91.587C168.488 91.9487 168.572 92.2465 168.694 92.4804C168.829 92.7127 168.983 92.8964 169.158 93.0317C169.335 93.1798 169.526 93.2867 169.731 93.3524C169.951 93.4293 170.161 93.4812 170.362 93.5081L170.189 96.0118C169.698 95.9695 169.244 95.8634 168.829 95.6933C168.413 95.5232 168.033 95.2698 167.688 94.9331C167.356 94.5948 167.078 94.1707 166.856 93.6608C166.634 93.1638 166.478 92.5601 166.388 91.8495Z" fill="white"/>
<path d="M167.121 104.152L179.915 105.754L179.566 108.545L166.771 106.944L167.121 104.152ZM171.741 106.089L174.029 106.376L173.104 113.761L170.817 113.475L171.741 106.089ZM177.363 106.793L179.748 107.091L178.733 115.195L176.349 114.896L177.363 106.793Z" fill="white"/>
<path d="M163.808 119.785C164.117 118.803 164.581 118 165.201 117.376C165.833 116.756 166.594 116.353 167.485 116.169C168.388 115.989 169.411 116.079 170.554 116.439C171.697 116.798 172.581 117.308 173.206 117.969C173.827 118.642 174.207 119.41 174.345 120.273C174.492 121.152 174.415 122.07 174.114 123.027C173.809 123.996 173.347 124.792 172.727 125.417C172.104 126.053 171.34 126.462 170.437 126.642C169.542 126.838 168.523 126.757 167.38 126.397C166.213 126.03 165.32 125.503 164.703 124.818C164.082 124.144 163.704 123.37 163.57 122.495C163.432 121.632 163.511 120.729 163.808 119.785ZM165.773 120.505C165.624 120.977 165.611 121.41 165.733 121.803C165.851 122.209 166.108 122.563 166.505 122.865C166.91 123.184 167.435 123.445 168.081 123.648C168.765 123.863 169.372 123.952 169.903 123.914C170.442 123.892 170.89 123.747 171.248 123.477C171.619 123.211 171.886 122.817 172.05 122.296C172.195 121.836 172.208 121.403 172.09 120.997C171.972 120.591 171.716 120.231 171.324 119.917C170.927 119.614 170.4 119.36 169.741 119.153C168.685 118.82 167.819 118.773 167.144 119.011C166.464 119.262 166.007 119.76 165.773 120.505Z" fill="white"/>
<path d="M161.406 127.06L165.875 129.306L170.57 131.666L169.526 133.743L166.332 132.138L166.165 132.469C166.927 132.954 167.503 133.433 167.892 133.906C168.275 134.39 168.484 134.889 168.518 135.401C168.552 135.914 168.419 136.467 168.121 137.06C168.063 137.177 167.995 137.296 167.919 137.418C167.843 137.54 167.738 137.677 167.604 137.828L164.986 136.381C165.173 136.242 165.33 136.073 165.459 135.875C165.599 135.683 165.71 135.506 165.792 135.343C166.02 134.889 166.111 134.447 166.066 134.016C166.032 133.59 165.861 133.176 165.553 132.774C165.251 132.389 164.832 132.018 164.297 131.662L160.143 129.573L161.406 127.06Z" fill="white"/>
<path d="M156.359 136.515L166.03 140.773L164.239 143.093L157.027 139.326L156.812 139.605L162.113 145.845L160.06 148.505L152.657 144.986L152.442 145.264L157.911 151.289L156.167 153.546L149.601 145.267L151.953 142.221L159.183 145.804L159.374 145.557L154.031 139.531L156.359 136.515Z" fill="white"/>
<path d="M144.748 149.309C145.185 148.938 145.644 148.694 146.125 148.577C146.606 148.459 147.085 148.48 147.562 148.64C148.028 148.808 148.468 149.135 148.881 149.622C149.251 150.059 149.479 150.489 149.565 150.912C149.64 151.343 149.594 151.783 149.428 152.231C149.262 152.68 149.001 153.157 148.645 153.664C148.289 154.17 147.851 154.712 147.332 155.288C147.045 155.634 146.818 155.92 146.652 156.147C146.485 156.373 146.394 156.578 146.379 156.762C146.364 156.946 146.436 157.132 146.596 157.321C146.841 157.609 147.151 157.764 147.528 157.785C147.896 157.816 148.293 157.65 148.72 157.288C148.998 157.052 149.219 156.779 149.384 156.469C149.538 156.168 149.616 155.837 149.618 155.477C149.618 155.135 149.523 154.78 149.331 154.413L151.666 153.331C151.919 153.85 152.067 154.357 152.109 154.85C152.16 155.354 152.111 155.839 151.961 156.307C151.81 156.794 151.573 157.26 151.25 157.704C150.927 158.149 150.527 158.573 150.05 158.978C149.295 159.618 148.574 160.016 147.886 160.171C147.189 160.336 146.502 160.261 145.826 159.946C145.158 159.641 144.482 159.087 143.8 158.282L142.663 156.941C142.377 156.603 142.073 156.254 141.752 155.895C141.429 155.554 141.101 155.209 140.77 154.858C140.447 154.517 140.118 154.19 139.783 153.876L141.691 152.259C141.948 152.502 142.226 152.769 142.526 153.062C142.834 153.365 143.145 153.681 143.459 154.012L143.698 153.81C143.498 153.313 143.398 152.792 143.397 152.247C143.386 151.71 143.489 151.187 143.707 150.678C143.924 150.17 144.271 149.713 144.748 149.309ZM145.18 151.632C144.992 151.792 144.823 151.986 144.675 152.214C144.535 152.452 144.431 152.711 144.361 152.992C144.282 153.281 144.252 153.588 144.271 153.913C144.291 154.238 144.365 154.568 144.495 154.902L145.495 156.051L145.102 156.282C145.161 156.01 145.277 155.733 145.448 155.452C145.617 155.188 145.814 154.927 146.039 154.669C146.254 154.418 146.464 154.163 146.67 153.903C146.877 153.643 147.045 153.389 147.177 153.141C147.308 152.893 147.374 152.649 147.376 152.409C147.385 152.178 147.285 151.939 147.075 151.691C146.822 151.393 146.52 151.238 146.17 151.228C145.818 151.236 145.488 151.37 145.18 151.632Z" fill="white"/>
<path d="M137.851 155.067L140.493 159.313L143.269 163.776L141.295 165.004L139.407 161.968L139.091 162.164C139.489 162.975 139.73 163.684 139.816 164.29C139.891 164.903 139.809 165.438 139.57 165.893C139.332 166.348 138.931 166.751 138.367 167.102C138.256 167.171 138.137 167.237 138.008 167.302C137.88 167.366 137.719 167.428 137.525 167.487L136.046 164.887C136.278 164.866 136.5 164.804 136.713 164.702C136.933 164.612 137.12 164.518 137.275 164.422C137.706 164.153 138.015 163.823 138.2 163.432C138.393 163.051 138.463 162.609 138.41 162.105C138.353 161.619 138.189 161.084 137.919 160.501L135.462 156.553L137.851 155.067Z" fill="white"/>
<path d="M127.298 160.549C128.077 160.219 128.844 160.127 129.6 160.274C130.36 160.432 131.06 160.814 131.699 161.421C132.343 162.039 132.884 162.864 133.321 163.895C133.733 164.866 133.95 165.778 133.972 166.632C134 167.497 133.82 168.259 133.435 168.918C133.049 169.577 132.449 170.079 131.633 170.425C131.022 170.684 130.455 170.783 129.934 170.721C129.418 170.671 128.933 170.48 128.482 170.148C128.018 169.821 127.573 169.373 127.148 168.804L126.77 168.964C127.01 169.329 127.244 169.682 127.474 170.024C127.691 170.37 127.889 170.703 128.068 171.024C128.246 171.344 128.389 171.631 128.495 171.882L129.784 174.922L127.194 176.02L123.678 167.728L121.757 163.196L123.915 162.281L125.082 165.033L125.424 164.888C125.283 164.155 125.256 163.509 125.344 162.948C125.431 162.387 125.637 161.904 125.96 161.498C126.288 161.105 126.734 160.788 127.298 160.549ZM127.334 163.038C126.95 163.201 126.656 163.424 126.452 163.709C126.247 163.994 126.117 164.304 126.061 164.639C125.993 164.979 125.983 165.323 126.031 165.67C126.072 166.034 126.157 166.366 126.284 166.666L126.413 166.972C126.515 167.212 126.655 167.442 126.834 167.664C127.001 167.89 127.192 168.092 127.409 168.269C127.63 168.458 127.869 168.604 128.125 168.708C128.387 168.823 128.66 168.884 128.946 168.89C129.219 168.902 129.5 168.846 129.788 168.724C130.219 168.541 130.534 168.266 130.732 167.899C130.93 167.532 131.016 167.1 130.989 166.602C130.962 166.105 130.829 165.574 130.59 165.01C130.351 164.447 130.062 163.982 129.723 163.617C129.372 163.256 128.99 163.022 128.576 162.914C128.168 162.819 127.754 162.86 127.334 163.038Z" fill="white"/>
<path d="M113.514 171.478L115.805 172.593L114.098 174.787L114.16 174.915L116.931 174.779L116.62 177.369L113.957 176.396L113.874 176.49L114.873 179.094L112.273 179.538L112.352 176.749L112.224 176.692L110.091 178.483L108.9 176.149L111.541 175.362L111.537 175.224L109.219 173.717L111.011 171.905L112.628 174.185L112.763 174.162L113.514 171.478Z" fill="white"/>
<path d="M101.031 166.525L100.466 179.406L97.655 179.283L98.2208 166.401L101.031 166.525ZM100.446 166.499L100.341 168.88L92.7097 168.545L92.8143 166.164L100.446 166.499Z" fill="white"/>
<path d="M86.3112 164.636C87.1524 164.813 87.8738 165.085 88.4755 165.451C89.0619 165.827 89.5324 166.279 89.8873 166.806C90.2268 167.343 90.4519 167.95 90.5626 168.625C90.6606 169.298 90.6251 170.036 90.4561 170.839C90.2898 171.629 90.0286 172.333 89.6724 172.95C89.3009 173.577 88.8474 174.087 88.3122 174.48C87.7742 174.886 87.1712 175.159 86.5031 175.298C85.8222 175.434 85.0803 175.417 84.2774 175.248C83.5127 175.088 82.8576 174.817 82.3122 174.436C81.7668 174.055 81.3489 173.574 81.0584 172.994C80.7679 172.414 80.6085 171.748 80.5803 170.997C80.5393 170.243 80.6486 169.407 80.9082 168.49L88.7395 170.078L88.4216 171.589L82.2345 170.347L83.298 169.752C83.0793 170.411 83.0136 170.976 83.1009 171.447C83.1754 171.915 83.3568 172.286 83.6453 172.56C83.9338 172.834 84.2883 173.015 84.7089 173.103C85.1932 173.205 85.647 173.168 86.0703 172.99C86.4808 172.811 86.8403 172.494 87.1488 172.04C87.4419 171.595 87.6609 171.029 87.8058 170.341C88.0311 169.27 87.968 168.432 87.6164 167.826C87.2521 167.217 86.6749 166.829 85.8847 166.663C85.5278 166.588 85.2189 166.569 84.958 166.607C84.6943 166.658 84.47 166.744 84.2848 166.865C84.087 166.983 83.9233 167.128 83.7938 167.301C83.649 167.483 83.5309 167.665 83.4397 167.845L81.1314 166.86C81.3326 166.41 81.5818 166.017 81.8789 165.68C82.1761 165.343 82.5403 165.067 82.9716 164.852C83.4002 164.649 83.8919 164.526 84.4467 164.483C84.9887 164.438 85.6102 164.489 86.3112 164.636Z" fill="white"/>
<path d="M76.1771 161.603C77.2511 162.003 77.9399 162.579 78.2433 163.332C78.53 164.092 78.4437 165.088 77.9845 166.321L76.4157 170.532L77.7887 171.043L76.995 173.062L76.098 172.727C75.6906 172.59 75.3704 172.554 75.1374 172.62C74.8921 172.681 74.6836 172.868 74.512 173.179L73.8217 174.36L72.3205 173.801L73.1185 171.659L70.7019 170.759L71.5 168.617L73.9165 169.517L75.4103 165.508C75.574 165.069 75.5907 164.706 75.4606 164.422C75.3258 164.149 75.051 163.936 74.636 163.781C74.4041 163.695 74.1753 163.637 73.9497 163.609C73.7118 163.576 73.493 163.584 73.2935 163.635L74.2006 161.2C74.6122 161.215 74.9835 161.263 75.3145 161.344C75.6455 161.426 75.933 161.512 76.1771 161.603Z" fill="white"/>
<path d="M69.42 168.726C68.9538 169.169 68.569 169.608 68.2657 170.041C67.9506 170.469 67.6768 170.916 67.4443 171.382C67.2 171.843 66.9482 172.351 66.6888 172.905L64.3705 171.821C64.7402 171.03 65.1047 170.374 65.464 169.852C65.8232 169.33 66.1733 168.904 66.5143 168.575C66.8497 168.257 67.1694 168.004 67.4733 167.815L69.42 168.726Z" fill="white"/>
<path d="M66.294 156.654C66.886 157.009 67.3886 157.387 67.8019 157.786C68.2152 158.186 68.5369 158.599 68.7671 159.026C68.9793 159.457 69.1011 159.887 69.1325 160.316C69.146 160.749 69.0634 161.178 68.8847 161.602L66.603 161.191C66.7124 160.907 66.7391 160.597 66.6832 160.259C66.6162 159.915 66.4519 159.581 66.1906 159.258C65.9292 158.934 65.5583 158.628 65.078 158.34C64.5866 158.045 64.1577 157.886 63.7914 157.864C63.4183 157.853 63.1481 157.987 62.9806 158.266C62.8533 158.479 62.831 158.693 62.9137 158.91C62.9852 159.12 63.1449 159.36 63.3929 159.63C63.6297 159.893 63.9425 160.195 64.3312 160.534C64.6954 160.889 65.0617 161.253 65.4304 161.626C65.7811 162.004 66.0805 162.404 66.3285 162.826C66.5653 163.241 66.6983 163.678 66.7274 164.136C66.7453 164.587 66.6036 165.064 66.3021 165.567C65.9738 166.114 65.5439 166.501 65.0123 166.729C64.4807 166.957 63.8687 167.015 63.1763 166.904C62.4659 166.797 61.7198 166.509 60.938 166.04C60.212 165.604 59.6356 165.122 59.2089 164.593C58.7822 164.063 58.5062 163.511 58.381 162.934C58.2447 162.351 58.2815 161.758 58.4913 161.155L60.8301 161.738C60.6961 162.037 60.6582 162.341 60.7163 162.649C60.7633 162.951 60.8962 163.235 61.1152 163.503C61.3274 163.783 61.6234 164.036 62.0032 164.264C62.4723 164.545 62.8878 164.688 63.2496 164.692C63.6003 164.69 63.8527 164.561 64.0068 164.304C64.1341 164.092 64.1541 163.868 64.067 163.634C63.9798 163.399 63.8067 163.143 63.5475 162.866C63.2817 162.601 62.9633 162.296 62.5925 161.952C62.2105 161.601 61.8441 161.237 61.4934 160.86C61.1359 160.494 60.841 160.112 60.6086 159.714C60.3763 159.317 60.2534 158.901 60.2399 158.468C60.2264 158.034 60.3704 157.566 60.6719 157.064C61.0203 156.483 61.4747 156.08 62.0354 155.854C62.5848 155.622 63.2225 155.571 63.9485 155.703C64.6745 155.835 65.4563 156.152 66.294 156.654Z" fill="white"/>
<path d="M55.9294 149.838L46.3442 158.463L43.5085 155.311L48.3742 146.203L48.3089 146.13L38.7779 150.054L36.0729 147.048L45.6581 138.423L47.4353 140.398L39.8659 146.999L39.9966 147.144L50.0227 143.274L51.617 145.046L46.6743 154.565L46.805 154.711L54.1652 147.878L55.9294 149.838Z" fill="white"/>
<path d="M42.3263 131.664C42.8225 132.566 43.0821 133.456 43.1052 134.335C43.1169 135.221 42.8815 136.049 42.399 136.82C41.9051 137.597 41.1332 138.275 40.0835 138.853C39.0337 139.431 38.0541 139.717 37.1445 139.712C36.2287 139.696 35.4112 139.44 34.692 138.943C33.9552 138.442 33.345 137.752 32.8614 136.874C32.3716 135.984 32.1151 135.099 32.092 134.22C32.0626 133.329 32.2949 132.495 32.7888 131.718C33.265 130.935 34.028 130.255 35.0777 129.677C36.1503 129.087 37.1477 128.806 38.0698 128.833C38.9856 128.849 39.8062 129.111 40.5317 129.619C41.2508 130.115 41.849 130.797 42.3263 131.664ZM40.4478 132.587C40.2092 132.153 39.9055 131.844 39.5369 131.661C39.1619 131.466 38.7282 131.407 38.2358 131.485C37.7257 131.557 37.174 131.757 36.5806 132.084C35.9531 132.429 35.4696 132.807 35.1302 133.216C34.7731 133.621 34.5684 134.046 34.516 134.491C34.4523 134.942 34.5523 135.408 34.8161 135.887C35.0484 136.309 35.3521 136.618 35.727 136.813C36.102 137.008 36.5388 137.072 37.0375 137.006C37.5299 136.928 38.0785 136.723 38.6833 136.39C39.6531 135.856 40.2855 135.263 40.5803 134.61C40.8688 133.946 40.8247 133.271 40.4478 132.587Z" fill="white"/>
<path d="M37.9825 122.812L29.4023 129.359L28.3972 126.42L35.2809 121.795L35.1861 121.518L26.9052 122.058L25.9443 119.248L36.7371 119.17L37.9825 122.812Z" fill="white"/>
<path d="M34.9706 109.967C35.1074 110.815 35.1129 111.586 34.9871 112.279C34.8464 112.961 34.5938 113.563 34.2291 114.083C33.8495 114.593 33.3644 115.021 32.7737 115.367C32.1809 115.7 31.4795 115.932 30.6694 116.062C29.8722 116.191 29.1216 116.199 28.4177 116.089C27.6989 115.967 27.06 115.727 26.5009 115.369C25.9289 115.012 25.4582 114.547 25.0887 113.973C24.7171 113.387 24.466 112.689 24.3355 111.879C24.2111 111.107 24.2288 110.398 24.3886 109.753C24.5484 109.107 24.8469 108.544 25.2841 108.065C25.7213 107.585 26.2855 107.198 26.9766 106.901C27.6656 106.593 28.4846 106.395 29.4336 106.308L30.7629 114.187L29.2392 114.432L28.1772 108.212L29.1141 108.991C28.4202 109.024 27.8691 109.165 27.461 109.416C27.0507 109.653 26.7697 109.956 26.6178 110.323C26.466 110.691 26.4242 111.087 26.4926 111.511C26.5714 112 26.7694 112.41 27.0867 112.741C27.4019 113.06 27.8268 113.281 28.3614 113.406C28.8811 113.521 29.4882 113.522 30.1825 113.41C31.2627 113.236 32.0226 112.876 32.4623 112.33C32.9 111.771 33.0546 111.093 32.9261 110.296C32.868 109.936 32.7743 109.641 32.6449 109.411C32.5027 109.184 32.342 109.005 32.1628 108.876C31.9816 108.733 31.7873 108.633 31.5799 108.574C31.3576 108.504 31.1458 108.459 30.9446 108.439L31.0351 105.931C31.5275 105.957 31.9842 106.048 32.4051 106.205C32.8261 106.361 33.2146 106.602 33.5704 106.927C33.9134 107.254 34.2045 107.669 34.4438 108.172C34.681 108.661 34.8566 109.259 34.9706 109.967Z" fill="white"/>
<path d="M33.84 97.7051L21 96.5234L21.2578 93.722L34.0978 94.9037L33.84 97.7051ZM29.1583 95.9205L26.8626 95.7092L27.5448 88.2971L29.8404 88.5084L29.1583 95.9205ZM23.5165 95.4013L21.1235 95.1811L21.8719 87.0492L24.2648 87.2694L23.5165 95.4013Z" fill="white"/>
<path d="M36.6347 81.9821C36.3588 82.9733 35.9215 83.7912 35.3229 84.4357C34.7118 85.0768 33.9641 85.504 33.08 85.7175C32.1833 85.9275 31.1577 85.8718 30.0034 85.5504C28.849 85.229 27.9486 84.7485 27.302 84.1088C26.6588 83.4565 26.2539 82.7016 26.0871 81.844C25.9112 80.9703 25.9578 80.0504 26.2268 79.0843C26.4993 78.1056 26.9348 77.294 27.5334 76.6495C28.1355 75.9924 28.8849 75.5588 29.7816 75.3488C30.6692 75.1228 31.6902 75.1705 32.8446 75.4919C34.024 75.8203 34.9335 76.3168 35.5732 76.9816C36.2163 77.6339 36.6195 78.3951 36.7828 79.2653C36.9496 80.1229 36.9003 81.0285 36.6347 81.9821ZM34.6471 81.3273C34.7799 80.8505 34.7787 80.4176 34.6437 80.0285C34.5122 79.6268 34.2433 79.2815 33.837 78.9927C33.4217 78.6877 32.8878 78.4444 32.2353 78.2628C31.5452 78.0706 30.9356 78.0023 30.4064 78.0578C29.8681 78.0972 29.4246 78.2576 29.0758 78.539C28.7145 78.817 28.4605 79.2195 28.3138 79.7464C28.1845 80.2107 28.1856 80.6436 28.3172 81.0453C28.4487 81.4469 28.7159 81.7985 29.1186 82.0999C29.5249 82.3888 30.0606 82.6258 30.7256 82.811C31.7921 83.1079 32.659 83.1262 33.3264 82.8659C33.9973 82.593 34.4375 82.0801 34.6471 81.3273Z" fill="white"/>
<path d="M38.7923 74.6328L34.2516 72.536L29.4804 70.3327L30.4551 68.222L33.701 69.7209L33.8566 69.3839C33.0789 68.9244 32.4877 68.4649 32.083 68.0054C31.6838 67.5341 31.4588 67.0428 31.4079 66.5316C31.3571 66.0204 31.4709 65.4632 31.7494 64.8602C31.804 64.7419 31.8673 64.6205 31.9392 64.4959C32.011 64.3713 32.1116 64.2312 32.2408 64.0757L34.9054 65.4353C34.7234 65.5808 34.5715 65.7545 34.4495 65.9564C34.3158 66.1529 34.2107 66.3339 34.1342 66.4994C33.9213 66.9606 33.8447 67.4059 33.9047 67.8352C33.9528 68.2591 34.1374 68.6672 34.4584 69.0593C34.7731 69.4341 35.2037 69.7908 35.7504 70.1293L39.9718 72.0787L38.7923 74.6328Z" fill="white"/>
<path d="M43.5256 65.0088L33.7205 61.0703L35.4344 58.6933L42.7658 62.2211L42.9715 61.9358L37.4682 55.8725L39.4335 53.1469L46.9477 56.4211L47.1534 56.1359L41.4902 50.2944L43.1584 47.9808L49.9927 56.0395L47.7418 59.1613L40.3982 55.8174L40.2154 56.071L45.7537 61.9187L43.5256 65.0088Z" fill="white"/>
<path d="M54.7131 51.8409C54.2883 52.2255 53.8374 52.4844 53.3606 52.6175C52.8837 52.7506 52.4045 52.7453 51.9229 52.6015C51.4509 52.449 51.0008 52.1362 50.5724 51.6632C50.1878 51.2384 49.9459 50.816 49.8469 50.3962C49.7575 49.9676 49.7886 49.5265 49.9402 49.073C50.0918 48.6195 50.3371 48.1337 50.6764 47.6157C51.0156 47.0977 51.435 46.5422 51.9347 45.9492C52.2105 45.594 52.4279 45.3005 52.587 45.0687C52.746 44.8368 52.8301 44.6289 52.8392 44.4449C52.8483 44.261 52.7698 44.0773 52.6037 43.8938C52.3502 43.6138 52.0347 43.4691 51.6571 43.4596C51.2891 43.4413 50.8976 43.6202 50.4824 43.9961C50.2121 44.2409 50 44.5208 49.846 44.8359C49.7017 45.1423 49.6345 45.4755 49.6443 45.8356C49.655 46.1773 49.7621 46.5284 49.9655 46.8889L47.6673 48.0474C47.3976 47.5361 47.2335 47.0346 47.1748 46.543C47.1075 46.0417 47.1409 45.5547 47.275 45.0818C47.41 44.5906 47.6317 44.1175 47.9401 43.6625C48.2486 43.2075 48.6345 42.7703 49.0979 42.3506C49.8317 41.6862 50.5395 41.2649 51.2215 41.0867C51.9131 40.8997 52.6021 40.9523 53.2884 41.2445C53.966 41.5271 54.6588 42.0594 55.3669 42.8414L56.5471 44.1447C56.8444 44.473 57.1595 44.8114 57.4927 45.1598C57.8267 45.4899 58.1651 45.8248 58.5079 46.1646C58.8419 46.4946 59.1812 46.8111 59.5258 47.1141L57.6721 48.7926C57.4071 48.5581 57.1202 48.2995 56.8115 48.0168C56.4941 47.7244 56.1727 47.418 55.8474 47.0976L55.6157 47.3074C55.8311 47.7976 55.9484 48.3152 55.9675 48.8602C55.9962 49.3964 55.9102 49.9223 55.7094 50.438C55.5086 50.9536 55.1765 51.4212 54.7131 51.8409ZM54.2051 49.5335C54.3886 49.3674 54.5506 49.1679 54.6912 48.9352C54.8231 48.6928 54.9191 48.4301 54.9793 48.1472C55.0491 47.8556 55.069 47.5477 55.0389 47.2235C55.0089 46.8993 54.9237 46.5723 54.7833 46.2426L53.746 45.1262L54.1315 44.8825C54.081 45.1566 53.9749 45.4372 53.8131 45.7242C53.6523 45.9929 53.4638 46.2602 53.2478 46.5261C53.0414 46.7832 52.8393 47.0452 52.6417 47.3121C52.444 47.5789 52.2836 47.8383 52.1605 48.0904C52.0373 48.3425 51.979 48.5886 51.9855 48.8286C51.9833 49.0591 52.0915 49.2949 52.31 49.5363C52.5723 49.8259 52.8787 49.9702 53.2291 49.9692C53.5805 49.9497 53.9058 49.8045 54.2051 49.5335Z" fill="white"/>
<path d="M61.4244 45.8563L58.6447 41.6986L55.7238 37.3297L57.6565 36.0376L59.6436 39.0097L59.9522 38.8034C59.5285 38.0056 59.2639 37.3052 59.1583 36.7021C59.0636 36.0917 59.1279 35.5552 59.3513 35.0925C59.5747 34.6299 59.9625 34.2139 60.5147 33.8448C60.623 33.7724 60.7403 33.7018 60.8666 33.633C60.993 33.5642 61.1518 33.4972 61.3432 33.4319L62.907 35.982C62.6759 36.0112 62.4556 36.0801 62.2462 36.1887C62.0296 36.2865 61.8455 36.3861 61.6939 36.4875C61.2717 36.7698 60.9741 37.1097 60.8012 37.5073C60.6211 37.894 60.5657 38.3384 60.635 38.8404C60.7078 39.3244 60.8891 39.8534 61.1789 40.4274L63.7631 44.2928L61.4244 45.8563Z" fill="white"/>
<path d="M71.7732 40.0421C71.0052 40.3983 70.2413 40.5157 69.4815 40.3944C68.7162 40.2612 68.0042 39.9023 67.3454 39.3177C66.6811 38.7213 66.1133 37.9151 65.642 36.899C65.1981 35.9419 64.9508 35.0373 64.9 34.185C64.8438 33.321 64.9974 32.5534 65.361 31.8823C65.7245 31.2111 66.3079 30.6893 67.1114 30.3166C67.714 30.0371 68.2768 29.9196 68.8 29.9641C69.3176 29.9968 69.8078 30.1714 70.2706 30.488C70.7451 30.7991 71.2044 31.2322 71.6484 31.7871L72.0206 31.6145C71.7689 31.2575 71.5226 30.9123 71.2818 30.5789C71.0529 30.24 70.8439 29.9134 70.655 29.599C70.4661 29.2846 70.3141 29.0033 70.199 28.7552L68.8098 25.7601L71.3619 24.5763L75.1516 32.7465L77.2232 37.2127L75.0964 38.1992L73.8387 35.4876L73.5019 35.6438C73.667 36.3712 73.7151 37.0165 73.6461 37.5797C73.5772 38.1429 73.388 38.6327 73.0786 39.049C72.7637 39.4535 72.3286 39.7845 71.7732 40.0421ZM71.6539 37.5562C72.032 37.3808 72.3186 37.1474 72.5136 36.8559C72.7086 36.5645 72.8286 36.2504 72.8734 35.9138C72.9301 35.5716 72.9285 35.2278 72.8687 34.8822C72.8153 34.5194 72.72 34.1902 72.583 33.8949L72.4433 33.5936C72.3337 33.3573 72.1859 33.1315 71.9999 32.9163C71.8257 32.6955 71.6275 32.5003 71.4052 32.3306C71.1775 32.1491 70.9339 32.0109 70.6744 31.9159C70.4095 31.809 70.1342 31.7572 69.8486 31.7605C69.5748 31.7583 69.2961 31.823 69.0125 31.9545C68.5872 32.1518 68.2816 32.4371 68.0958 32.8104C67.91 33.1837 67.839 33.6187 67.8827 34.1153C67.9264 34.6118 68.077 35.1378 68.3346 35.6931C68.5922 36.2484 68.8964 36.7031 69.2473 37.0573C69.61 37.4059 69.9998 37.6271 70.4166 37.7209C70.8279 37.8029 71.2404 37.748 71.6539 37.5562Z" fill="white"/>
<path d="M85.2326 28.6476L82.9063 27.6074L84.5407 25.3592L84.4751 25.2331L81.7097 25.4591L81.9364 22.8604L84.6298 23.7458L84.7099 23.6497L83.6264 21.0794L86.2105 20.5515L86.2221 23.3407L86.3526 23.3938L88.4254 21.5346L89.6916 23.8283L87.0783 24.7012L87.0865 24.8391L89.4527 26.2699L87.7209 28.1392L86.0297 25.9124L85.8957 25.9398L85.2326 28.6476Z" fill="white"/>
<path d="M128.422 90.4078C101.296 99.9979 94.1493 117.38 94.1493 117.38C94.1493 117.38 88.9941 114.862 97.3783 106.351C108.833 94.7242 125.578 90.9212 128.401 90.3481C127.943 89.0044 127.385 87.6766 126.722 86.3748C119.196 71.6178 101.132 65.7548 86.3738 73.2796C74.7735 79.1947 68.6707 91.6206 70.2443 103.834C70.9382 102.719 71.799 101.646 72.8437 100.642C74.8553 98.7112 77.3365 96.8961 80.3787 95.2699C101.085 84.1985 119.113 86.3446 119.113 86.3446C98.9259 88.1917 79.2979 100.593 78.6676 111.757C78.4912 114.881 79.3938 117.65 80.6774 119.954C83.3532 124.758 88.065 128.058 93.4297 129.266C100.017 130.748 107.14 130.027 113.626 126.721C127.063 119.869 133.124 104.282 128.422 90.4078ZM83.4518 112.382C84.3731 104.557 99.2041 88.9243 127.415 88.1103C127.415 88.1103 87.3201 94.1983 85.5863 121.856C85.5863 121.856 82.7426 118.409 83.4518 112.382Z" fill="#104B5A"/>
</svg>
