<svg width="177" height="51" viewBox="0 0 177 51" fill="none" xmlns="http://www.w3.org/2000/svg">
<path d="M47.1792 37.2346L34.4214 14.5627H45.7495C46.1551 14.5716 46.5489 14.4258 46.8507 14.1547C47.1526 13.8837 47.3399 13.5079 47.3745 13.1037C47.3887 12.89 47.3588 12.6756 47.2867 12.4739C47.2145 12.2723 47.1017 12.0876 46.9552 11.9313C46.8086 11.7751 46.6315 11.6506 46.4349 11.5657C46.2382 11.4808 46.0262 11.4372 45.812 11.4377H5.23977C4.83587 11.4313 4.44456 11.5783 4.14479 11.8491C3.84502 12.1198 3.6591 12.4942 3.62454 12.8967C3.61035 13.1104 3.64025 13.3248 3.7124 13.5265C3.78454 13.7281 3.89738 13.9128 4.04391 14.0691C4.19044 14.2253 4.36753 14.3498 4.56418 14.4347C4.76083 14.5196 4.97284 14.5632 5.18704 14.5627H16.5777L3.81985 37.2346C3.65608 37.5257 3.58991 37.8616 3.63103 38.1931C3.67216 38.5246 3.81842 38.8341 4.04837 39.0764C4.20055 39.2326 4.38291 39.3563 4.58436 39.4399C4.78581 39.5235 5.00215 39.5653 5.22024 39.5627H23.1558C23.363 39.5627 23.5617 39.4804 23.7082 39.3339C23.8547 39.1874 23.937 38.9887 23.937 38.7815V34.9279C23.9316 34.5247 24.0791 34.1344 24.3497 33.8354C24.6204 33.5365 24.9942 33.3511 25.396 33.3166C25.6098 33.3024 25.8241 33.3323 26.0258 33.4045C26.2275 33.4766 26.4122 33.5895 26.5684 33.736C26.7247 33.8825 26.8491 34.0596 26.934 34.2563C27.0189 34.4529 27.0625 34.6649 27.062 34.8791V38.7854C27.062 38.9926 27.1443 39.1913 27.2909 39.3378C27.4374 39.4843 27.6361 39.5666 27.8433 39.5666H45.7671C45.9852 39.5692 46.2015 39.5274 46.403 39.4438C46.6045 39.3602 46.7868 39.2365 46.939 39.0803C47.1717 38.8391 47.3207 38.5294 47.3639 38.1971C47.4072 37.8648 47.3424 37.5273 47.1792 37.2346ZM27.062 27.844C27.062 28.2584 26.8974 28.6558 26.6044 28.9488C26.3114 29.2418 25.9139 29.4065 25.4995 29.4065C25.0851 29.4065 24.6877 29.2418 24.3947 28.9488C24.1017 28.6558 23.937 28.2584 23.937 27.844V24.719C23.937 24.3046 24.1017 23.9071 24.3947 23.6141C24.6877 23.3211 25.0851 23.1565 25.4995 23.1565C25.9139 23.1565 26.3114 23.3211 26.6044 23.6141C26.8974 23.9071 27.062 24.3046 27.062 24.719V27.844ZM27.062 17.6877C27.062 18.1021 26.8974 18.4995 26.6044 18.7926C26.3114 19.0856 25.9139 19.2502 25.4995 19.2502C25.0851 19.2502 24.6877 19.0856 24.3947 18.7926C24.1017 18.4995 23.937 18.1021 23.937 17.6877V16.1252C23.937 15.7108 24.1017 15.3134 24.3947 15.0203C24.6877 14.7273 25.0851 14.5627 25.4995 14.5627C25.9139 14.5627 26.3114 14.7273 26.6044 15.0203C26.8974 15.3134 27.062 15.7108 27.062 16.1252V17.6877Z" fill="#3B42D5"/>
<path d="M69.7194 10.4545V41H63.2613V10.4545H69.7194ZM75.0328 41V10.4545H87.0839C89.3907 10.4545 91.3595 10.8672 92.9901 11.6925C94.6308 12.5078 95.8786 13.6662 96.7338 15.1676C97.5988 16.6591 98.0313 18.4141 98.0313 20.4325C98.0313 22.4609 97.5938 24.206 96.7188 25.6676C95.8438 27.1193 94.5761 28.233 92.9156 29.0085C91.265 29.7841 89.2664 30.1719 86.9198 30.1719H78.8509V24.9815H85.8758C87.1088 24.9815 88.1329 24.8125 88.9482 24.4744C89.7636 24.1364 90.3701 23.6293 90.7678 22.9531C91.1755 22.277 91.3794 21.4368 91.3794 20.4325C91.3794 19.4183 91.1755 18.5632 90.7678 17.8672C90.3701 17.1712 89.7586 16.6442 88.9333 16.2862C88.118 15.9183 87.0889 15.7344 85.846 15.7344H81.4909V41H75.0328ZM91.5285 27.0994L99.1201 41H91.9909L84.5633 27.0994H91.5285ZM112.458 41.4474C110.141 41.4474 108.137 40.9553 106.447 39.9709C104.767 38.9766 103.469 37.5945 102.554 35.8246C101.639 34.0447 101.182 31.9815 101.182 29.6349C101.182 27.2685 101.639 25.2003 102.554 23.4304C103.469 21.6506 104.767 20.2685 106.447 19.2841C108.137 18.2898 110.141 17.7926 112.458 17.7926C114.774 17.7926 116.773 18.2898 118.453 19.2841C120.144 20.2685 121.446 21.6506 122.361 23.4304C123.276 25.2003 123.733 27.2685 123.733 29.6349C123.733 31.9815 123.276 34.0447 122.361 35.8246C121.446 37.5945 120.144 38.9766 118.453 39.9709C116.773 40.9553 114.774 41.4474 112.458 41.4474ZM112.487 36.5256C113.541 36.5256 114.421 36.2273 115.127 35.6307C115.833 35.0241 116.365 34.1989 116.723 33.1548C117.091 32.1108 117.275 30.9226 117.275 29.5902C117.275 28.2578 117.091 27.0696 116.723 26.0256C116.365 24.9815 115.833 24.1562 115.127 23.5497C114.421 22.9432 113.541 22.6399 112.487 22.6399C111.424 22.6399 110.529 22.9432 109.803 23.5497C109.087 24.1562 108.545 24.9815 108.177 26.0256C107.819 27.0696 107.64 28.2578 107.64 29.5902C107.64 30.9226 107.819 32.1108 108.177 33.1548C108.545 34.1989 109.087 35.0241 109.803 35.6307C110.529 36.2273 111.424 36.5256 112.487 36.5256ZM134.397 41.4325C132.936 41.4325 131.633 41.179 130.49 40.6719C129.346 40.1548 128.441 39.3942 127.775 38.3899C127.119 37.3757 126.791 36.1129 126.791 34.6016C126.791 33.3288 127.024 32.2599 127.492 31.3949C127.959 30.5298 128.595 29.8338 129.401 29.3068C130.206 28.7798 131.121 28.3821 132.145 28.1136C133.179 27.8452 134.263 27.6562 135.397 27.5469C136.729 27.4077 137.803 27.2784 138.618 27.1591C139.434 27.0298 140.025 26.8409 140.393 26.5923C140.761 26.3437 140.945 25.9759 140.945 25.4886V25.3991C140.945 24.4545 140.647 23.7237 140.05 23.2067C139.463 22.6896 138.628 22.4311 137.544 22.4311C136.401 22.4311 135.491 22.6847 134.815 23.1918C134.139 23.6889 133.691 24.3153 133.473 25.071L127.596 24.5938C127.894 23.2017 128.481 21.9986 129.356 20.9844C130.231 19.9602 131.36 19.1747 132.742 18.6278C134.134 18.071 135.745 17.7926 137.574 17.7926C138.847 17.7926 140.065 17.9418 141.228 18.2401C142.402 18.5384 143.441 19.0007 144.345 19.6271C145.26 20.2536 145.981 21.0589 146.508 22.0433C147.035 23.0178 147.299 24.1861 147.299 25.5483V41H141.273V37.8232H141.094C140.726 38.5391 140.234 39.1705 139.617 39.7173C139.001 40.2543 138.26 40.6768 137.395 40.9851C136.53 41.2834 135.531 41.4325 134.397 41.4325ZM136.217 37.0476C137.152 37.0476 137.977 36.8636 138.693 36.4957C139.409 36.1179 139.97 35.6108 140.378 34.9744C140.786 34.3381 140.99 33.6172 140.99 32.8118V30.3807C140.791 30.5099 140.517 30.6293 140.169 30.7386C139.831 30.8381 139.448 30.9325 139.021 31.022C138.593 31.1016 138.166 31.1761 137.738 31.2457C137.311 31.3054 136.923 31.3601 136.575 31.4098C135.829 31.5192 135.178 31.6932 134.621 31.9318C134.064 32.1705 133.632 32.4936 133.323 32.9013C133.015 33.299 132.861 33.7962 132.861 34.3928C132.861 35.2578 133.174 35.919 133.801 36.3764C134.437 36.8239 135.242 37.0476 136.217 37.0476ZM160.67 41.3729C158.93 41.3729 157.354 40.9254 155.942 40.0305C154.54 39.1257 153.426 37.7983 152.601 36.0483C151.785 34.2884 151.378 32.1307 151.378 29.5753C151.378 26.9503 151.8 24.7678 152.646 23.0277C153.491 21.2777 154.614 19.9702 156.016 19.1051C157.428 18.2301 158.974 17.7926 160.655 17.7926C161.937 17.7926 163.006 18.0114 163.861 18.4489C164.726 18.8764 165.422 19.4134 165.949 20.0597C166.486 20.696 166.894 21.3224 167.172 21.9389H167.366V10.4545H173.705V41H167.441V37.331H167.172C166.874 37.9673 166.452 38.5987 165.905 39.2251C165.368 39.8416 164.667 40.3537 163.802 40.7614C162.947 41.169 161.903 41.3729 160.67 41.3729ZM162.683 36.3168C163.707 36.3168 164.572 36.0384 165.278 35.4815C165.994 34.9148 166.541 34.1243 166.919 33.1101C167.307 32.0959 167.501 30.9077 167.501 29.5455C167.501 28.1832 167.312 27 166.934 25.9957C166.556 24.9915 166.009 24.2159 165.293 23.669C164.577 23.1222 163.707 22.8487 162.683 22.8487C161.639 22.8487 160.759 23.1321 160.043 23.6989C159.327 24.2656 158.785 25.0511 158.418 26.0554C158.05 27.0597 157.866 28.223 157.866 29.5455C157.866 30.8778 158.05 32.0561 158.418 33.0803C158.795 34.0945 159.337 34.8899 160.043 35.4666C160.759 36.0334 161.639 36.3168 162.683 36.3168Z" fill="#3B42D5"/>
</svg>
