<svg width="200" height="100" viewBox="0 0 200 100" fill="none" xmlns="http://www.w3.org/2000/svg">
<path d="M166.667 66.6667C166.667 85.0763 151.743 100 133.333 100C114.924 100 100 85.0763 100 66.6667H166.667ZM133.333 0C114.924 0 100 14.9237 100 33.3333C100 51.743 114.924 66.6667 133.333 66.6667V0ZM200 33.3333C200 14.9237 185.076 0 166.667 0C148.257 0 133.333 14.9237 133.333 33.3333H200ZM166.667 100C185.076 100 200 85.0763 200 66.6667C200 48.257 185.076 33.3333 166.667 33.3333V100Z" fill="white"/>
</svg>
