<svg width="200" height="100" viewBox="0 0 200 100" fill="none" xmlns="http://www.w3.org/2000/svg">
<path d="M95.001 54.166C113.217 54.1662 127.994 64.4291 127.994 77.084C127.994 89.7374 113.217 99.9999 95.001 100H56C64.8936 94.2876 70.5076 86.1413 70.5078 77.084C70.5078 68.0265 64.8938 59.8785 56 54.166H95.001ZM167.001 54.166C185.222 54.1662 200 64.4291 200 77.084C200 89.7374 185.222 99.9999 167.001 100H128C136.894 94.2876 142.508 86.1413 142.508 77.084C142.508 68.0265 136.894 59.8785 128 54.166H167.001ZM95.001 0C113.217 0.000146774 127.994 10.2612 127.994 22.916C127.994 35.5709 113.217 45.8319 95.001 45.832L56 45.834C64.8936 40.1203 70.5076 31.9753 70.5078 22.918C70.5078 13.8605 64.8938 5.7125 56 0H95.001ZM167.001 0C185.222 0.000145761 200 10.2612 200 22.916C200 35.5709 185.222 45.8319 167.001 45.832L128 45.834C136.894 40.1203 142.508 31.9753 142.508 22.918C142.508 13.8605 136.894 5.7125 128 0H167.001Z" fill="white"/>
</svg>
