<svg width="175" height="50" viewBox="0 0 175 50" fill="none" xmlns="http://www.w3.org/2000/svg">
<path d="M48.6851 17.0065C26.0803 24.9982 20.1245 39.4829 20.1245 39.4829C20.1245 39.4829 15.8284 37.3848 22.8153 30.2925C32.3605 20.6035 46.315 17.4343 48.6679 16.9568C48.2857 15.837 47.8212 14.7305 47.2681 13.6457C40.9968 1.34813 25.9431 -3.53763 13.6449 2.73301C3.97791 7.66224 -1.10774 18.0172 0.203617 28.1953C0.781836 27.2655 1.49914 26.3721 2.36974 25.5353C4.04608 23.926 6.11379 22.4134 8.64888 21.0582C25.9043 11.8321 40.9274 13.6205 40.9274 13.6205C24.1049 15.1597 7.74828 25.494 7.22301 34.7979C7.07601 37.4007 7.82817 39.7084 8.89786 41.6284C11.1277 45.6317 15.0542 48.3816 19.5248 49.3881C25.0141 50.6237 30.9503 50.0229 36.355 47.2671C47.5521 41.5577 52.6036 28.5686 48.6851 17.0065ZM11.2098 35.318C11.9776 28.7976 24.3368 15.7702 47.8459 15.0919C47.8459 15.0919 14.4334 20.1652 12.9885 43.2132C12.9885 43.2132 10.6189 40.3412 11.2098 35.318Z" fill="#FF7D44"/>
<path d="M77.07 35.42C75.51 35.42 74.13 35.2 72.93 34.76C71.73 34.3 70.71 33.64 69.87 32.78C69.05 31.9 68.42 30.84 67.98 29.6C67.56 28.34 67.35 26.9 67.35 25.28C67.35 23.64 67.57 22.18 68.01 20.9C68.45 19.6 69.08 18.5 69.9 17.6C70.74 16.68 71.73 15.98 72.87 15.5C74.03 15.02 75.34 14.78 76.8 14.78C77.96 14.78 79.01 14.94 79.95 15.26C80.91 15.56 81.72 16 82.38 16.58C83.06 17.14 83.58 17.82 83.94 18.62C84.32 19.42 84.51 20.31 84.51 21.29L80.49 22.25C80.51 21.39 80.34 20.67 79.98 20.09C79.62 19.51 79.15 19.07 78.57 18.77C77.99 18.47 77.35 18.32 76.65 18.32C76.07 18.32 75.49 18.45 74.91 18.71C74.33 18.95 73.81 19.34 73.35 19.88C72.89 20.4 72.53 21.09 72.27 21.95C72.01 22.79 71.88 23.82 71.88 25.04C71.88 26.62 72.1 27.91 72.54 28.91C72.98 29.91 73.6 30.66 74.4 31.16C75.22 31.64 76.14 31.88 77.16 31.88C78.22 31.88 79.05 31.66 79.65 31.22C80.27 30.76 80.71 30.17 80.97 29.45C81.25 28.71 81.39 27.92 81.39 27.08L85.23 27.68C85.23 28.74 85.08 29.74 84.78 30.68C84.5 31.62 84.04 32.45 83.4 33.17C82.76 33.87 81.91 34.42 80.85 34.82C79.81 35.22 78.55 35.42 77.07 35.42ZM91.707 35.42C90.847 35.42 90.077 35.26 89.397 34.94C88.717 34.6 88.177 34.1 87.777 33.44C87.377 32.78 87.177 31.96 87.177 30.98C87.177 30.1 87.347 29.37 87.687 28.79C88.027 28.19 88.517 27.71 89.157 27.35C89.797 26.99 90.567 26.7 91.467 26.48C92.367 26.24 93.387 26.03 94.527 25.85C95.227 25.73 95.797 25.62 96.237 25.52C96.677 25.42 96.997 25.27 97.197 25.07C97.397 24.87 97.497 24.58 97.497 24.2C97.497 23.62 97.287 23.14 96.867 22.76C96.447 22.36 95.807 22.16 94.947 22.16C94.407 22.16 93.887 22.26 93.387 22.46C92.907 22.64 92.497 22.94 92.157 23.36C91.817 23.76 91.587 24.29 91.467 24.95L87.627 23.96C87.827 23.06 88.137 22.29 88.557 21.65C88.997 21.01 89.547 20.48 90.207 20.06C90.867 19.64 91.607 19.33 92.427 19.13C93.247 18.93 94.127 18.83 95.067 18.83C96.587 18.83 97.837 19.08 98.817 19.58C99.797 20.08 100.527 20.85 101.007 21.89C101.487 22.93 101.727 24.25 101.727 25.85V28.58C101.727 29.26 101.737 29.97 101.757 30.71C101.777 31.43 101.807 32.15 101.847 32.87C101.887 33.59 101.937 34.3 101.997 35H98.187C98.127 34.44 98.067 33.83 98.007 33.17C97.967 32.49 97.937 31.8 97.917 31.1H97.437C97.197 31.9 96.807 32.63 96.267 33.29C95.747 33.93 95.107 34.45 94.347 34.85C93.587 35.23 92.707 35.42 91.707 35.42ZM93.537 32.27C93.917 32.27 94.307 32.2 94.707 32.06C95.107 31.92 95.487 31.72 95.847 31.46C96.227 31.18 96.567 30.84 96.867 30.44C97.167 30.02 97.397 29.53 97.557 28.97L97.527 26.81L98.217 26.9C97.897 27.16 97.497 27.37 97.017 27.53C96.557 27.67 96.067 27.79 95.547 27.89C95.047 27.97 94.547 28.06 94.047 28.16C93.547 28.24 93.097 28.36 92.697 28.52C92.297 28.68 91.977 28.9 91.737 29.18C91.497 29.46 91.377 29.84 91.377 30.32C91.377 30.92 91.577 31.4 91.977 31.76C92.377 32.1 92.897 32.27 93.537 32.27ZM105.213 35V27.26V19.25H108.813V24.83H109.323C109.483 23.43 109.753 22.3 110.133 21.44C110.513 20.56 111.033 19.92 111.693 19.52C112.373 19.1 113.203 18.89 114.183 18.89C114.383 18.89 114.603 18.91 114.843 18.95C115.103 18.97 115.373 19.02 115.653 19.1L115.473 23.72C115.153 23.56 114.803 23.45 114.423 23.39C114.063 23.33 113.743 23.3 113.463 23.3C112.703 23.3 112.043 23.48 111.483 23.84C110.943 24.2 110.513 24.73 110.193 25.43C109.873 26.13 109.653 26.99 109.533 28.01V35H105.213ZM122.203 35L116.983 19.28H121.753L125.023 31.55H125.443L128.773 19.28H133.303L128.083 35H122.203ZM142.207 35.42C140.647 35.42 139.267 35.11 138.067 34.49C136.867 33.85 135.927 32.92 135.247 31.7C134.567 30.46 134.227 28.92 134.227 27.08C134.227 25.22 134.567 23.68 135.247 22.46C135.947 21.24 136.897 20.33 138.097 19.73C139.297 19.13 140.667 18.83 142.207 18.83C143.767 18.83 145.147 19.14 146.347 19.76C147.547 20.38 148.487 21.31 149.167 22.55C149.847 23.77 150.187 25.3 150.187 27.14C150.187 29.02 149.837 30.58 149.137 31.82C148.457 33.04 147.507 33.95 146.287 34.55C145.087 35.13 143.727 35.42 142.207 35.42ZM142.327 32.21C143.087 32.21 143.727 32.03 144.247 31.67C144.787 31.29 145.187 30.74 145.447 30.02C145.727 29.3 145.867 28.42 145.867 27.38C145.867 26.28 145.717 25.35 145.417 24.59C145.137 23.81 144.717 23.22 144.157 22.82C143.617 22.4 142.927 22.19 142.087 22.19C141.347 22.19 140.707 22.37 140.167 22.73C139.647 23.09 139.247 23.64 138.967 24.38C138.707 25.1 138.577 25.99 138.577 27.05C138.577 28.71 138.907 29.99 139.567 30.89C140.227 31.77 141.147 32.21 142.327 32.21ZM150.764 35L155.984 27.11L150.794 19.25H155.774L158.594 25.07H159.074L161.864 19.25H166.844L161.684 27.11L166.874 35H161.924L159.044 29.15H158.594L155.774 35H150.764Z" fill="white"/>
<path d="M171.052 35.39C170.112 35.39 169.412 35.19 168.952 34.79C168.492 34.39 168.262 33.77 168.262 32.93C168.262 32.07 168.492 31.44 168.952 31.04C169.412 30.64 170.112 30.44 171.052 30.44C171.992 30.44 172.702 30.64 173.182 31.04C173.662 31.44 173.902 32.07 173.902 32.93C173.902 34.57 172.952 35.39 171.052 35.39Z" fill="#FF7D44"/>
</svg>
